<svg width="178" height="24" viewBox="0 0 178 24" fill="none" xmlns="http://www.w3.org/2000/svg">
<path d="M33.3945 2.88504C38.6318 2.88504 40.9363 6.54358 40.9363 10.7482C40.9363 14.9528 38.6298 18.6808 33.3945 18.6808H26.0928V2.88504H33.3945ZM32.7701 16.2572C36.3722 16.2572 37.742 14.3817 37.742 10.7463C37.742 7.11089 36.3722 5.3067 32.7701 5.3067H29.168V16.2572H32.7701Z" fill="#281868"/>
<path d="M48.2865 16.9693C50.1363 16.9693 51.0242 16.1608 51.3618 15.0937H54.1716C53.9082 16.8747 52.4662 19.061 48.1909 19.061C43.9156 19.061 41.9448 16.1395 41.9448 12.7183C41.9448 9.29713 43.9137 6.42393 48.1909 6.42393C52.4681 6.42393 54.2204 9.22766 54.2204 12.6006C54.2204 12.9325 54.197 13.2413 54.1482 13.5268H44.8288C45.0454 16.1627 46.3899 16.9712 48.2885 16.9712L48.2865 16.9693ZM48.2377 8.48862C46.3645 8.48862 45.1625 9.24889 44.8757 11.576H51.3618C51.2408 9.48623 50.1851 8.48862 48.2397 8.48862H48.2377Z" fill="#281868"/>
<path d="M61.4989 16.9693C63.3488 16.9693 64.2366 16.1608 64.5742 15.0937H67.384C67.1206 16.8747 65.6786 19.061 61.4033 19.061C57.128 19.061 55.1572 16.1395 55.1572 12.7183C55.1572 9.29713 57.1261 6.42393 61.4033 6.42393C65.6805 6.42393 67.4328 9.22766 67.4328 12.6006C67.4328 12.9325 67.4094 13.2413 67.3606 13.5268H58.0412C58.2578 16.1627 59.6023 16.9712 61.5009 16.9712L61.4989 16.9693ZM61.4501 8.48862C59.5769 8.48862 58.3749 9.24889 58.0881 11.576H64.5742C64.4551 9.48623 63.3975 8.48862 61.4521 8.48862H61.4501Z" fill="#281868"/>
<path d="M76.2255 6.42393C80.1164 6.42393 81.775 9.27397 81.775 12.7415C81.775 16.209 80.1184 19.059 76.2255 19.059C74.1123 19.059 72.6703 18.2042 71.8546 16.7782V23.4296H68.877V6.80407H71.8546V8.67965C72.6722 7.25367 74.1123 6.42393 76.2255 6.42393ZM75.4099 16.7319C77.8841 16.7319 78.7973 15.4487 78.7973 12.7415C78.7973 10.0342 77.8841 8.75105 75.4099 8.75105C72.9356 8.75105 71.8546 10.0092 71.8546 12.7415C71.8546 15.4738 73.0313 16.7319 75.4099 16.7319Z" fill="#281868"/>
<path d="M83.0859 13.4304H86.0402C86.1358 15.4738 87.3612 16.7802 90.1964 16.7802C93.0317 16.7802 93.7985 15.8308 93.7985 14.3817C93.7985 13.0522 92.9829 12.3382 91.3965 12.1009L87.769 11.6262C84.9826 11.2692 83.4938 9.79691 83.4938 7.25561C83.4938 4.50012 85.5602 2.45667 89.9545 2.45667C94.5908 2.45667 96.5128 4.73747 96.7274 7.53926H93.7244C93.5078 5.85278 92.3312 4.73554 89.9291 4.73554C87.5271 4.73554 86.5905 5.70999 86.5905 7.11089C86.5905 8.15674 87.1661 8.91701 88.5847 9.10611L92.2121 9.60588C95.2386 9.98601 96.8718 11.3638 96.8718 14.0478C96.8718 17.1603 94.9498 19.059 90.1711 19.059C84.9338 19.059 83.1328 16.3518 83.0859 13.4304Z" fill="#281868"/>
<path d="M98.0332 12.7415C98.0332 9.32028 100.051 6.42393 104.398 6.42393C108.338 6.42393 110.307 8.5851 110.428 11.4351H107.569C107.401 9.9146 106.537 8.75105 104.471 8.75105C102.404 8.75105 101.011 9.77181 101.011 12.7415C101.011 15.7112 102.283 16.7319 104.422 16.7319C106.56 16.7319 107.472 15.497 107.665 13.9533H110.523C110.428 16.6374 108.457 19.061 104.447 19.061C100.076 19.061 98.0332 16.1627 98.0332 12.7434V12.7415Z" fill="#281868"/>
<path d="M117.751 16.9693C119.601 16.9693 120.489 16.1608 120.826 15.0937H123.636C123.373 16.8747 121.931 19.061 117.655 19.061C113.38 19.061 111.409 16.1395 111.409 12.7183C111.409 9.29713 113.378 6.42393 117.655 6.42393C121.932 6.42393 123.685 9.22766 123.685 12.6006C123.685 12.9325 123.661 13.2413 123.613 13.5268H114.293C114.51 16.1627 115.854 16.9712 117.753 16.9712L117.751 16.9693ZM117.702 8.48862C115.829 8.48862 114.627 9.24889 114.34 11.576H120.826C120.707 9.48623 119.649 8.48862 117.704 8.48862H117.702Z" fill="#281868"/>
<path d="M132.431 6.42393C135.625 6.42393 136.85 8.23005 136.85 11.3406V18.6808H133.873V11.6976C133.873 9.51131 132.887 8.84753 131.398 8.84753C129.285 8.84753 128.109 10.177 128.109 13.4786V18.6808H125.131V6.80407H128.109V9.32221C128.854 7.61258 130.198 6.42393 132.433 6.42393H132.431Z" fill="#281868"/>
<path d="M142.53 18.9896C140.105 18.9896 138.544 17.6601 138.544 15.5221C138.544 13.6214 139.457 12.3633 142.363 11.8886L145.27 11.3888C146.398 11.1997 146.854 10.8659 146.854 10.1056C146.854 9.15627 146.326 8.5388 144.476 8.5388C142.626 8.5388 141.834 9.25082 141.738 10.5823H138.807C138.856 8.06411 140.874 6.40079 144.404 6.40079C147.934 6.40079 149.592 7.92132 149.592 10.2716V15.7826C149.592 16.7802 149.641 17.6118 149.737 18.6808H147.095C146.999 17.826 146.95 17.0175 146.95 16.0681C146.421 17.635 145.053 18.9896 142.53 18.9896ZM143.395 16.8747C145.606 16.8747 146.854 15.2596 146.854 12.9788V12.3382C146.23 12.8129 145.533 12.9788 144.788 13.1467L143.467 13.4554C142.074 13.7873 141.498 14.2871 141.498 15.2847C141.498 16.2823 142.29 16.8766 143.395 16.8766V16.8747Z" fill="#281868"/>
<path d="M158.587 6.61304H159.163V9.46307H158.275C155.465 9.46307 154.673 11.1264 154.673 14.071V18.6789H151.695V6.80214H154.601V9.55762C155.225 7.79975 156.451 6.61304 158.587 6.61304Z" fill="#281868"/>
<path d="M160.023 5.14076V2.88504H163.483V5.14076H160.023ZM160.263 18.6808V6.80408H163.241V18.6808H160.263Z" fill="#281868"/>
<path d="M171.316 19.061C166.824 19.061 164.902 16.1395 164.902 12.7183C164.902 9.29713 166.824 6.42393 171.316 6.42393C175.808 6.42393 177.753 9.36852 177.753 12.7183C177.753 16.0681 175.808 19.061 171.316 19.061ZM167.881 12.7434C167.881 15.6417 168.939 16.7339 171.316 16.7339C173.692 16.7339 174.75 15.6417 174.75 12.7434C174.75 9.84514 173.692 8.75298 171.316 8.75298C168.939 8.75298 167.881 9.84514 167.881 12.7434Z" fill="#281868"/>
<path d="M18.311 4.38627L15.7763 6.40464C18.0163 9.14083 17.8505 13.1621 15.2767 15.7073C12.703 18.2525 8.63648 18.4145 5.8715 16.1993L3.8285 18.7078C7.87353 21.9419 13.8172 21.6987 17.5773 17.9823C21.3355 14.2659 21.5814 8.38828 18.311 4.38627ZM5.31538 5.85663C7.85401 3.34621 11.8444 3.15325 14.6074 5.27196L16.6485 2.76539C12.6074 -0.372154 6.73983 -0.100079 3.01481 3.58162C-0.708258 7.26525 -0.983391 13.0676 2.19136 17.0638L4.72804 15.0435C2.58357 12.3112 2.78065 8.36513 5.31733 5.85663H5.31538Z" fill="#281868"/>
</svg>
