<?xml version="1.0" encoding="utf-8" standalone="no"?>
<!DOCTYPE svg PUBLIC "-//W3C//DTD SVG 1.1//EN"
  "http://www.w3.org/Graphics/SVG/1.1/DTD/svg11.dtd">
<svg xmlns:xlink="http://www.w3.org/1999/xlink" width="420.915312pt" height="305.430625pt" viewBox="0 0 420.915312 305.430625" xmlns="http://www.w3.org/2000/svg" version="1.1">
 <metadata>
  <rdf:RDF xmlns:dc="http://purl.org/dc/elements/1.1/" xmlns:cc="http://creativecommons.org/ns#" xmlns:rdf="http://www.w3.org/1999/02/22-rdf-syntax-ns#">
   <cc:Work>
    <dc:type rdf:resource="http://purl.org/dc/dcmitype/StillImage"/>
    <dc:date>2024-08-16T18:49:20.010448</dc:date>
    <dc:format>image/svg+xml</dc:format>
    <dc:creator>
     <cc:Agent>
      <dc:title>Matplotlib v3.7.3, https://matplotlib.org/</dc:title>
     </cc:Agent>
    </dc:creator>
   </cc:Work>
  </rdf:RDF>
 </metadata>
 <defs>
  <style type="text/css">*{stroke-linejoin: round; stroke-linecap: butt}</style>
 </defs>
 <g id="figure_1">
  <g id="patch_1">
   <path d="M -0 305.430625 
L 420.915312 305.430625 
L 420.915312 0 
L -0 0 
z
" style="fill: #ffffff"/>
  </g>
  <g id="axes_1">
   <g id="patch_2">
    <path d="M 35.395313 238.84 
L 413.715312 238.84 
L 413.715312 7.2 
L 35.395313 7.2 
z
" style="fill: #ffffff"/>
   </g>
   <g id="patch_3">
    <path d="M 35.395313 238.84 
L 52.673457 238.84 
L 52.673457 238.84 
L 35.395313 238.84 
z
" clip-path="url(#pf24aca370b)" style="fill: #ff0000; opacity: 0.5; stroke: #000000; stroke-linejoin: miter"/>
   </g>
   <g id="patch_4">
    <path d="M 52.673457 238.84 
L 69.951602 238.84 
L 69.951602 233.388163 
L 52.673457 233.388163 
z
" clip-path="url(#pf24aca370b)" style="fill: #ff0000; opacity: 0.5; stroke: #000000; stroke-linejoin: miter"/>
   </g>
   <g id="patch_5">
    <path d="M 69.951602 238.84 
L 87.229746 238.84 
L 87.229746 170.023742 
L 69.951602 170.023742 
z
" clip-path="url(#pf24aca370b)" style="fill: #ff0000; opacity: 0.5; stroke: #000000; stroke-linejoin: miter"/>
   </g>
   <g id="patch_6">
    <path d="M 87.229746 238.84 
L 104.507891 238.84 
L 104.507891 122.124586 
L 87.229746 122.124586 
z
" clip-path="url(#pf24aca370b)" style="fill: #ff0000; opacity: 0.5; stroke: #000000; stroke-linejoin: miter"/>
   </g>
   <g id="patch_7">
    <path d="M 104.507891 238.84 
L 121.786036 238.84 
L 121.786036 141.300435 
L 104.507891 141.300435 
z
" clip-path="url(#pf24aca370b)" style="fill: #ff0000; opacity: 0.5; stroke: #000000; stroke-linejoin: miter"/>
   </g>
   <g id="patch_8">
    <path d="M 121.786036 238.84 
L 139.06418 238.84 
L 139.06418 174.701826 
L 121.786036 174.701826 
z
" clip-path="url(#pf24aca370b)" style="fill: #ff0000; opacity: 0.5; stroke: #000000; stroke-linejoin: miter"/>
   </g>
   <g id="patch_9">
    <path d="M 139.06418 238.84 
L 156.342325 238.84 
L 156.342325 197.71824 
L 139.06418 197.71824 
z
" clip-path="url(#pf24aca370b)" style="fill: #ff0000; opacity: 0.5; stroke: #000000; stroke-linejoin: miter"/>
   </g>
   <g id="patch_10">
    <path d="M 156.342325 238.84 
L 173.62047 238.84 
L 173.62047 208.393834 
L 156.342325 208.393834 
z
" clip-path="url(#pf24aca370b)" style="fill: #ff0000; opacity: 0.5; stroke: #000000; stroke-linejoin: miter"/>
   </g>
   <g id="patch_11">
    <path d="M 173.62047 238.84 
L 190.898614 238.84 
L 190.898614 216.618186 
L 173.62047 216.618186 
z
" clip-path="url(#pf24aca370b)" style="fill: #ff0000; opacity: 0.5; stroke: #000000; stroke-linejoin: miter"/>
   </g>
   <g id="patch_12">
    <path d="M 190.898614 238.84 
L 208.176759 238.84 
L 208.176759 221.998901 
L 190.898614 221.998901 
z
" clip-path="url(#pf24aca370b)" style="fill: #ff0000; opacity: 0.5; stroke: #000000; stroke-linejoin: miter"/>
   </g>
   <g id="patch_13">
    <path d="M 208.176759 238.84 
L 225.454903 238.84 
L 225.454903 226.019723 
L 208.176759 226.019723 
z
" clip-path="url(#pf24aca370b)" style="fill: #ff0000; opacity: 0.5; stroke: #000000; stroke-linejoin: miter"/>
   </g>
   <g id="patch_14">
    <path d="M 225.454903 238.84 
L 242.733048 238.84 
L 242.733048 228.241659 
L 225.454903 228.241659 
z
" clip-path="url(#pf24aca370b)" style="fill: #ff0000; opacity: 0.5; stroke: #000000; stroke-linejoin: miter"/>
   </g>
   <g id="patch_15">
    <path d="M 242.733048 238.84 
L 260.011193 238.84 
L 260.011193 229.865193 
L 242.733048 229.865193 
z
" clip-path="url(#pf24aca370b)" style="fill: #ff0000; opacity: 0.5; stroke: #000000; stroke-linejoin: miter"/>
   </g>
   <g id="patch_16">
    <path d="M 260.011193 238.84 
L 277.289337 238.84 
L 277.289337 230.571503 
L 260.011193 230.571503 
z
" clip-path="url(#pf24aca370b)" style="fill: #ff0000; opacity: 0.5; stroke: #000000; stroke-linejoin: miter"/>
   </g>
   <g id="patch_17">
    <path d="M 277.289337 238.84 
L 294.567482 238.84 
L 294.567482 230.247778 
L 277.289337 230.247778 
z
" clip-path="url(#pf24aca370b)" style="fill: #ff0000; opacity: 0.5; stroke: #000000; stroke-linejoin: miter"/>
   </g>
   <g id="patch_18">
    <path d="M 294.567482 238.84 
L 311.845627 238.84 
L 311.845627 229.079177 
L 294.567482 229.079177 
z
" clip-path="url(#pf24aca370b)" style="fill: #ff0000; opacity: 0.5; stroke: #000000; stroke-linejoin: miter"/>
   </g>
   <g id="patch_19">
    <path d="M 311.845627 238.84 
L 329.123771 238.84 
L 329.123771 227.321983 
L 311.845627 227.321983 
z
" clip-path="url(#pf24aca370b)" style="fill: #ff0000; opacity: 0.5; stroke: #000000; stroke-linejoin: miter"/>
   </g>
   <g id="patch_20">
    <path d="M 329.123771 238.84 
L 346.401916 238.84 
L 346.401916 229.071819 
L 329.123771 229.071819 
z
" clip-path="url(#pf24aca370b)" style="fill: #ff0000; opacity: 0.5; stroke: #000000; stroke-linejoin: miter"/>
   </g>
   <g id="patch_21">
    <path d="M 346.401916 238.84 
L 363.68006 238.84 
L 363.68006 231.684924 
L 346.401916 231.684924 
z
" clip-path="url(#pf24aca370b)" style="fill: #ff0000; opacity: 0.5; stroke: #000000; stroke-linejoin: miter"/>
   </g>
   <g id="patch_22">
    <path d="M 363.68006 238.84 
L 380.958205 238.84 
L 380.958205 234.611945 
L 363.68006 234.611945 
z
" clip-path="url(#pf24aca370b)" style="fill: #ff0000; opacity: 0.5; stroke: #000000; stroke-linejoin: miter"/>
   </g>
   <g id="patch_23">
    <path d="M 380.958205 238.84 
L 398.23635 238.84 
L 398.23635 237.061961 
L 380.958205 237.061961 
z
" clip-path="url(#pf24aca370b)" style="fill: #ff0000; opacity: 0.5; stroke: #000000; stroke-linejoin: miter"/>
   </g>
   <g id="patch_24">
    <path d="M 398.23635 238.84 
L 415.514494 238.84 
L 415.514494 237.850429 
L 398.23635 237.850429 
z
" clip-path="url(#pf24aca370b)" style="fill: #ff0000; opacity: 0.5; stroke: #000000; stroke-linejoin: miter"/>
   </g>
   <g id="patch_25">
    <path d="M 415.514494 238.84 
L 432.792639 238.84 
L 432.792639 238.403461 
L 415.514494 238.403461 
z
" clip-path="url(#pf24aca370b)" style="fill: #ff0000; opacity: 0.5; stroke: #000000; stroke-linejoin: miter"/>
   </g>
   <g id="patch_26">
    <path d="M 432.792639 238.84 
L 450.070784 238.84 
L 450.070784 238.192548 
L 432.792639 238.192548 
z
" clip-path="url(#pf24aca370b)" style="fill: #ff0000; opacity: 0.5; stroke: #000000; stroke-linejoin: miter"/>
   </g>
   <g id="patch_27">
    <path d="M 450.070784 238.84 
L 467.348928 238.84 
L 467.348928 238.269801 
L 450.070784 238.269801 
z
" clip-path="url(#pf24aca370b)" style="fill: #ff0000; opacity: 0.5; stroke: #000000; stroke-linejoin: miter"/>
   </g>
   <g id="patch_28">
    <path d="M 467.348928 238.84 
L 484.627073 238.84 
L 484.627073 238.615599 
L 467.348928 238.615599 
z
" clip-path="url(#pf24aca370b)" style="fill: #ff0000; opacity: 0.5; stroke: #000000; stroke-linejoin: miter"/>
   </g>
   <g id="patch_29">
    <path d="M 484.627073 238.84 
L 501.905217 238.84 
L 501.905217 238.43289 
L 484.627073 238.43289 
z
" clip-path="url(#pf24aca370b)" style="fill: #ff0000; opacity: 0.5; stroke: #000000; stroke-linejoin: miter"/>
   </g>
   <g id="patch_30">
    <path d="M 501.905217 238.84 
L 519.183362 238.84 
L 519.183362 238.615599 
L 501.905217 238.615599 
z
" clip-path="url(#pf24aca370b)" style="fill: #ff0000; opacity: 0.5; stroke: #000000; stroke-linejoin: miter"/>
   </g>
   <g id="patch_31">
    <path d="M 519.183362 238.84 
L 536.461507 238.84 
L 536.461507 238.711245 
L 519.183362 238.711245 
z
" clip-path="url(#pf24aca370b)" style="fill: #ff0000; opacity: 0.5; stroke: #000000; stroke-linejoin: miter"/>
   </g>
   <g id="patch_32">
    <path d="M 536.461507 238.84 
L 553.739651 238.84 
L 553.739651 238.664649 
L 536.461507 238.664649 
z
" clip-path="url(#pf24aca370b)" style="fill: #ff0000; opacity: 0.5; stroke: #000000; stroke-linejoin: miter"/>
   </g>
   <g id="patch_33">
    <path d="M 553.739651 238.84 
L 571.017796 238.84 
L 571.017796 238.721055 
L 553.739651 238.721055 
z
" clip-path="url(#pf24aca370b)" style="fill: #ff0000; opacity: 0.5; stroke: #000000; stroke-linejoin: miter"/>
   </g>
   <g id="patch_34">
    <path d="M 571.017796 238.84 
L 588.295941 238.84 
L 588.295941 238.691626 
L 571.017796 238.691626 
z
" clip-path="url(#pf24aca370b)" style="fill: #ff0000; opacity: 0.5; stroke: #000000; stroke-linejoin: miter"/>
   </g>
   <g id="patch_35">
    <path d="M 588.295941 238.84 
L 605.574085 238.84 
L 605.574085 238.67078 
L 588.295941 238.67078 
z
" clip-path="url(#pf24aca370b)" style="fill: #ff0000; opacity: 0.5; stroke: #000000; stroke-linejoin: miter"/>
   </g>
   <g id="patch_36">
    <path d="M 605.574085 238.84 
L 622.85223 238.84 
L 622.85223 238.721055 
L 605.574085 238.721055 
z
" clip-path="url(#pf24aca370b)" style="fill: #ff0000; opacity: 0.5; stroke: #000000; stroke-linejoin: miter"/>
   </g>
   <g id="patch_37">
    <path d="M 622.85223 238.84 
L 640.130374 238.84 
L 640.130374 238.524858 
L 622.85223 238.524858 
z
" clip-path="url(#pf24aca370b)" style="fill: #ff0000; opacity: 0.5; stroke: #000000; stroke-linejoin: miter"/>
   </g>
   <g id="patch_38">
    <path d="M 640.130375 238.84 
L 657.408519 238.84 
L 657.408519 238.732091 
L 640.130375 238.732091 
z
" clip-path="url(#pf24aca370b)" style="fill: #ff0000; opacity: 0.5; stroke: #000000; stroke-linejoin: miter"/>
   </g>
   <g id="patch_39">
    <path d="M 657.408519 238.84 
L 674.686664 238.84 
L 674.686664 238.73577 
L 657.408519 238.73577 
z
" clip-path="url(#pf24aca370b)" style="fill: #ff0000; opacity: 0.5; stroke: #000000; stroke-linejoin: miter"/>
   </g>
   <g id="patch_40">
    <path d="M 674.686664 238.84 
L 691.964808 238.84 
L 691.964808 238.719829 
L 674.686664 238.719829 
z
" clip-path="url(#pf24aca370b)" style="fill: #ff0000; opacity: 0.5; stroke: #000000; stroke-linejoin: miter"/>
   </g>
   <g id="patch_41">
    <path d="M 691.964808 238.84 
L 709.242953 238.84 
L 709.242953 238.711245 
L 691.964808 238.711245 
z
" clip-path="url(#pf24aca370b)" style="fill: #ff0000; opacity: 0.5; stroke: #000000; stroke-linejoin: miter"/>
   </g>
   <g id="patch_42">
    <path d="M 709.242953 238.84 
L 726.521098 238.84 
L 726.521098 238.778688 
L 709.242953 238.778688 
z
" clip-path="url(#pf24aca370b)" style="fill: #ff0000; opacity: 0.5; stroke: #000000; stroke-linejoin: miter"/>
   </g>
   <g id="patch_43">
    <path d="M 35.395313 238.84 
L 52.673457 238.84 
L 52.673457 195.73037 
L 35.395313 195.73037 
z
" clip-path="url(#pf24aca370b)" style="fill: #0000ff; opacity: 0.5; stroke: #000000; stroke-linejoin: miter"/>
   </g>
   <g id="patch_44">
    <path d="M 52.673457 238.84 
L 69.951602 238.84 
L 69.951602 18.230476 
L 52.673457 18.230476 
z
" clip-path="url(#pf24aca370b)" style="fill: #0000ff; opacity: 0.5; stroke: #000000; stroke-linejoin: miter"/>
   </g>
   <g id="patch_45">
    <path d="M 69.951602 238.84 
L 87.229746 238.84 
L 87.229746 75.686861 
L 69.951602 75.686861 
z
" clip-path="url(#pf24aca370b)" style="fill: #0000ff; opacity: 0.5; stroke: #000000; stroke-linejoin: miter"/>
   </g>
   <g id="patch_46">
    <path d="M 87.229746 238.84 
L 104.507891 238.84 
L 104.507891 192.640052 
L 87.229746 192.640052 
z
" clip-path="url(#pf24aca370b)" style="fill: #0000ff; opacity: 0.5; stroke: #000000; stroke-linejoin: miter"/>
   </g>
   <g id="patch_47">
    <path d="M 104.507891 238.84 
L 121.786036 238.84 
L 121.786036 209.842951 
L 104.507891 209.842951 
z
" clip-path="url(#pf24aca370b)" style="fill: #0000ff; opacity: 0.5; stroke: #000000; stroke-linejoin: miter"/>
   </g>
   <g id="patch_48">
    <path d="M 121.786036 238.84 
L 139.06418 238.84 
L 139.06418 226.431006 
L 121.786036 226.431006 
z
" clip-path="url(#pf24aca370b)" style="fill: #0000ff; opacity: 0.5; stroke: #000000; stroke-linejoin: miter"/>
   </g>
   <g id="patch_49">
    <path d="M 139.06418 238.84 
L 156.342325 238.84 
L 156.342325 224.952159 
L 139.06418 224.952159 
z
" clip-path="url(#pf24aca370b)" style="fill: #0000ff; opacity: 0.5; stroke: #000000; stroke-linejoin: miter"/>
   </g>
   <g id="patch_50">
    <path d="M 156.342325 238.84 
L 173.62047 238.84 
L 173.62047 220.307526 
L 156.342325 220.307526 
z
" clip-path="url(#pf24aca370b)" style="fill: #0000ff; opacity: 0.5; stroke: #000000; stroke-linejoin: miter"/>
   </g>
   <g id="patch_51">
    <path d="M 173.62047 238.84 
L 190.898614 238.84 
L 190.898614 229.555728 
L 173.62047 229.555728 
z
" clip-path="url(#pf24aca370b)" style="fill: #0000ff; opacity: 0.5; stroke: #000000; stroke-linejoin: miter"/>
   </g>
   <g id="patch_52">
    <path d="M 190.898614 238.84 
L 208.176759 238.84 
L 208.176759 236.34788 
L 190.898614 236.34788 
z
" clip-path="url(#pf24aca370b)" style="fill: #0000ff; opacity: 0.5; stroke: #000000; stroke-linejoin: miter"/>
   </g>
   <g id="patch_53">
    <path d="M 208.176759 238.84 
L 225.454903 238.84 
L 225.454903 238.029825 
L 208.176759 238.029825 
z
" clip-path="url(#pf24aca370b)" style="fill: #0000ff; opacity: 0.5; stroke: #000000; stroke-linejoin: miter"/>
   </g>
   <g id="patch_54">
    <path d="M 225.454903 238.84 
L 242.733048 238.84 
L 242.733048 238.320045 
L 225.454903 238.320045 
z
" clip-path="url(#pf24aca370b)" style="fill: #0000ff; opacity: 0.5; stroke: #000000; stroke-linejoin: miter"/>
   </g>
   <g id="patch_55">
    <path d="M 242.733048 238.84 
L 260.011193 238.84 
L 260.011193 238.634682 
L 242.733048 238.634682 
z
" clip-path="url(#pf24aca370b)" style="fill: #0000ff; opacity: 0.5; stroke: #000000; stroke-linejoin: miter"/>
   </g>
   <g id="patch_56">
    <path d="M 260.011193 238.84 
L 277.289337 238.84 
L 277.289337 238.48208 
L 260.011193 238.48208 
z
" clip-path="url(#pf24aca370b)" style="fill: #0000ff; opacity: 0.5; stroke: #000000; stroke-linejoin: miter"/>
   </g>
   <g id="patch_57">
    <path d="M 277.289337 238.84 
L 294.567482 238.84 
L 294.567482 238.646335 
L 277.289337 238.646335 
z
" clip-path="url(#pf24aca370b)" style="fill: #0000ff; opacity: 0.5; stroke: #000000; stroke-linejoin: miter"/>
   </g>
   <g id="patch_58">
    <path d="M 294.567482 238.84 
L 311.845627 238.84 
L 311.845627 238.638011 
L 294.567482 238.638011 
z
" clip-path="url(#pf24aca370b)" style="fill: #0000ff; opacity: 0.5; stroke: #000000; stroke-linejoin: miter"/>
   </g>
   <g id="patch_59">
    <path d="M 311.845627 238.84 
L 329.123771 238.84 
L 329.123771 238.552554 
L 311.845627 238.552554 
z
" clip-path="url(#pf24aca370b)" style="fill: #0000ff; opacity: 0.5; stroke: #000000; stroke-linejoin: miter"/>
   </g>
   <g id="patch_60">
    <path d="M 329.123771 238.84 
L 346.401916 238.84 
L 346.401916 238.648 
L 329.123771 238.648 
z
" clip-path="url(#pf24aca370b)" style="fill: #0000ff; opacity: 0.5; stroke: #000000; stroke-linejoin: miter"/>
   </g>
   <g id="patch_61">
    <path d="M 346.401916 238.84 
L 363.68006 238.84 
L 363.68006 238.702381 
L 346.401916 238.702381 
z
" clip-path="url(#pf24aca370b)" style="fill: #0000ff; opacity: 0.5; stroke: #000000; stroke-linejoin: miter"/>
   </g>
   <g id="patch_62">
    <path d="M 363.68006 238.84 
L 380.958205 238.84 
L 380.958205 238.616924 
L 363.68006 238.616924 
z
" clip-path="url(#pf24aca370b)" style="fill: #0000ff; opacity: 0.5; stroke: #000000; stroke-linejoin: miter"/>
   </g>
   <g id="patch_63">
    <path d="M 380.958205 238.84 
L 398.23635 238.84 
L 398.23635 238.725688 
L 380.958205 238.725688 
z
" clip-path="url(#pf24aca370b)" style="fill: #0000ff; opacity: 0.5; stroke: #000000; stroke-linejoin: miter"/>
   </g>
   <g id="patch_64">
    <path d="M 398.23635 238.84 
L 415.514494 238.84 
L 415.514494 238.825017 
L 398.23635 238.825017 
z
" clip-path="url(#pf24aca370b)" style="fill: #0000ff; opacity: 0.5; stroke: #000000; stroke-linejoin: miter"/>
   </g>
   <g id="patch_65">
    <path d="M 415.514494 238.84 
L 432.792639 238.84 
L 432.792639 238.831676 
L 415.514494 238.831676 
z
" clip-path="url(#pf24aca370b)" style="fill: #0000ff; opacity: 0.5; stroke: #000000; stroke-linejoin: miter"/>
   </g>
   <g id="patch_66">
    <path d="M 432.792639 238.84 
L 450.070784 238.84 
L 450.070784 238.835561 
L 432.792639 238.835561 
z
" clip-path="url(#pf24aca370b)" style="fill: #0000ff; opacity: 0.5; stroke: #000000; stroke-linejoin: miter"/>
   </g>
   <g id="patch_67">
    <path d="M 450.070784 238.84 
L 467.348928 238.84 
L 467.348928 238.836116 
L 450.070784 238.836116 
z
" clip-path="url(#pf24aca370b)" style="fill: #0000ff; opacity: 0.5; stroke: #000000; stroke-linejoin: miter"/>
   </g>
   <g id="patch_68">
    <path d="M 467.348928 238.84 
L 484.627073 238.84 
L 484.627073 238.83889 
L 467.348928 238.83889 
z
" clip-path="url(#pf24aca370b)" style="fill: #0000ff; opacity: 0.5; stroke: #000000; stroke-linejoin: miter"/>
   </g>
   <g id="patch_69">
    <path d="M 484.627073 238.84 
L 501.905217 238.84 
L 501.905217 238.84 
L 484.627073 238.84 
z
" clip-path="url(#pf24aca370b)" style="fill: #0000ff; opacity: 0.5; stroke: #000000; stroke-linejoin: miter"/>
   </g>
   <g id="patch_70">
    <path d="M 501.905217 238.84 
L 519.183362 238.84 
L 519.183362 238.84 
L 501.905217 238.84 
z
" clip-path="url(#pf24aca370b)" style="fill: #0000ff; opacity: 0.5; stroke: #000000; stroke-linejoin: miter"/>
   </g>
   <g id="patch_71">
    <path d="M 519.183362 238.84 
L 536.461507 238.84 
L 536.461507 238.84 
L 519.183362 238.84 
z
" clip-path="url(#pf24aca370b)" style="fill: #0000ff; opacity: 0.5; stroke: #000000; stroke-linejoin: miter"/>
   </g>
   <g id="patch_72">
    <path d="M 536.461507 238.84 
L 553.739651 238.84 
L 553.739651 238.84 
L 536.461507 238.84 
z
" clip-path="url(#pf24aca370b)" style="fill: #0000ff; opacity: 0.5; stroke: #000000; stroke-linejoin: miter"/>
   </g>
   <g id="patch_73">
    <path d="M 553.739651 238.84 
L 571.017796 238.84 
L 571.017796 238.84 
L 553.739651 238.84 
z
" clip-path="url(#pf24aca370b)" style="fill: #0000ff; opacity: 0.5; stroke: #000000; stroke-linejoin: miter"/>
   </g>
   <g id="patch_74">
    <path d="M 571.017796 238.84 
L 588.295941 238.84 
L 588.295941 238.84 
L 571.017796 238.84 
z
" clip-path="url(#pf24aca370b)" style="fill: #0000ff; opacity: 0.5; stroke: #000000; stroke-linejoin: miter"/>
   </g>
   <g id="patch_75">
    <path d="M 588.295941 238.84 
L 605.574085 238.84 
L 605.574085 238.84 
L 588.295941 238.84 
z
" clip-path="url(#pf24aca370b)" style="fill: #0000ff; opacity: 0.5; stroke: #000000; stroke-linejoin: miter"/>
   </g>
   <g id="patch_76">
    <path d="M 605.574085 238.84 
L 622.85223 238.84 
L 622.85223 238.84 
L 605.574085 238.84 
z
" clip-path="url(#pf24aca370b)" style="fill: #0000ff; opacity: 0.5; stroke: #000000; stroke-linejoin: miter"/>
   </g>
   <g id="patch_77">
    <path d="M 622.85223 238.84 
L 640.130374 238.84 
L 640.130374 238.84 
L 622.85223 238.84 
z
" clip-path="url(#pf24aca370b)" style="fill: #0000ff; opacity: 0.5; stroke: #000000; stroke-linejoin: miter"/>
   </g>
   <g id="patch_78">
    <path d="M 640.130375 238.84 
L 657.408519 238.84 
L 657.408519 238.84 
L 640.130375 238.84 
z
" clip-path="url(#pf24aca370b)" style="fill: #0000ff; opacity: 0.5; stroke: #000000; stroke-linejoin: miter"/>
   </g>
   <g id="patch_79">
    <path d="M 657.408519 238.84 
L 674.686664 238.84 
L 674.686664 238.84 
L 657.408519 238.84 
z
" clip-path="url(#pf24aca370b)" style="fill: #0000ff; opacity: 0.5; stroke: #000000; stroke-linejoin: miter"/>
   </g>
   <g id="patch_80">
    <path d="M 674.686664 238.84 
L 691.964808 238.84 
L 691.964808 238.84 
L 674.686664 238.84 
z
" clip-path="url(#pf24aca370b)" style="fill: #0000ff; opacity: 0.5; stroke: #000000; stroke-linejoin: miter"/>
   </g>
   <g id="patch_81">
    <path d="M 691.964808 238.84 
L 709.242953 238.84 
L 709.242953 238.84 
L 691.964808 238.84 
z
" clip-path="url(#pf24aca370b)" style="fill: #0000ff; opacity: 0.5; stroke: #000000; stroke-linejoin: miter"/>
   </g>
   <g id="patch_82">
    <path d="M 709.242953 238.84 
L 726.521098 238.84 
L 726.521098 238.84 
L 709.242953 238.84 
z
" clip-path="url(#pf24aca370b)" style="fill: #0000ff; opacity: 0.5; stroke: #000000; stroke-linejoin: miter"/>
   </g>
   <g id="patch_83">
    <path d="M 35.395313 238.84 
L 52.673457 238.84 
L 52.673457 207.227423 
L 35.395313 207.227423 
z
" clip-path="url(#pf24aca370b)" style="fill: #008000; opacity: 0.5; stroke: #000000; stroke-linejoin: miter"/>
   </g>
   <g id="patch_84">
    <path d="M 52.673457 238.84 
L 69.951602 238.84 
L 69.951602 58.961101 
L 52.673457 58.961101 
z
" clip-path="url(#pf24aca370b)" style="fill: #008000; opacity: 0.5; stroke: #000000; stroke-linejoin: miter"/>
   </g>
   <g id="patch_85">
    <path d="M 69.951602 238.84 
L 87.229746 238.84 
L 87.229746 99.107961 
L 69.951602 99.107961 
z
" clip-path="url(#pf24aca370b)" style="fill: #008000; opacity: 0.5; stroke: #000000; stroke-linejoin: miter"/>
   </g>
   <g id="patch_86">
    <path d="M 87.229746 238.84 
L 104.507891 238.84 
L 104.507891 141.364323 
L 87.229746 141.364323 
z
" clip-path="url(#pf24aca370b)" style="fill: #008000; opacity: 0.5; stroke: #000000; stroke-linejoin: miter"/>
   </g>
   <g id="patch_87">
    <path d="M 104.507891 238.84 
L 121.786036 238.84 
L 121.786036 191.192213 
L 104.507891 191.192213 
z
" clip-path="url(#pf24aca370b)" style="fill: #008000; opacity: 0.5; stroke: #000000; stroke-linejoin: miter"/>
   </g>
   <g id="patch_88">
    <path d="M 121.786036 238.84 
L 139.06418 238.84 
L 139.06418 208.80848 
L 121.786036 208.80848 
z
" clip-path="url(#pf24aca370b)" style="fill: #008000; opacity: 0.5; stroke: #000000; stroke-linejoin: miter"/>
   </g>
   <g id="patch_89">
    <path d="M 139.06418 238.84 
L 156.342325 238.84 
L 156.342325 222.597263 
L 139.06418 222.597263 
z
" clip-path="url(#pf24aca370b)" style="fill: #008000; opacity: 0.5; stroke: #000000; stroke-linejoin: miter"/>
   </g>
   <g id="patch_90">
    <path d="M 156.342325 238.84 
L 173.62047 238.84 
L 173.62047 231.719896 
L 156.342325 231.719896 
z
" clip-path="url(#pf24aca370b)" style="fill: #008000; opacity: 0.5; stroke: #000000; stroke-linejoin: miter"/>
   </g>
   <g id="patch_91">
    <path d="M 173.62047 238.84 
L 190.898614 238.84 
L 190.898614 234.060459 
L 173.62047 234.060459 
z
" clip-path="url(#pf24aca370b)" style="fill: #008000; opacity: 0.5; stroke: #000000; stroke-linejoin: miter"/>
   </g>
   <g id="patch_92">
    <path d="M 190.898614 238.84 
L 208.176759 238.84 
L 208.176759 235.316319 
L 190.898614 235.316319 
z
" clip-path="url(#pf24aca370b)" style="fill: #008000; opacity: 0.5; stroke: #000000; stroke-linejoin: miter"/>
   </g>
   <g id="patch_93">
    <path d="M 208.176759 238.84 
L 225.454903 238.84 
L 225.454903 236.961559 
L 208.176759 236.961559 
z
" clip-path="url(#pf24aca370b)" style="fill: #008000; opacity: 0.5; stroke: #000000; stroke-linejoin: miter"/>
   </g>
   <g id="patch_94">
    <path d="M 225.454903 238.84 
L 242.733048 238.84 
L 242.733048 237.515678 
L 225.454903 237.515678 
z
" clip-path="url(#pf24aca370b)" style="fill: #008000; opacity: 0.5; stroke: #000000; stroke-linejoin: miter"/>
   </g>
   <g id="patch_95">
    <path d="M 242.733048 238.84 
L 260.011193 238.84 
L 260.011193 238.538337 
L 242.733048 238.538337 
z
" clip-path="url(#pf24aca370b)" style="fill: #008000; opacity: 0.5; stroke: #000000; stroke-linejoin: miter"/>
   </g>
   <g id="patch_96">
    <path d="M 260.011193 238.84 
L 277.289337 238.84 
L 277.289337 238.698796 
L 260.011193 238.698796 
z
" clip-path="url(#pf24aca370b)" style="fill: #008000; opacity: 0.5; stroke: #000000; stroke-linejoin: miter"/>
   </g>
   <g id="patch_97">
    <path d="M 277.289337 238.84 
L 294.567482 238.84 
L 294.567482 238.737306 
L 277.289337 238.737306 
z
" clip-path="url(#pf24aca370b)" style="fill: #008000; opacity: 0.5; stroke: #000000; stroke-linejoin: miter"/>
   </g>
   <g id="patch_98">
    <path d="M 294.567482 238.84 
L 311.845627 238.84 
L 311.845627 238.748003 
L 294.567482 238.748003 
z
" clip-path="url(#pf24aca370b)" style="fill: #008000; opacity: 0.5; stroke: #000000; stroke-linejoin: miter"/>
   </g>
   <g id="patch_99">
    <path d="M 311.845627 238.84 
L 329.123771 238.84 
L 329.123771 238.790793 
L 311.845627 238.790793 
z
" clip-path="url(#pf24aca370b)" style="fill: #008000; opacity: 0.5; stroke: #000000; stroke-linejoin: miter"/>
   </g>
   <g id="patch_100">
    <path d="M 329.123771 238.84 
L 346.401916 238.84 
L 346.401916 238.822884 
L 329.123771 238.822884 
z
" clip-path="url(#pf24aca370b)" style="fill: #008000; opacity: 0.5; stroke: #000000; stroke-linejoin: miter"/>
   </g>
   <g id="patch_101">
    <path d="M 346.401916 238.84 
L 363.68006 238.84 
L 363.68006 238.84 
L 346.401916 238.84 
z
" clip-path="url(#pf24aca370b)" style="fill: #008000; opacity: 0.5; stroke: #000000; stroke-linejoin: miter"/>
   </g>
   <g id="patch_102">
    <path d="M 363.68006 238.84 
L 380.958205 238.84 
L 380.958205 238.84 
L 363.68006 238.84 
z
" clip-path="url(#pf24aca370b)" style="fill: #008000; opacity: 0.5; stroke: #000000; stroke-linejoin: miter"/>
   </g>
   <g id="patch_103">
    <path d="M 380.958205 238.84 
L 398.23635 238.84 
L 398.23635 238.84 
L 380.958205 238.84 
z
" clip-path="url(#pf24aca370b)" style="fill: #008000; opacity: 0.5; stroke: #000000; stroke-linejoin: miter"/>
   </g>
   <g id="patch_104">
    <path d="M 398.23635 238.84 
L 415.514494 238.84 
L 415.514494 238.84 
L 398.23635 238.84 
z
" clip-path="url(#pf24aca370b)" style="fill: #008000; opacity: 0.5; stroke: #000000; stroke-linejoin: miter"/>
   </g>
   <g id="patch_105">
    <path d="M 415.514494 238.84 
L 432.792639 238.84 
L 432.792639 238.84 
L 415.514494 238.84 
z
" clip-path="url(#pf24aca370b)" style="fill: #008000; opacity: 0.5; stroke: #000000; stroke-linejoin: miter"/>
   </g>
   <g id="patch_106">
    <path d="M 432.792639 238.84 
L 450.070784 238.84 
L 450.070784 238.84 
L 432.792639 238.84 
z
" clip-path="url(#pf24aca370b)" style="fill: #008000; opacity: 0.5; stroke: #000000; stroke-linejoin: miter"/>
   </g>
   <g id="patch_107">
    <path d="M 450.070784 238.84 
L 467.348928 238.84 
L 467.348928 238.84 
L 450.070784 238.84 
z
" clip-path="url(#pf24aca370b)" style="fill: #008000; opacity: 0.5; stroke: #000000; stroke-linejoin: miter"/>
   </g>
   <g id="patch_108">
    <path d="M 467.348928 238.84 
L 484.627073 238.84 
L 484.627073 238.84 
L 467.348928 238.84 
z
" clip-path="url(#pf24aca370b)" style="fill: #008000; opacity: 0.5; stroke: #000000; stroke-linejoin: miter"/>
   </g>
   <g id="patch_109">
    <path d="M 484.627073 238.84 
L 501.905217 238.84 
L 501.905217 238.84 
L 484.627073 238.84 
z
" clip-path="url(#pf24aca370b)" style="fill: #008000; opacity: 0.5; stroke: #000000; stroke-linejoin: miter"/>
   </g>
   <g id="patch_110">
    <path d="M 501.905217 238.84 
L 519.183362 238.84 
L 519.183362 238.84 
L 501.905217 238.84 
z
" clip-path="url(#pf24aca370b)" style="fill: #008000; opacity: 0.5; stroke: #000000; stroke-linejoin: miter"/>
   </g>
   <g id="patch_111">
    <path d="M 519.183362 238.84 
L 536.461507 238.84 
L 536.461507 238.84 
L 519.183362 238.84 
z
" clip-path="url(#pf24aca370b)" style="fill: #008000; opacity: 0.5; stroke: #000000; stroke-linejoin: miter"/>
   </g>
   <g id="patch_112">
    <path d="M 536.461507 238.84 
L 553.739651 238.84 
L 553.739651 238.84 
L 536.461507 238.84 
z
" clip-path="url(#pf24aca370b)" style="fill: #008000; opacity: 0.5; stroke: #000000; stroke-linejoin: miter"/>
   </g>
   <g id="patch_113">
    <path d="M 553.739651 238.84 
L 571.017796 238.84 
L 571.017796 238.84 
L 553.739651 238.84 
z
" clip-path="url(#pf24aca370b)" style="fill: #008000; opacity: 0.5; stroke: #000000; stroke-linejoin: miter"/>
   </g>
   <g id="patch_114">
    <path d="M 571.017796 238.84 
L 588.295941 238.84 
L 588.295941 238.84 
L 571.017796 238.84 
z
" clip-path="url(#pf24aca370b)" style="fill: #008000; opacity: 0.5; stroke: #000000; stroke-linejoin: miter"/>
   </g>
   <g id="patch_115">
    <path d="M 588.295941 238.84 
L 605.574085 238.84 
L 605.574085 238.84 
L 588.295941 238.84 
z
" clip-path="url(#pf24aca370b)" style="fill: #008000; opacity: 0.5; stroke: #000000; stroke-linejoin: miter"/>
   </g>
   <g id="patch_116">
    <path d="M 605.574085 238.84 
L 622.85223 238.84 
L 622.85223 238.84 
L 605.574085 238.84 
z
" clip-path="url(#pf24aca370b)" style="fill: #008000; opacity: 0.5; stroke: #000000; stroke-linejoin: miter"/>
   </g>
   <g id="patch_117">
    <path d="M 622.85223 238.84 
L 640.130374 238.84 
L 640.130374 238.84 
L 622.85223 238.84 
z
" clip-path="url(#pf24aca370b)" style="fill: #008000; opacity: 0.5; stroke: #000000; stroke-linejoin: miter"/>
   </g>
   <g id="patch_118">
    <path d="M 640.130375 238.84 
L 657.408519 238.84 
L 657.408519 238.84 
L 640.130375 238.84 
z
" clip-path="url(#pf24aca370b)" style="fill: #008000; opacity: 0.5; stroke: #000000; stroke-linejoin: miter"/>
   </g>
   <g id="patch_119">
    <path d="M 657.408519 238.84 
L 674.686664 238.84 
L 674.686664 238.84 
L 657.408519 238.84 
z
" clip-path="url(#pf24aca370b)" style="fill: #008000; opacity: 0.5; stroke: #000000; stroke-linejoin: miter"/>
   </g>
   <g id="patch_120">
    <path d="M 674.686664 238.84 
L 691.964808 238.84 
L 691.964808 238.84 
L 674.686664 238.84 
z
" clip-path="url(#pf24aca370b)" style="fill: #008000; opacity: 0.5; stroke: #000000; stroke-linejoin: miter"/>
   </g>
   <g id="patch_121">
    <path d="M 691.964808 238.84 
L 709.242953 238.84 
L 709.242953 238.84 
L 691.964808 238.84 
z
" clip-path="url(#pf24aca370b)" style="fill: #008000; opacity: 0.5; stroke: #000000; stroke-linejoin: miter"/>
   </g>
   <g id="patch_122">
    <path d="M 709.242953 238.84 
L 726.521098 238.84 
L 726.521098 238.84 
L 709.242953 238.84 
z
" clip-path="url(#pf24aca370b)" style="fill: #008000; opacity: 0.5; stroke: #000000; stroke-linejoin: miter"/>
   </g>
   <g id="matplotlib.axis_1">
    <g id="xtick_1">
     <g id="line2d_1">
      <defs>
       <path id="m9f6c984709" d="M 0 0 
L 0 3.5 
" style="stroke: #000000; stroke-width: 0.8"/>
      </defs>
      <g>
       <use xlink:href="#m9f6c984709" x="35.395313" y="238.84" style="stroke: #000000; stroke-width: 0.8"/>
      </g>
     </g>
     <g id="text_1">
      <!-- 0 -->
      <g transform="translate(27.442188 264.836094) scale(0.25 -0.25)">
       <defs>
        <path id="DejaVuSans-30" d="M 2034 4250 
Q 1547 4250 1301 3770 
Q 1056 3291 1056 2328 
Q 1056 1369 1301 889 
Q 1547 409 2034 409 
Q 2525 409 2770 889 
Q 3016 1369 3016 2328 
Q 3016 3291 2770 3770 
Q 2525 4250 2034 4250 
z
M 2034 4750 
Q 2819 4750 3233 4129 
Q 3647 3509 3647 2328 
Q 3647 1150 3233 529 
Q 2819 -91 2034 -91 
Q 1250 -91 836 529 
Q 422 1150 422 2328 
Q 422 3509 836 4129 
Q 1250 4750 2034 4750 
z
" transform="scale(0.015625)"/>
       </defs>
       <use xlink:href="#DejaVuSans-30"/>
      </g>
     </g>
    </g>
    <g id="xtick_2">
     <g id="line2d_2">
      <g>
       <use xlink:href="#m9f6c984709" x="143.486741" y="238.84" style="stroke: #000000; stroke-width: 0.8"/>
      </g>
     </g>
     <g id="text_2">
      <!-- 200 -->
      <g transform="translate(119.627366 264.836094) scale(0.25 -0.25)">
       <defs>
        <path id="DejaVuSans-32" d="M 1228 531 
L 3431 531 
L 3431 0 
L 469 0 
L 469 531 
Q 828 903 1448 1529 
Q 2069 2156 2228 2338 
Q 2531 2678 2651 2914 
Q 2772 3150 2772 3378 
Q 2772 3750 2511 3984 
Q 2250 4219 1831 4219 
Q 1534 4219 1204 4116 
Q 875 4013 500 3803 
L 500 4441 
Q 881 4594 1212 4672 
Q 1544 4750 1819 4750 
Q 2544 4750 2975 4387 
Q 3406 4025 3406 3419 
Q 3406 3131 3298 2873 
Q 3191 2616 2906 2266 
Q 2828 2175 2409 1742 
Q 1991 1309 1228 531 
z
" transform="scale(0.015625)"/>
       </defs>
       <use xlink:href="#DejaVuSans-32"/>
       <use xlink:href="#DejaVuSans-30" x="63.623047"/>
       <use xlink:href="#DejaVuSans-30" x="127.246094"/>
      </g>
     </g>
    </g>
    <g id="xtick_3">
     <g id="line2d_3">
      <g>
       <use xlink:href="#m9f6c984709" x="251.57817" y="238.84" style="stroke: #000000; stroke-width: 0.8"/>
      </g>
     </g>
     <g id="text_3">
      <!-- 400 -->
      <g transform="translate(227.718795 264.836094) scale(0.25 -0.25)">
       <defs>
        <path id="DejaVuSans-34" d="M 2419 4116 
L 825 1625 
L 2419 1625 
L 2419 4116 
z
M 2253 4666 
L 3047 4666 
L 3047 1625 
L 3713 1625 
L 3713 1100 
L 3047 1100 
L 3047 0 
L 2419 0 
L 2419 1100 
L 313 1100 
L 313 1709 
L 2253 4666 
z
" transform="scale(0.015625)"/>
       </defs>
       <use xlink:href="#DejaVuSans-34"/>
       <use xlink:href="#DejaVuSans-30" x="63.623047"/>
       <use xlink:href="#DejaVuSans-30" x="127.246094"/>
      </g>
     </g>
    </g>
    <g id="xtick_4">
     <g id="line2d_4">
      <g>
       <use xlink:href="#m9f6c984709" x="359.669598" y="238.84" style="stroke: #000000; stroke-width: 0.8"/>
      </g>
     </g>
     <g id="text_4">
      <!-- 600 -->
      <g transform="translate(335.810223 264.836094) scale(0.25 -0.25)">
       <defs>
        <path id="DejaVuSans-36" d="M 2113 2584 
Q 1688 2584 1439 2293 
Q 1191 2003 1191 1497 
Q 1191 994 1439 701 
Q 1688 409 2113 409 
Q 2538 409 2786 701 
Q 3034 994 3034 1497 
Q 3034 2003 2786 2293 
Q 2538 2584 2113 2584 
z
M 3366 4563 
L 3366 3988 
Q 3128 4100 2886 4159 
Q 2644 4219 2406 4219 
Q 1781 4219 1451 3797 
Q 1122 3375 1075 2522 
Q 1259 2794 1537 2939 
Q 1816 3084 2150 3084 
Q 2853 3084 3261 2657 
Q 3669 2231 3669 1497 
Q 3669 778 3244 343 
Q 2819 -91 2113 -91 
Q 1303 -91 875 529 
Q 447 1150 447 2328 
Q 447 3434 972 4092 
Q 1497 4750 2381 4750 
Q 2619 4750 2861 4703 
Q 3103 4656 3366 4563 
z
" transform="scale(0.015625)"/>
       </defs>
       <use xlink:href="#DejaVuSans-36"/>
       <use xlink:href="#DejaVuSans-30" x="63.623047"/>
       <use xlink:href="#DejaVuSans-30" x="127.246094"/>
      </g>
     </g>
    </g>
    <g id="text_5">
     <!-- 2D BBox Height [Px] -->
     <g transform="translate(97.238906 293.031406) scale(0.25 -0.25)">
      <defs>
       <path id="DejaVuSans-44" d="M 1259 4147 
L 1259 519 
L 2022 519 
Q 2988 519 3436 956 
Q 3884 1394 3884 2338 
Q 3884 3275 3436 3711 
Q 2988 4147 2022 4147 
L 1259 4147 
z
M 628 4666 
L 1925 4666 
Q 3281 4666 3915 4102 
Q 4550 3538 4550 2338 
Q 4550 1131 3912 565 
Q 3275 0 1925 0 
L 628 0 
L 628 4666 
z
" transform="scale(0.015625)"/>
       <path id="DejaVuSans-20" transform="scale(0.015625)"/>
       <path id="DejaVuSans-42" d="M 1259 2228 
L 1259 519 
L 2272 519 
Q 2781 519 3026 730 
Q 3272 941 3272 1375 
Q 3272 1813 3026 2020 
Q 2781 2228 2272 2228 
L 1259 2228 
z
M 1259 4147 
L 1259 2741 
L 2194 2741 
Q 2656 2741 2882 2914 
Q 3109 3088 3109 3444 
Q 3109 3797 2882 3972 
Q 2656 4147 2194 4147 
L 1259 4147 
z
M 628 4666 
L 2241 4666 
Q 2963 4666 3353 4366 
Q 3744 4066 3744 3513 
Q 3744 3084 3544 2831 
Q 3344 2578 2956 2516 
Q 3422 2416 3680 2098 
Q 3938 1781 3938 1306 
Q 3938 681 3513 340 
Q 3088 0 2303 0 
L 628 0 
L 628 4666 
z
" transform="scale(0.015625)"/>
       <path id="DejaVuSans-6f" d="M 1959 3097 
Q 1497 3097 1228 2736 
Q 959 2375 959 1747 
Q 959 1119 1226 758 
Q 1494 397 1959 397 
Q 2419 397 2687 759 
Q 2956 1122 2956 1747 
Q 2956 2369 2687 2733 
Q 2419 3097 1959 3097 
z
M 1959 3584 
Q 2709 3584 3137 3096 
Q 3566 2609 3566 1747 
Q 3566 888 3137 398 
Q 2709 -91 1959 -91 
Q 1206 -91 779 398 
Q 353 888 353 1747 
Q 353 2609 779 3096 
Q 1206 3584 1959 3584 
z
" transform="scale(0.015625)"/>
       <path id="DejaVuSans-78" d="M 3513 3500 
L 2247 1797 
L 3578 0 
L 2900 0 
L 1881 1375 
L 863 0 
L 184 0 
L 1544 1831 
L 300 3500 
L 978 3500 
L 1906 2253 
L 2834 3500 
L 3513 3500 
z
" transform="scale(0.015625)"/>
       <path id="DejaVuSans-48" d="M 628 4666 
L 1259 4666 
L 1259 2753 
L 3553 2753 
L 3553 4666 
L 4184 4666 
L 4184 0 
L 3553 0 
L 3553 2222 
L 1259 2222 
L 1259 0 
L 628 0 
L 628 4666 
z
" transform="scale(0.015625)"/>
       <path id="DejaVuSans-65" d="M 3597 1894 
L 3597 1613 
L 953 1613 
Q 991 1019 1311 708 
Q 1631 397 2203 397 
Q 2534 397 2845 478 
Q 3156 559 3463 722 
L 3463 178 
Q 3153 47 2828 -22 
Q 2503 -91 2169 -91 
Q 1331 -91 842 396 
Q 353 884 353 1716 
Q 353 2575 817 3079 
Q 1281 3584 2069 3584 
Q 2775 3584 3186 3129 
Q 3597 2675 3597 1894 
z
M 3022 2063 
Q 3016 2534 2758 2815 
Q 2500 3097 2075 3097 
Q 1594 3097 1305 2825 
Q 1016 2553 972 2059 
L 3022 2063 
z
" transform="scale(0.015625)"/>
       <path id="DejaVuSans-69" d="M 603 3500 
L 1178 3500 
L 1178 0 
L 603 0 
L 603 3500 
z
M 603 4863 
L 1178 4863 
L 1178 4134 
L 603 4134 
L 603 4863 
z
" transform="scale(0.015625)"/>
       <path id="DejaVuSans-67" d="M 2906 1791 
Q 2906 2416 2648 2759 
Q 2391 3103 1925 3103 
Q 1463 3103 1205 2759 
Q 947 2416 947 1791 
Q 947 1169 1205 825 
Q 1463 481 1925 481 
Q 2391 481 2648 825 
Q 2906 1169 2906 1791 
z
M 3481 434 
Q 3481 -459 3084 -895 
Q 2688 -1331 1869 -1331 
Q 1566 -1331 1297 -1286 
Q 1028 -1241 775 -1147 
L 775 -588 
Q 1028 -725 1275 -790 
Q 1522 -856 1778 -856 
Q 2344 -856 2625 -561 
Q 2906 -266 2906 331 
L 2906 616 
Q 2728 306 2450 153 
Q 2172 0 1784 0 
Q 1141 0 747 490 
Q 353 981 353 1791 
Q 353 2603 747 3093 
Q 1141 3584 1784 3584 
Q 2172 3584 2450 3431 
Q 2728 3278 2906 2969 
L 2906 3500 
L 3481 3500 
L 3481 434 
z
" transform="scale(0.015625)"/>
       <path id="DejaVuSans-68" d="M 3513 2113 
L 3513 0 
L 2938 0 
L 2938 2094 
Q 2938 2591 2744 2837 
Q 2550 3084 2163 3084 
Q 1697 3084 1428 2787 
Q 1159 2491 1159 1978 
L 1159 0 
L 581 0 
L 581 4863 
L 1159 4863 
L 1159 2956 
Q 1366 3272 1645 3428 
Q 1925 3584 2291 3584 
Q 2894 3584 3203 3211 
Q 3513 2838 3513 2113 
z
" transform="scale(0.015625)"/>
       <path id="DejaVuSans-74" d="M 1172 4494 
L 1172 3500 
L 2356 3500 
L 2356 3053 
L 1172 3053 
L 1172 1153 
Q 1172 725 1289 603 
Q 1406 481 1766 481 
L 2356 481 
L 2356 0 
L 1766 0 
Q 1100 0 847 248 
Q 594 497 594 1153 
L 594 3053 
L 172 3053 
L 172 3500 
L 594 3500 
L 594 4494 
L 1172 4494 
z
" transform="scale(0.015625)"/>
       <path id="DejaVuSans-5b" d="M 550 4863 
L 1875 4863 
L 1875 4416 
L 1125 4416 
L 1125 -397 
L 1875 -397 
L 1875 -844 
L 550 -844 
L 550 4863 
z
" transform="scale(0.015625)"/>
       <path id="DejaVuSans-50" d="M 1259 4147 
L 1259 2394 
L 2053 2394 
Q 2494 2394 2734 2622 
Q 2975 2850 2975 3272 
Q 2975 3691 2734 3919 
Q 2494 4147 2053 4147 
L 1259 4147 
z
M 628 4666 
L 2053 4666 
Q 2838 4666 3239 4311 
Q 3641 3956 3641 3272 
Q 3641 2581 3239 2228 
Q 2838 1875 2053 1875 
L 1259 1875 
L 1259 0 
L 628 0 
L 628 4666 
z
" transform="scale(0.015625)"/>
       <path id="DejaVuSans-5d" d="M 1947 4863 
L 1947 -844 
L 622 -844 
L 622 -397 
L 1369 -397 
L 1369 4416 
L 622 4416 
L 622 4863 
L 1947 4863 
z
" transform="scale(0.015625)"/>
      </defs>
      <use xlink:href="#DejaVuSans-32"/>
      <use xlink:href="#DejaVuSans-44" x="63.623047"/>
      <use xlink:href="#DejaVuSans-20" x="140.625"/>
      <use xlink:href="#DejaVuSans-42" x="172.412109"/>
      <use xlink:href="#DejaVuSans-42" x="241.015625"/>
      <use xlink:href="#DejaVuSans-6f" x="309.619141"/>
      <use xlink:href="#DejaVuSans-78" x="367.675781"/>
      <use xlink:href="#DejaVuSans-20" x="426.855469"/>
      <use xlink:href="#DejaVuSans-48" x="458.642578"/>
      <use xlink:href="#DejaVuSans-65" x="533.837891"/>
      <use xlink:href="#DejaVuSans-69" x="595.361328"/>
      <use xlink:href="#DejaVuSans-67" x="623.144531"/>
      <use xlink:href="#DejaVuSans-68" x="686.621094"/>
      <use xlink:href="#DejaVuSans-74" x="750"/>
      <use xlink:href="#DejaVuSans-20" x="789.208984"/>
      <use xlink:href="#DejaVuSans-5b" x="820.996094"/>
      <use xlink:href="#DejaVuSans-50" x="860.009766"/>
      <use xlink:href="#DejaVuSans-78" x="920.3125"/>
      <use xlink:href="#DejaVuSans-5d" x="979.492188"/>
     </g>
    </g>
   </g>
   <g id="matplotlib.axis_2">
    <g id="text_6">
     <!-- Object Density -->
     <g transform="translate(26.196094 215.227031) rotate(-90) scale(0.25 -0.25)">
      <defs>
       <path id="DejaVuSans-4f" d="M 2522 4238 
Q 1834 4238 1429 3725 
Q 1025 3213 1025 2328 
Q 1025 1447 1429 934 
Q 1834 422 2522 422 
Q 3209 422 3611 934 
Q 4013 1447 4013 2328 
Q 4013 3213 3611 3725 
Q 3209 4238 2522 4238 
z
M 2522 4750 
Q 3503 4750 4090 4092 
Q 4678 3434 4678 2328 
Q 4678 1225 4090 567 
Q 3503 -91 2522 -91 
Q 1538 -91 948 565 
Q 359 1222 359 2328 
Q 359 3434 948 4092 
Q 1538 4750 2522 4750 
z
" transform="scale(0.015625)"/>
       <path id="DejaVuSans-62" d="M 3116 1747 
Q 3116 2381 2855 2742 
Q 2594 3103 2138 3103 
Q 1681 3103 1420 2742 
Q 1159 2381 1159 1747 
Q 1159 1113 1420 752 
Q 1681 391 2138 391 
Q 2594 391 2855 752 
Q 3116 1113 3116 1747 
z
M 1159 2969 
Q 1341 3281 1617 3432 
Q 1894 3584 2278 3584 
Q 2916 3584 3314 3078 
Q 3713 2572 3713 1747 
Q 3713 922 3314 415 
Q 2916 -91 2278 -91 
Q 1894 -91 1617 61 
Q 1341 213 1159 525 
L 1159 0 
L 581 0 
L 581 4863 
L 1159 4863 
L 1159 2969 
z
" transform="scale(0.015625)"/>
       <path id="DejaVuSans-6a" d="M 603 3500 
L 1178 3500 
L 1178 -63 
Q 1178 -731 923 -1031 
Q 669 -1331 103 -1331 
L -116 -1331 
L -116 -844 
L 38 -844 
Q 366 -844 484 -692 
Q 603 -541 603 -63 
L 603 3500 
z
M 603 4863 
L 1178 4863 
L 1178 4134 
L 603 4134 
L 603 4863 
z
" transform="scale(0.015625)"/>
       <path id="DejaVuSans-63" d="M 3122 3366 
L 3122 2828 
Q 2878 2963 2633 3030 
Q 2388 3097 2138 3097 
Q 1578 3097 1268 2742 
Q 959 2388 959 1747 
Q 959 1106 1268 751 
Q 1578 397 2138 397 
Q 2388 397 2633 464 
Q 2878 531 3122 666 
L 3122 134 
Q 2881 22 2623 -34 
Q 2366 -91 2075 -91 
Q 1284 -91 818 406 
Q 353 903 353 1747 
Q 353 2603 823 3093 
Q 1294 3584 2113 3584 
Q 2378 3584 2631 3529 
Q 2884 3475 3122 3366 
z
" transform="scale(0.015625)"/>
       <path id="DejaVuSans-6e" d="M 3513 2113 
L 3513 0 
L 2938 0 
L 2938 2094 
Q 2938 2591 2744 2837 
Q 2550 3084 2163 3084 
Q 1697 3084 1428 2787 
Q 1159 2491 1159 1978 
L 1159 0 
L 581 0 
L 581 3500 
L 1159 3500 
L 1159 2956 
Q 1366 3272 1645 3428 
Q 1925 3584 2291 3584 
Q 2894 3584 3203 3211 
Q 3513 2838 3513 2113 
z
" transform="scale(0.015625)"/>
       <path id="DejaVuSans-73" d="M 2834 3397 
L 2834 2853 
Q 2591 2978 2328 3040 
Q 2066 3103 1784 3103 
Q 1356 3103 1142 2972 
Q 928 2841 928 2578 
Q 928 2378 1081 2264 
Q 1234 2150 1697 2047 
L 1894 2003 
Q 2506 1872 2764 1633 
Q 3022 1394 3022 966 
Q 3022 478 2636 193 
Q 2250 -91 1575 -91 
Q 1294 -91 989 -36 
Q 684 19 347 128 
L 347 722 
Q 666 556 975 473 
Q 1284 391 1588 391 
Q 1994 391 2212 530 
Q 2431 669 2431 922 
Q 2431 1156 2273 1281 
Q 2116 1406 1581 1522 
L 1381 1569 
Q 847 1681 609 1914 
Q 372 2147 372 2553 
Q 372 3047 722 3315 
Q 1072 3584 1716 3584 
Q 2034 3584 2315 3537 
Q 2597 3491 2834 3397 
z
" transform="scale(0.015625)"/>
       <path id="DejaVuSans-79" d="M 2059 -325 
Q 1816 -950 1584 -1140 
Q 1353 -1331 966 -1331 
L 506 -1331 
L 506 -850 
L 844 -850 
Q 1081 -850 1212 -737 
Q 1344 -625 1503 -206 
L 1606 56 
L 191 3500 
L 800 3500 
L 1894 763 
L 2988 3500 
L 3597 3500 
L 2059 -325 
z
" transform="scale(0.015625)"/>
      </defs>
      <use xlink:href="#DejaVuSans-4f"/>
      <use xlink:href="#DejaVuSans-62" x="78.710938"/>
      <use xlink:href="#DejaVuSans-6a" x="142.1875"/>
      <use xlink:href="#DejaVuSans-65" x="169.970703"/>
      <use xlink:href="#DejaVuSans-63" x="231.494141"/>
      <use xlink:href="#DejaVuSans-74" x="286.474609"/>
      <use xlink:href="#DejaVuSans-20" x="325.683594"/>
      <use xlink:href="#DejaVuSans-44" x="357.470703"/>
      <use xlink:href="#DejaVuSans-65" x="434.472656"/>
      <use xlink:href="#DejaVuSans-6e" x="495.996094"/>
      <use xlink:href="#DejaVuSans-73" x="559.375"/>
      <use xlink:href="#DejaVuSans-69" x="611.474609"/>
      <use xlink:href="#DejaVuSans-74" x="639.257812"/>
      <use xlink:href="#DejaVuSans-79" x="678.466797"/>
     </g>
    </g>
   </g>
   <g id="patch_123">
    <path d="M 35.395313 238.84 
L 35.395313 7.2 
" style="fill: none; stroke: #000000; stroke-width: 0.8; stroke-linejoin: miter; stroke-linecap: square"/>
   </g>
   <g id="patch_124">
    <path d="M 413.715312 238.84 
L 413.715312 7.2 
" style="fill: none; stroke: #000000; stroke-width: 0.8; stroke-linejoin: miter; stroke-linecap: square"/>
   </g>
   <g id="patch_125">
    <path d="M 35.395313 238.84 
L 413.715312 238.84 
" style="fill: none; stroke: #000000; stroke-width: 0.8; stroke-linejoin: miter; stroke-linecap: square"/>
   </g>
   <g id="patch_126">
    <path d="M 35.395313 7.2 
L 413.715312 7.2 
" style="fill: none; stroke: #000000; stroke-width: 0.8; stroke-linejoin: miter; stroke-linecap: square"/>
   </g>
   <g id="legend_1">
    <g id="patch_127">
     <path d="M 218.262187 137.285937 
L 396.215312 137.285937 
Q 401.215312 137.285937 401.215312 132.285937 
L 401.215312 24.7 
Q 401.215312 19.7 396.215312 19.7 
L 218.262187 19.7 
Q 213.262187 19.7 213.262187 24.7 
L 213.262187 132.285937 
Q 213.262187 137.285937 218.262187 137.285937 
z
" style="fill: #ffffff; opacity: 0.8; stroke: #cccccc; stroke-linejoin: miter"/>
    </g>
    <g id="patch_128">
     <path d="M 223.262187 48.696094 
L 273.262187 48.696094 
L 273.262187 31.196094 
L 223.262187 31.196094 
z
" style="fill: #ff0000; opacity: 0.5; stroke: #000000; stroke-linejoin: miter"/>
    </g>
    <g id="text_7">
     <!-- Waymo -->
     <g transform="translate(293.262187 48.696094) scale(0.25 -0.25)">
      <defs>
       <path id="DejaVuSans-57" d="M 213 4666 
L 850 4666 
L 1831 722 
L 2809 4666 
L 3519 4666 
L 4500 722 
L 5478 4666 
L 6119 4666 
L 4947 0 
L 4153 0 
L 3169 4050 
L 2175 0 
L 1381 0 
L 213 4666 
z
" transform="scale(0.015625)"/>
       <path id="DejaVuSans-61" d="M 2194 1759 
Q 1497 1759 1228 1600 
Q 959 1441 959 1056 
Q 959 750 1161 570 
Q 1363 391 1709 391 
Q 2188 391 2477 730 
Q 2766 1069 2766 1631 
L 2766 1759 
L 2194 1759 
z
M 3341 1997 
L 3341 0 
L 2766 0 
L 2766 531 
Q 2569 213 2275 61 
Q 1981 -91 1556 -91 
Q 1019 -91 701 211 
Q 384 513 384 1019 
Q 384 1609 779 1909 
Q 1175 2209 1959 2209 
L 2766 2209 
L 2766 2266 
Q 2766 2663 2505 2880 
Q 2244 3097 1772 3097 
Q 1472 3097 1187 3025 
Q 903 2953 641 2809 
L 641 3341 
Q 956 3463 1253 3523 
Q 1550 3584 1831 3584 
Q 2591 3584 2966 3190 
Q 3341 2797 3341 1997 
z
" transform="scale(0.015625)"/>
       <path id="DejaVuSans-6d" d="M 3328 2828 
Q 3544 3216 3844 3400 
Q 4144 3584 4550 3584 
Q 5097 3584 5394 3201 
Q 5691 2819 5691 2113 
L 5691 0 
L 5113 0 
L 5113 2094 
Q 5113 2597 4934 2840 
Q 4756 3084 4391 3084 
Q 3944 3084 3684 2787 
Q 3425 2491 3425 1978 
L 3425 0 
L 2847 0 
L 2847 2094 
Q 2847 2600 2669 2842 
Q 2491 3084 2119 3084 
Q 1678 3084 1418 2786 
Q 1159 2488 1159 1978 
L 1159 0 
L 581 0 
L 581 3500 
L 1159 3500 
L 1159 2956 
Q 1356 3278 1631 3431 
Q 1906 3584 2284 3584 
Q 2666 3584 2933 3390 
Q 3200 3197 3328 2828 
z
" transform="scale(0.015625)"/>
      </defs>
      <use xlink:href="#DejaVuSans-57"/>
      <use xlink:href="#DejaVuSans-61" x="92.501953"/>
      <use xlink:href="#DejaVuSans-79" x="153.78125"/>
      <use xlink:href="#DejaVuSans-6d" x="212.960938"/>
      <use xlink:href="#DejaVuSans-6f" x="310.373047"/>
     </g>
    </g>
    <g id="patch_129">
     <path d="M 223.262187 85.391406 
L 273.262187 85.391406 
L 273.262187 67.891406 
L 223.262187 67.891406 
z
" style="fill: #0000ff; opacity: 0.5; stroke: #000000; stroke-linejoin: miter"/>
    </g>
    <g id="text_8">
     <!-- Rope3D -->
     <g transform="translate(293.262187 85.391406) scale(0.25 -0.25)">
      <defs>
       <path id="DejaVuSans-52" d="M 2841 2188 
Q 3044 2119 3236 1894 
Q 3428 1669 3622 1275 
L 4263 0 
L 3584 0 
L 2988 1197 
Q 2756 1666 2539 1819 
Q 2322 1972 1947 1972 
L 1259 1972 
L 1259 0 
L 628 0 
L 628 4666 
L 2053 4666 
Q 2853 4666 3247 4331 
Q 3641 3997 3641 3322 
Q 3641 2881 3436 2590 
Q 3231 2300 2841 2188 
z
M 1259 4147 
L 1259 2491 
L 2053 2491 
Q 2509 2491 2742 2702 
Q 2975 2913 2975 3322 
Q 2975 3731 2742 3939 
Q 2509 4147 2053 4147 
L 1259 4147 
z
" transform="scale(0.015625)"/>
       <path id="DejaVuSans-70" d="M 1159 525 
L 1159 -1331 
L 581 -1331 
L 581 3500 
L 1159 3500 
L 1159 2969 
Q 1341 3281 1617 3432 
Q 1894 3584 2278 3584 
Q 2916 3584 3314 3078 
Q 3713 2572 3713 1747 
Q 3713 922 3314 415 
Q 2916 -91 2278 -91 
Q 1894 -91 1617 61 
Q 1341 213 1159 525 
z
M 3116 1747 
Q 3116 2381 2855 2742 
Q 2594 3103 2138 3103 
Q 1681 3103 1420 2742 
Q 1159 2381 1159 1747 
Q 1159 1113 1420 752 
Q 1681 391 2138 391 
Q 2594 391 2855 752 
Q 3116 1113 3116 1747 
z
" transform="scale(0.015625)"/>
       <path id="DejaVuSans-33" d="M 2597 2516 
Q 3050 2419 3304 2112 
Q 3559 1806 3559 1356 
Q 3559 666 3084 287 
Q 2609 -91 1734 -91 
Q 1441 -91 1130 -33 
Q 819 25 488 141 
L 488 750 
Q 750 597 1062 519 
Q 1375 441 1716 441 
Q 2309 441 2620 675 
Q 2931 909 2931 1356 
Q 2931 1769 2642 2001 
Q 2353 2234 1838 2234 
L 1294 2234 
L 1294 2753 
L 1863 2753 
Q 2328 2753 2575 2939 
Q 2822 3125 2822 3475 
Q 2822 3834 2567 4026 
Q 2313 4219 1838 4219 
Q 1578 4219 1281 4162 
Q 984 4106 628 3988 
L 628 4550 
Q 988 4650 1302 4700 
Q 1616 4750 1894 4750 
Q 2613 4750 3031 4423 
Q 3450 4097 3450 3541 
Q 3450 3153 3228 2886 
Q 3006 2619 2597 2516 
z
" transform="scale(0.015625)"/>
      </defs>
      <use xlink:href="#DejaVuSans-52"/>
      <use xlink:href="#DejaVuSans-6f" x="64.982422"/>
      <use xlink:href="#DejaVuSans-70" x="126.164062"/>
      <use xlink:href="#DejaVuSans-65" x="189.640625"/>
      <use xlink:href="#DejaVuSans-33" x="251.164062"/>
      <use xlink:href="#DejaVuSans-44" x="314.787109"/>
     </g>
    </g>
    <g id="patch_130">
     <path d="M 223.262187 122.086719 
L 273.262187 122.086719 
L 273.262187 104.586719 
L 223.262187 104.586719 
z
" style="fill: #008000; opacity: 0.5; stroke: #000000; stroke-linejoin: miter"/>
    </g>
    <g id="text_9">
     <!-- CDrone -->
     <g transform="translate(293.262187 122.086719) scale(0.25 -0.25)">
      <defs>
       <path id="DejaVuSans-43" d="M 4122 4306 
L 4122 3641 
Q 3803 3938 3442 4084 
Q 3081 4231 2675 4231 
Q 1875 4231 1450 3742 
Q 1025 3253 1025 2328 
Q 1025 1406 1450 917 
Q 1875 428 2675 428 
Q 3081 428 3442 575 
Q 3803 722 4122 1019 
L 4122 359 
Q 3791 134 3420 21 
Q 3050 -91 2638 -91 
Q 1578 -91 968 557 
Q 359 1206 359 2328 
Q 359 3453 968 4101 
Q 1578 4750 2638 4750 
Q 3056 4750 3426 4639 
Q 3797 4528 4122 4306 
z
" transform="scale(0.015625)"/>
       <path id="DejaVuSans-72" d="M 2631 2963 
Q 2534 3019 2420 3045 
Q 2306 3072 2169 3072 
Q 1681 3072 1420 2755 
Q 1159 2438 1159 1844 
L 1159 0 
L 581 0 
L 581 3500 
L 1159 3500 
L 1159 2956 
Q 1341 3275 1631 3429 
Q 1922 3584 2338 3584 
Q 2397 3584 2469 3576 
Q 2541 3569 2628 3553 
L 2631 2963 
z
" transform="scale(0.015625)"/>
      </defs>
      <use xlink:href="#DejaVuSans-43"/>
      <use xlink:href="#DejaVuSans-44" x="69.824219"/>
      <use xlink:href="#DejaVuSans-72" x="146.826172"/>
      <use xlink:href="#DejaVuSans-6f" x="185.689453"/>
      <use xlink:href="#DejaVuSans-6e" x="246.871094"/>
      <use xlink:href="#DejaVuSans-65" x="310.25"/>
     </g>
    </g>
   </g>
  </g>
 </g>
 <defs>
  <clipPath id="pf24aca370b">
   <rect x="35.395313" y="7.2" width="378.32" height="231.64"/>
  </clipPath>
 </defs>
</svg>
