<?xml version="1.0" encoding="UTF-8" standalone="no"?>
<!-- Created with Inkscape (http://www.inkscape.org/) -->

<svg
   version="1.1"
   id="svg1"
   width="545.58832"
   height="398.37167"
   viewBox="0 0 545.58832 398.37167"
   sodipodi:docname="datasets_bbox_height.pdf"
   xmlns:inkscape="http://www.inkscape.org/namespaces/inkscape"
   xmlns:sodipodi="http://sodipodi.sourceforge.net/DTD/sodipodi-0.dtd"
   xmlns="http://www.w3.org/2000/svg"
   xmlns:svg="http://www.w3.org/2000/svg">
  <defs
     id="defs1">
    <clipPath
       clipPathUnits="userSpaceOnUse"
       id="clipPath4">
      <path
         d="m 43.73125,76.2625 h 358.26 v 209.32 h -358.26 z"
         id="path4" />
    </clipPath>
    <clipPath
       clipPathUnits="userSpaceOnUse"
       id="clipPath6">
      <path
         d="m 43.73125,76.2625 h 358.26 v 209.32 h -358.26 z"
         id="path6" />
    </clipPath>
    <clipPath
       clipPathUnits="userSpaceOnUse"
       id="clipPath8">
      <path
         d="m 43.73125,76.2625 h 358.26 v 209.32 h -358.26 z"
         id="path8" />
    </clipPath>
    <clipPath
       clipPathUnits="userSpaceOnUse"
       id="clipPath10">
      <path
         d="m 43.73125,76.2625 h 358.26 v 209.32 h -358.26 z"
         id="path10" />
    </clipPath>
    <clipPath
       clipPathUnits="userSpaceOnUse"
       id="clipPath12">
      <path
         d="m 43.73125,76.2625 h 358.26 v 209.32 h -358.26 z"
         id="path12" />
    </clipPath>
    <clipPath
       clipPathUnits="userSpaceOnUse"
       id="clipPath14">
      <path
         d="m 43.73125,76.2625 h 358.26 v 209.32 h -358.26 z"
         id="path14" />
    </clipPath>
    <clipPath
       clipPathUnits="userSpaceOnUse"
       id="clipPath16">
      <path
         d="m 43.73125,76.2625 h 358.26 v 209.32 h -358.26 z"
         id="path16" />
    </clipPath>
    <clipPath
       clipPathUnits="userSpaceOnUse"
       id="clipPath18">
      <path
         d="m 43.73125,76.2625 h 358.26 v 209.32 h -358.26 z"
         id="path18" />
    </clipPath>
    <clipPath
       clipPathUnits="userSpaceOnUse"
       id="clipPath20">
      <path
         d="m 43.73125,76.2625 h 358.26 v 209.32 h -358.26 z"
         id="path20" />
    </clipPath>
    <clipPath
       clipPathUnits="userSpaceOnUse"
       id="clipPath22">
      <path
         d="m 43.73125,76.2625 h 358.26 v 209.32 h -358.26 z"
         id="path22" />
    </clipPath>
    <clipPath
       clipPathUnits="userSpaceOnUse"
       id="clipPath24">
      <path
         d="m 43.73125,76.2625 h 358.26 v 209.32 h -358.26 z"
         id="path24" />
    </clipPath>
    <clipPath
       clipPathUnits="userSpaceOnUse"
       id="clipPath26">
      <path
         d="m 43.73125,76.2625 h 358.26 v 209.32 h -358.26 z"
         id="path26" />
    </clipPath>
    <clipPath
       clipPathUnits="userSpaceOnUse"
       id="clipPath28">
      <path
         d="m 43.73125,76.2625 h 358.26 v 209.32 h -358.26 z"
         id="path28" />
    </clipPath>
    <clipPath
       clipPathUnits="userSpaceOnUse"
       id="clipPath30">
      <path
         d="m 43.73125,76.2625 h 358.26 v 209.32 h -358.26 z"
         id="path30" />
    </clipPath>
    <clipPath
       clipPathUnits="userSpaceOnUse"
       id="clipPath32">
      <path
         d="m 43.73125,76.2625 h 358.26 v 209.32 h -358.26 z"
         id="path32" />
    </clipPath>
    <clipPath
       clipPathUnits="userSpaceOnUse"
       id="clipPath34">
      <path
         d="m 43.73125,76.2625 h 358.26 v 209.32 h -358.26 z"
         id="path34" />
    </clipPath>
    <clipPath
       clipPathUnits="userSpaceOnUse"
       id="clipPath36">
      <path
         d="m 43.73125,76.2625 h 358.26 v 209.32 h -358.26 z"
         id="path36" />
    </clipPath>
    <clipPath
       clipPathUnits="userSpaceOnUse"
       id="clipPath38">
      <path
         d="m 43.73125,76.2625 h 358.26 v 209.32 h -358.26 z"
         id="path38" />
    </clipPath>
    <clipPath
       clipPathUnits="userSpaceOnUse"
       id="clipPath40">
      <path
         d="m 43.73125,76.2625 h 358.26 v 209.32 h -358.26 z"
         id="path40" />
    </clipPath>
    <clipPath
       clipPathUnits="userSpaceOnUse"
       id="clipPath42">
      <path
         d="m 43.73125,76.2625 h 358.26 v 209.32 h -358.26 z"
         id="path42" />
    </clipPath>
    <clipPath
       clipPathUnits="userSpaceOnUse"
       id="clipPath44">
      <path
         d="m 43.73125,76.2625 h 358.26 v 209.32 h -358.26 z"
         id="path44" />
    </clipPath>
    <clipPath
       clipPathUnits="userSpaceOnUse"
       id="clipPath46">
      <path
         d="m 43.73125,76.2625 h 358.26 v 209.32 h -358.26 z"
         id="path46" />
    </clipPath>
    <clipPath
       clipPathUnits="userSpaceOnUse"
       id="clipPath84">
      <path
         d="m 43.73125,76.2625 h 358.26 v 209.32 h -358.26 z"
         id="path84" />
    </clipPath>
    <clipPath
       clipPathUnits="userSpaceOnUse"
       id="clipPath86">
      <path
         d="m 43.73125,76.2625 h 358.26 v 209.32 h -358.26 z"
         id="path86" />
    </clipPath>
    <clipPath
       clipPathUnits="userSpaceOnUse"
       id="clipPath88">
      <path
         d="m 43.73125,76.2625 h 358.26 v 209.32 h -358.26 z"
         id="path88" />
    </clipPath>
    <clipPath
       clipPathUnits="userSpaceOnUse"
       id="clipPath90">
      <path
         d="m 43.73125,76.2625 h 358.26 v 209.32 h -358.26 z"
         id="path90" />
    </clipPath>
    <clipPath
       clipPathUnits="userSpaceOnUse"
       id="clipPath92">
      <path
         d="m 43.73125,76.2625 h 358.26 v 209.32 h -358.26 z"
         id="path92" />
    </clipPath>
    <clipPath
       clipPathUnits="userSpaceOnUse"
       id="clipPath94">
      <path
         d="m 43.73125,76.2625 h 358.26 v 209.32 h -358.26 z"
         id="path94" />
    </clipPath>
    <clipPath
       clipPathUnits="userSpaceOnUse"
       id="clipPath96">
      <path
         d="m 43.73125,76.2625 h 358.26 v 209.32 h -358.26 z"
         id="path96" />
    </clipPath>
    <clipPath
       clipPathUnits="userSpaceOnUse"
       id="clipPath98">
      <path
         d="m 43.73125,76.2625 h 358.26 v 209.32 h -358.26 z"
         id="path98" />
    </clipPath>
    <clipPath
       clipPathUnits="userSpaceOnUse"
       id="clipPath100">
      <path
         d="m 43.73125,76.2625 h 358.26 v 209.32 h -358.26 z"
         id="path100" />
    </clipPath>
    <clipPath
       clipPathUnits="userSpaceOnUse"
       id="clipPath102">
      <path
         d="m 43.73125,76.2625 h 358.26 v 209.32 h -358.26 z"
         id="path102" />
    </clipPath>
    <clipPath
       clipPathUnits="userSpaceOnUse"
       id="clipPath104">
      <path
         d="m 43.73125,76.2625 h 358.26 v 209.32 h -358.26 z"
         id="path104" />
    </clipPath>
    <clipPath
       clipPathUnits="userSpaceOnUse"
       id="clipPath106">
      <path
         d="m 43.73125,76.2625 h 358.26 v 209.32 h -358.26 z"
         id="path106" />
    </clipPath>
    <clipPath
       clipPathUnits="userSpaceOnUse"
       id="clipPath108">
      <path
         d="m 43.73125,76.2625 h 358.26 v 209.32 h -358.26 z"
         id="path108" />
    </clipPath>
    <clipPath
       clipPathUnits="userSpaceOnUse"
       id="clipPath110">
      <path
         d="m 43.73125,76.2625 h 358.26 v 209.32 h -358.26 z"
         id="path110" />
    </clipPath>
    <clipPath
       clipPathUnits="userSpaceOnUse"
       id="clipPath112">
      <path
         d="m 43.73125,76.2625 h 358.26 v 209.32 h -358.26 z"
         id="path112" />
    </clipPath>
    <clipPath
       clipPathUnits="userSpaceOnUse"
       id="clipPath114">
      <path
         d="m 43.73125,76.2625 h 358.26 v 209.32 h -358.26 z"
         id="path114" />
    </clipPath>
    <clipPath
       clipPathUnits="userSpaceOnUse"
       id="clipPath116">
      <path
         d="m 43.73125,76.2625 h 358.26 v 209.32 h -358.26 z"
         id="path116" />
    </clipPath>
    <clipPath
       clipPathUnits="userSpaceOnUse"
       id="clipPath118">
      <path
         d="m 43.73125,76.2625 h 358.26 v 209.32 h -358.26 z"
         id="path118" />
    </clipPath>
    <clipPath
       clipPathUnits="userSpaceOnUse"
       id="clipPath120">
      <path
         d="m 43.73125,76.2625 h 358.26 v 209.32 h -358.26 z"
         id="path120" />
    </clipPath>
    <clipPath
       clipPathUnits="userSpaceOnUse"
       id="clipPath122">
      <path
         d="m 43.73125,76.2625 h 358.26 v 209.32 h -358.26 z"
         id="path122" />
    </clipPath>
    <clipPath
       clipPathUnits="userSpaceOnUse"
       id="clipPath124">
      <path
         d="m 43.73125,76.2625 h 358.26 v 209.32 h -358.26 z"
         id="path124" />
    </clipPath>
    <clipPath
       clipPathUnits="userSpaceOnUse"
       id="clipPath126">
      <path
         d="m 43.73125,76.2625 h 358.26 v 209.32 h -358.26 z"
         id="path126" />
    </clipPath>
    <clipPath
       clipPathUnits="userSpaceOnUse"
       id="clipPath164">
      <path
         d="m 43.73125,76.2625 h 358.26 v 209.32 h -358.26 z"
         id="path164" />
    </clipPath>
    <clipPath
       clipPathUnits="userSpaceOnUse"
       id="clipPath166">
      <path
         d="m 43.73125,76.2625 h 358.26 v 209.32 h -358.26 z"
         id="path166" />
    </clipPath>
    <clipPath
       clipPathUnits="userSpaceOnUse"
       id="clipPath168">
      <path
         d="m 43.73125,76.2625 h 358.26 v 209.32 h -358.26 z"
         id="path168" />
    </clipPath>
    <clipPath
       clipPathUnits="userSpaceOnUse"
       id="clipPath170">
      <path
         d="m 43.73125,76.2625 h 358.26 v 209.32 h -358.26 z"
         id="path170" />
    </clipPath>
    <clipPath
       clipPathUnits="userSpaceOnUse"
       id="clipPath172">
      <path
         d="m 43.73125,76.2625 h 358.26 v 209.32 h -358.26 z"
         id="path172" />
    </clipPath>
    <clipPath
       clipPathUnits="userSpaceOnUse"
       id="clipPath174">
      <path
         d="m 43.73125,76.2625 h 358.26 v 209.32 h -358.26 z"
         id="path174" />
    </clipPath>
    <clipPath
       clipPathUnits="userSpaceOnUse"
       id="clipPath176">
      <path
         d="m 43.73125,76.2625 h 358.26 v 209.32 h -358.26 z"
         id="path176" />
    </clipPath>
    <clipPath
       clipPathUnits="userSpaceOnUse"
       id="clipPath178">
      <path
         d="m 43.73125,76.2625 h 358.26 v 209.32 h -358.26 z"
         id="path178" />
    </clipPath>
    <clipPath
       clipPathUnits="userSpaceOnUse"
       id="clipPath180">
      <path
         d="m 43.73125,76.2625 h 358.26 v 209.32 h -358.26 z"
         id="path180" />
    </clipPath>
    <clipPath
       clipPathUnits="userSpaceOnUse"
       id="clipPath182">
      <path
         d="m 43.73125,76.2625 h 358.26 v 209.32 h -358.26 z"
         id="path182" />
    </clipPath>
    <clipPath
       clipPathUnits="userSpaceOnUse"
       id="clipPath184">
      <path
         d="m 43.73125,76.2625 h 358.26 v 209.32 h -358.26 z"
         id="path184" />
    </clipPath>
    <clipPath
       clipPathUnits="userSpaceOnUse"
       id="clipPath186">
      <path
         d="m 43.73125,76.2625 h 358.26 v 209.32 h -358.26 z"
         id="path186" />
    </clipPath>
    <clipPath
       clipPathUnits="userSpaceOnUse"
       id="clipPath188">
      <path
         d="m 43.73125,76.2625 h 358.26 v 209.32 h -358.26 z"
         id="path188" />
    </clipPath>
    <clipPath
       clipPathUnits="userSpaceOnUse"
       id="clipPath190">
      <path
         d="m 43.73125,76.2625 h 358.26 v 209.32 h -358.26 z"
         id="path190" />
    </clipPath>
    <clipPath
       clipPathUnits="userSpaceOnUse"
       id="clipPath192">
      <path
         d="m 43.73125,76.2625 h 358.26 v 209.32 h -358.26 z"
         id="path192" />
    </clipPath>
    <clipPath
       clipPathUnits="userSpaceOnUse"
       id="clipPath194">
      <path
         d="m 43.73125,76.2625 h 358.26 v 209.32 h -358.26 z"
         id="path194" />
    </clipPath>
    <clipPath
       clipPathUnits="userSpaceOnUse"
       id="clipPath196">
      <path
         d="m 43.73125,76.2625 h 358.26 v 209.32 h -358.26 z"
         id="path196" />
    </clipPath>
    <clipPath
       clipPathUnits="userSpaceOnUse"
       id="clipPath198">
      <path
         d="m 43.73125,76.2625 h 358.26 v 209.32 h -358.26 z"
         id="path198" />
    </clipPath>
    <clipPath
       clipPathUnits="userSpaceOnUse"
       id="clipPath200">
      <path
         d="m 43.73125,76.2625 h 358.26 v 209.32 h -358.26 z"
         id="path200" />
    </clipPath>
    <clipPath
       clipPathUnits="userSpaceOnUse"
       id="clipPath202">
      <path
         d="m 43.73125,76.2625 h 358.26 v 209.32 h -358.26 z"
         id="path202" />
    </clipPath>
    <clipPath
       clipPathUnits="userSpaceOnUse"
       id="clipPath204">
      <path
         d="m 43.73125,76.2625 h 358.26 v 209.32 h -358.26 z"
         id="path204" />
    </clipPath>
    <clipPath
       clipPathUnits="userSpaceOnUse"
       id="clipPath206">
      <path
         d="m 43.73125,76.2625 h 358.26 v 209.32 h -358.26 z"
         id="path206" />
    </clipPath>
  </defs>
  <sodipodi:namedview
     id="namedview1"
     pagecolor="#ffffff"
     bordercolor="#000000"
     borderopacity="0.25"
     inkscape:showpageshadow="2"
     inkscape:pageopacity="0.0"
     inkscape:pagecheckerboard="0"
     inkscape:deskcolor="#d1d1d1">
    <inkscape:page
       x="0"
       y="0"
       inkscape:label="1"
       id="page1"
       width="545.58832"
       height="398.37167"
       margin="0"
       bleed="0" />
  </sodipodi:namedview>
  <g
     id="g1"
     inkscape:groupmode="layer"
     inkscape:label="1">
    <path
       id="path1"
       d="M 0,0 H 409.19125 V 298.77875 H 0 Z"
       style="fill:#ffffff;fill-opacity:1;fill-rule:nonzero;stroke:none"
       transform="matrix(1.3333333,0,0,-1.3333333,0,398.37167)" />
    <path
       id="path2"
       d="m 43.73125,76.2625 h 358.26 v 209.32 h -358.26 z"
       style="fill:#ffffff;fill-opacity:1;fill-rule:nonzero;stroke:none"
       transform="matrix(1.3333333,0,0,-1.3333333,0,398.37167)" />
    <path
       id="path3"
       d="m 43.73125,76.2625 h 16.36199 v 0 z"
       style="fill:#ff0000;fill-opacity:0.5;fill-rule:nonzero;stroke:#000000;stroke-width:1;stroke-linecap:butt;stroke-linejoin:miter;stroke-miterlimit:10;stroke-dasharray:none;stroke-opacity:0.5"
       transform="matrix(1.3333333,0,0,-1.3333333,0,398.37167)"
       clip-path="url(#clipPath4)" />
    <path
       id="path5"
       d="m 60.09324,76.2625 h 16.36199 v 4.926517 H 60.09324 Z"
       style="fill:#ff0000;fill-opacity:0.5;fill-rule:nonzero;stroke:#000000;stroke-width:1;stroke-linecap:butt;stroke-linejoin:miter;stroke-miterlimit:10;stroke-dasharray:none;stroke-opacity:0.5"
       transform="matrix(1.3333333,0,0,-1.3333333,0,398.37167)"
       clip-path="url(#clipPath6)" />
    <path
       id="path7"
       d="m 76.45523,76.2625 h 16.36199 v 62.18537 H 76.45523 Z"
       style="fill:#ff0000;fill-opacity:0.5;fill-rule:nonzero;stroke:#000000;stroke-width:1;stroke-linecap:butt;stroke-linejoin:miter;stroke-miterlimit:10;stroke-dasharray:none;stroke-opacity:0.5"
       transform="matrix(1.3333333,0,0,-1.3333333,0,398.37167)"
       clip-path="url(#clipPath8)" />
    <path
       id="path9"
       d="m 92.81722,76.2625 h 16.36199 V 181.73163 H 92.81722 Z"
       style="fill:#ff0000;fill-opacity:0.5;fill-rule:nonzero;stroke:#000000;stroke-width:1;stroke-linecap:butt;stroke-linejoin:miter;stroke-miterlimit:10;stroke-dasharray:none;stroke-opacity:0.5"
       transform="matrix(1.3333333,0,0,-1.3333333,0,398.37167)"
       clip-path="url(#clipPath10)" />
    <path
       id="path11"
       d="m 109.17921,76.2625 h 16.36199 v 88.141 h -16.36199 z"
       style="fill:#ff0000;fill-opacity:0.5;fill-rule:nonzero;stroke:#000000;stroke-width:1;stroke-linecap:butt;stroke-linejoin:miter;stroke-miterlimit:10;stroke-dasharray:none;stroke-opacity:0.5"
       transform="matrix(1.3333333,0,0,-1.3333333,0,398.37167)"
       clip-path="url(#clipPath12)" />
    <path
       id="path13"
       d="m 125.5412,76.2625 h 16.36199 v 57.95805 H 125.5412 Z"
       style="fill:#ff0000;fill-opacity:0.5;fill-rule:nonzero;stroke:#000000;stroke-width:1;stroke-linecap:butt;stroke-linejoin:miter;stroke-miterlimit:10;stroke-dasharray:none;stroke-opacity:0.5"
       transform="matrix(1.3333333,0,0,-1.3333333,0,398.37167)"
       clip-path="url(#clipPath14)" />
    <path
       id="path15"
       d="m 141.90319,76.2625 h 16.36199 v 37.15942 h -16.36199 z"
       style="fill:#ff0000;fill-opacity:0.5;fill-rule:nonzero;stroke:#000000;stroke-width:1;stroke-linecap:butt;stroke-linejoin:miter;stroke-miterlimit:10;stroke-dasharray:none;stroke-opacity:0.5"
       transform="matrix(1.3333333,0,0,-1.3333333,0,398.37167)"
       clip-path="url(#clipPath16)" />
    <path
       id="path17"
       d="m 158.26518,76.2625 h 16.36199 v 27.51248 h -16.36199 z"
       style="fill:#ff0000;fill-opacity:0.5;fill-rule:nonzero;stroke:#000000;stroke-width:1;stroke-linecap:butt;stroke-linejoin:miter;stroke-miterlimit:10;stroke-dasharray:none;stroke-opacity:0.5"
       transform="matrix(1.3333333,0,0,-1.3333333,0,398.37167)"
       clip-path="url(#clipPath18)" />
    <path
       id="path19"
       d="m 174.62717,76.2625 h 16.36199 v 20.0806 h -16.36199 z"
       style="fill:#ff0000;fill-opacity:0.5;fill-rule:nonzero;stroke:#000000;stroke-width:1;stroke-linecap:butt;stroke-linejoin:miter;stroke-miterlimit:10;stroke-dasharray:none;stroke-opacity:0.5"
       transform="matrix(1.3333333,0,0,-1.3333333,0,398.37167)"
       clip-path="url(#clipPath20)" />
    <path
       id="path21"
       d="m 190.98916,76.2625 h 16.36199 v 15.218351 h -16.36199 z"
       style="fill:#ff0000;fill-opacity:0.5;fill-rule:nonzero;stroke:#000000;stroke-width:1;stroke-linecap:butt;stroke-linejoin:miter;stroke-miterlimit:10;stroke-dasharray:none;stroke-opacity:0.5"
       transform="matrix(1.3333333,0,0,-1.3333333,0,398.37167)"
       clip-path="url(#clipPath22)" />
    <path
       id="path23"
       d="m 207.35115,76.2625 h 16.36199 v 11.584962 h -16.36199 z"
       style="fill:#ff0000;fill-opacity:0.5;fill-rule:nonzero;stroke:#000000;stroke-width:1;stroke-linecap:butt;stroke-linejoin:miter;stroke-miterlimit:10;stroke-dasharray:none;stroke-opacity:0.5"
       transform="matrix(1.3333333,0,0,-1.3333333,0,398.37167)"
       clip-path="url(#clipPath24)" />
    <path
       id="path25"
       d="m 223.71314,76.2625 h 16.36199 v 9.577123 h -16.36199 z"
       style="fill:#ff0000;fill-opacity:0.5;fill-rule:nonzero;stroke:#000000;stroke-width:1;stroke-linecap:butt;stroke-linejoin:miter;stroke-miterlimit:10;stroke-dasharray:none;stroke-opacity:0.5"
       transform="matrix(1.3333333,0,0,-1.3333333,0,398.37167)"
       clip-path="url(#clipPath26)" />
    <path
       id="path27"
       d="m 240.07513,76.2625 h 16.36199 v 8.110027 h -16.36199 z"
       style="fill:#ff0000;fill-opacity:0.5;fill-rule:nonzero;stroke:#000000;stroke-width:1;stroke-linecap:butt;stroke-linejoin:miter;stroke-miterlimit:10;stroke-dasharray:none;stroke-opacity:0.5"
       transform="matrix(1.3333333,0,0,-1.3333333,0,398.37167)"
       clip-path="url(#clipPath28)" />
    <path
       id="path29"
       d="m 256.43712,76.2625 h 16.36199 v 7.471774 h -16.36199 z"
       style="fill:#ff0000;fill-opacity:0.5;fill-rule:nonzero;stroke:#000000;stroke-width:1;stroke-linecap:butt;stroke-linejoin:miter;stroke-miterlimit:10;stroke-dasharray:none;stroke-opacity:0.5"
       transform="matrix(1.3333333,0,0,-1.3333333,0,398.37167)"
       clip-path="url(#clipPath30)" />
    <path
       id="path31"
       d="m 272.79911,76.2625 h 16.36199 v 7.764307 h -16.36199 z"
       style="fill:#ff0000;fill-opacity:0.5;fill-rule:nonzero;stroke:#000000;stroke-width:1;stroke-linecap:butt;stroke-linejoin:miter;stroke-miterlimit:10;stroke-dasharray:none;stroke-opacity:0.5"
       transform="matrix(1.3333333,0,0,-1.3333333,0,398.37167)"
       clip-path="url(#clipPath32)" />
    <path
       id="path33"
       d="m 289.1611,76.2625 h 16.36199 v 8.820305 H 289.1611 Z"
       style="fill:#ff0000;fill-opacity:0.5;fill-rule:nonzero;stroke:#000000;stroke-width:1;stroke-linecap:butt;stroke-linejoin:miter;stroke-miterlimit:10;stroke-dasharray:none;stroke-opacity:0.5"
       transform="matrix(1.3333333,0,0,-1.3333333,0,398.37167)"
       clip-path="url(#clipPath34)" />
    <path
       id="path35"
       d="m 305.52309,76.2625 h 16.36199 v 10.408182 h -16.36199 z"
       style="fill:#ff0000;fill-opacity:0.5;fill-rule:nonzero;stroke:#000000;stroke-width:1;stroke-linecap:butt;stroke-linejoin:miter;stroke-miterlimit:10;stroke-dasharray:none;stroke-opacity:0.5"
       transform="matrix(1.3333333,0,0,-1.3333333,0,398.37167)"
       clip-path="url(#clipPath36)" />
    <path
       id="path37"
       d="m 321.88508,76.2625 h 16.36199 v 8.826954 h -16.36199 z"
       style="fill:#ff0000;fill-opacity:0.5;fill-rule:nonzero;stroke:#000000;stroke-width:1;stroke-linecap:butt;stroke-linejoin:miter;stroke-miterlimit:10;stroke-dasharray:none;stroke-opacity:0.5"
       transform="matrix(1.3333333,0,0,-1.3333333,0,398.37167)"
       clip-path="url(#clipPath38)" />
    <path
       id="path39"
       d="m 338.24707,76.2625 h 16.36199 v 6.465638 h -16.36199 z"
       style="fill:#ff0000;fill-opacity:0.5;fill-rule:nonzero;stroke:#000000;stroke-width:1;stroke-linecap:butt;stroke-linejoin:miter;stroke-miterlimit:10;stroke-dasharray:none;stroke-opacity:0.5"
       transform="matrix(1.3333333,0,0,-1.3333333,0,398.37167)"
       clip-path="url(#clipPath40)" />
    <path
       id="path41"
       d="m 354.60906,76.2625 h 16.36199 v 3.820655 h -16.36199 z"
       style="fill:#ff0000;fill-opacity:0.5;fill-rule:nonzero;stroke:#000000;stroke-width:1;stroke-linecap:butt;stroke-linejoin:miter;stroke-miterlimit:10;stroke-dasharray:none;stroke-opacity:0.5"
       transform="matrix(1.3333333,0,0,-1.3333333,0,398.37167)"
       clip-path="url(#clipPath42)" />
    <path
       id="path43"
       d="m 370.97105,76.2625 h 16.36199 v 1.606714 h -16.36199 z"
       style="fill:#ff0000;fill-opacity:0.5;fill-rule:nonzero;stroke:#000000;stroke-width:1;stroke-linecap:butt;stroke-linejoin:miter;stroke-miterlimit:10;stroke-dasharray:none;stroke-opacity:0.5"
       transform="matrix(1.3333333,0,0,-1.3333333,0,398.37167)"
       clip-path="url(#clipPath44)" />
    <path
       id="path45"
       d="m 387.33304,76.2625 h 16.36199 v 0.894219 h -16.36199 z"
       style="fill:#ff0000;fill-opacity:0.5;fill-rule:nonzero;stroke:#000000;stroke-width:1;stroke-linecap:butt;stroke-linejoin:miter;stroke-miterlimit:10;stroke-dasharray:none;stroke-opacity:0.5"
       transform="matrix(1.3333333,0,0,-1.3333333,0,398.37167)"
       clip-path="url(#clipPath46)" />
    <path
       id="path83"
       d="m 43.73125,76.2625 h 16.36199 v 38.95574 H 43.73125 Z"
       style="fill:#0000ff;fill-opacity:0.5;fill-rule:nonzero;stroke:#000000;stroke-width:1;stroke-linecap:butt;stroke-linejoin:miter;stroke-miterlimit:10;stroke-dasharray:none;stroke-opacity:0.5"
       transform="matrix(1.3333333,0,0,-1.3333333,0,398.37167)"
       clip-path="url(#clipPath84)" />
    <path
       id="path85"
       d="M 60.09324,76.2625 H 76.45523 V 275.61488 H 60.09324 Z"
       style="fill:#0000ff;fill-opacity:0.5;fill-rule:nonzero;stroke:#000000;stroke-width:1;stroke-linecap:butt;stroke-linejoin:miter;stroke-miterlimit:10;stroke-dasharray:none;stroke-opacity:0.5"
       transform="matrix(1.3333333,0,0,-1.3333333,0,398.37167)"
       clip-path="url(#clipPath86)" />
    <path
       id="path87"
       d="M 76.45523,76.2625 H 92.81722 V 223.69479 H 76.45523 Z"
       style="fill:#0000ff;fill-opacity:0.5;fill-rule:nonzero;stroke:#000000;stroke-width:1;stroke-linecap:butt;stroke-linejoin:miter;stroke-miterlimit:10;stroke-dasharray:none;stroke-opacity:0.5"
       transform="matrix(1.3333333,0,0,-1.3333333,0,398.37167)"
       clip-path="url(#clipPath88)" />
    <path
       id="path89"
       d="m 92.81722,76.2625 h 16.36199 v 41.74829 H 92.81722 Z"
       style="fill:#0000ff;fill-opacity:0.5;fill-rule:nonzero;stroke:#000000;stroke-width:1;stroke-linecap:butt;stroke-linejoin:miter;stroke-miterlimit:10;stroke-dasharray:none;stroke-opacity:0.5"
       transform="matrix(1.3333333,0,0,-1.3333333,0,398.37167)"
       clip-path="url(#clipPath90)" />
    <path
       id="path91"
       d="m 109.17921,76.2625 h 16.36199 v 26.203 h -16.36199 z"
       style="fill:#0000ff;fill-opacity:0.5;fill-rule:nonzero;stroke:#000000;stroke-width:1;stroke-linecap:butt;stroke-linejoin:miter;stroke-miterlimit:10;stroke-dasharray:none;stroke-opacity:0.5"
       transform="matrix(1.3333333,0,0,-1.3333333,0,398.37167)"
       clip-path="url(#clipPath92)" />
    <path
       id="path93"
       d="m 125.5412,76.2625 h 16.36199 V 87.475808 H 125.5412 Z"
       style="fill:#0000ff;fill-opacity:0.5;fill-rule:nonzero;stroke:#000000;stroke-width:1;stroke-linecap:butt;stroke-linejoin:miter;stroke-miterlimit:10;stroke-dasharray:none;stroke-opacity:0.5"
       transform="matrix(1.3333333,0,0,-1.3333333,0,398.37167)"
       clip-path="url(#clipPath94)" />
    <path
       id="path95"
       d="m 141.90319,76.2625 h 16.36199 v 12.549659 h -16.36199 z"
       style="fill:#0000ff;fill-opacity:0.5;fill-rule:nonzero;stroke:#000000;stroke-width:1;stroke-linecap:butt;stroke-linejoin:miter;stroke-miterlimit:10;stroke-dasharray:none;stroke-opacity:0.5"
       transform="matrix(1.3333333,0,0,-1.3333333,0,398.37167)"
       clip-path="url(#clipPath96)" />
    <path
       id="path97"
       d="m 158.26518,76.2625 h 16.36199 v 16.746751 h -16.36199 z"
       style="fill:#0000ff;fill-opacity:0.5;fill-rule:nonzero;stroke:#000000;stroke-width:1;stroke-linecap:butt;stroke-linejoin:miter;stroke-miterlimit:10;stroke-dasharray:none;stroke-opacity:0.5"
       transform="matrix(1.3333333,0,0,-1.3333333,0,398.37167)"
       clip-path="url(#clipPath98)" />
    <path
       id="path99"
       d="m 174.62717,76.2625 h 16.36199 v 8.389673 h -16.36199 z"
       style="fill:#0000ff;fill-opacity:0.5;fill-rule:nonzero;stroke:#000000;stroke-width:1;stroke-linecap:butt;stroke-linejoin:miter;stroke-miterlimit:10;stroke-dasharray:none;stroke-opacity:0.5"
       transform="matrix(1.3333333,0,0,-1.3333333,0,398.37167)"
       clip-path="url(#clipPath100)" />
    <path
       id="path101"
       d="m 190.98916,76.2625 h 16.36199 v 2.251989 h -16.36199 z"
       style="fill:#0000ff;fill-opacity:0.5;fill-rule:nonzero;stroke:#000000;stroke-width:1;stroke-linecap:butt;stroke-linejoin:miter;stroke-miterlimit:10;stroke-dasharray:none;stroke-opacity:0.5"
       transform="matrix(1.3333333,0,0,-1.3333333,0,398.37167)"
       clip-path="url(#clipPath102)" />
    <path
       id="path103"
       d="m 207.35115,76.2625 h 16.36199 v 0.732109 h -16.36199 z"
       style="fill:#0000ff;fill-opacity:0.5;fill-rule:nonzero;stroke:#000000;stroke-width:1;stroke-linecap:butt;stroke-linejoin:miter;stroke-miterlimit:10;stroke-dasharray:none;stroke-opacity:0.5"
       transform="matrix(1.3333333,0,0,-1.3333333,0,398.37167)"
       clip-path="url(#clipPath104)" />
    <path
       id="path105"
       d="m 223.71314,76.2625 h 16.36199 v 0.469854 h -16.36199 z"
       style="fill:#0000ff;fill-opacity:0.5;fill-rule:nonzero;stroke:#000000;stroke-width:1;stroke-linecap:butt;stroke-linejoin:miter;stroke-miterlimit:10;stroke-dasharray:none;stroke-opacity:0.5"
       transform="matrix(1.3333333,0,0,-1.3333333,0,398.37167)"
       clip-path="url(#clipPath106)" />
    <path
       id="path107"
       d="m 240.07513,76.2625 h 16.36199 v 0.185535 h -16.36199 z"
       style="fill:#0000ff;fill-opacity:0.5;fill-rule:nonzero;stroke:#000000;stroke-width:1;stroke-linecap:butt;stroke-linejoin:miter;stroke-miterlimit:10;stroke-dasharray:none;stroke-opacity:0.5"
       transform="matrix(1.3333333,0,0,-1.3333333,0,398.37167)"
       clip-path="url(#clipPath108)" />
    <path
       id="path109"
       d="m 256.43712,76.2625 h 16.36199 v 0.323432 h -16.36199 z"
       style="fill:#0000ff;fill-opacity:0.5;fill-rule:nonzero;stroke:#000000;stroke-width:1;stroke-linecap:butt;stroke-linejoin:miter;stroke-miterlimit:10;stroke-dasharray:none;stroke-opacity:0.5"
       transform="matrix(1.3333333,0,0,-1.3333333,0,398.37167)"
       clip-path="url(#clipPath110)" />
    <path
       id="path111"
       d="m 272.79911,76.2625 h 16.36199 v 0.175004 h -16.36199 z"
       style="fill:#0000ff;fill-opacity:0.5;fill-rule:nonzero;stroke:#000000;stroke-width:1;stroke-linecap:butt;stroke-linejoin:miter;stroke-miterlimit:10;stroke-dasharray:none;stroke-opacity:0.5"
       transform="matrix(1.3333333,0,0,-1.3333333,0,398.37167)"
       clip-path="url(#clipPath112)" />
    <path
       id="path113"
       d="m 289.1611,76.2625 h 16.36199 v 0.182526 H 289.1611 Z"
       style="fill:#0000ff;fill-opacity:0.5;fill-rule:nonzero;stroke:#000000;stroke-width:1;stroke-linecap:butt;stroke-linejoin:miter;stroke-miterlimit:10;stroke-dasharray:none;stroke-opacity:0.5"
       transform="matrix(1.3333333,0,0,-1.3333333,0,398.37167)"
       clip-path="url(#clipPath114)" />
    <path
       id="path115"
       d="m 305.52309,76.2625 h 16.36199 v 0.259748 h -16.36199 z"
       style="fill:#0000ff;fill-opacity:0.5;fill-rule:nonzero;stroke:#000000;stroke-width:1;stroke-linecap:butt;stroke-linejoin:miter;stroke-miterlimit:10;stroke-dasharray:none;stroke-opacity:0.5"
       transform="matrix(1.3333333,0,0,-1.3333333,0,398.37167)"
       clip-path="url(#clipPath116)" />
    <path
       id="path117"
       d="m 321.88508,76.2625 h 16.36199 v 0.1735 h -16.36199 z"
       style="fill:#0000ff;fill-opacity:0.5;fill-rule:nonzero;stroke:#000000;stroke-width:1;stroke-linecap:butt;stroke-linejoin:miter;stroke-miterlimit:10;stroke-dasharray:none;stroke-opacity:0.5"
       transform="matrix(1.3333333,0,0,-1.3333333,0,398.37167)"
       clip-path="url(#clipPath118)" />
    <path
       id="path119"
       d="m 338.24707,76.2625 h 16.36199 v 0.124358 h -16.36199 z"
       style="fill:#0000ff;fill-opacity:0.5;fill-rule:nonzero;stroke:#000000;stroke-width:1;stroke-linecap:butt;stroke-linejoin:miter;stroke-miterlimit:10;stroke-dasharray:none;stroke-opacity:0.5"
       transform="matrix(1.3333333,0,0,-1.3333333,0,398.37167)"
       clip-path="url(#clipPath120)" />
    <path
       id="path121"
       d="m 354.60906,76.2625 h 16.36199 v 0.201581 h -16.36199 z"
       style="fill:#0000ff;fill-opacity:0.5;fill-rule:nonzero;stroke:#000000;stroke-width:1;stroke-linecap:butt;stroke-linejoin:miter;stroke-miterlimit:10;stroke-dasharray:none;stroke-opacity:0.5"
       transform="matrix(1.3333333,0,0,-1.3333333,0,398.37167)"
       clip-path="url(#clipPath122)" />
    <path
       id="path123"
       d="m 370.97105,76.2625 h 16.36199 v 0.103298 h -16.36199 z"
       style="fill:#0000ff;fill-opacity:0.5;fill-rule:nonzero;stroke:#000000;stroke-width:1;stroke-linecap:butt;stroke-linejoin:miter;stroke-miterlimit:10;stroke-dasharray:none;stroke-opacity:0.5"
       transform="matrix(1.3333333,0,0,-1.3333333,0,398.37167)"
       clip-path="url(#clipPath124)" />
    <path
       id="path125"
       d="m 387.33304,76.2625 h 16.36199 v 0.01354 h -16.36199 z"
       style="fill:#0000ff;fill-opacity:0.5;fill-rule:nonzero;stroke:#000000;stroke-width:1;stroke-linecap:butt;stroke-linejoin:miter;stroke-miterlimit:10;stroke-dasharray:none;stroke-opacity:0.5"
       transform="matrix(1.3333333,0,0,-1.3333333,0,398.37167)"
       clip-path="url(#clipPath126)" />
    <path
       id="path163"
       d="M 43.73125,76.2625 H 60.09324 V 104.829 H 43.73125 Z"
       style="fill:#008000;fill-opacity:0.5;fill-rule:nonzero;stroke:#000000;stroke-width:1;stroke-linecap:butt;stroke-linejoin:miter;stroke-miterlimit:10;stroke-dasharray:none;stroke-opacity:0.5"
       transform="matrix(1.3333333,0,0,-1.3333333,0,398.37167)"
       clip-path="url(#clipPath164)" />
    <path
       id="path165"
       d="M 60.09324,76.2625 H 76.45523 V 238.80891 H 60.09324 Z"
       style="fill:#008000;fill-opacity:0.5;fill-rule:nonzero;stroke:#000000;stroke-width:1;stroke-linecap:butt;stroke-linejoin:miter;stroke-miterlimit:10;stroke-dasharray:none;stroke-opacity:0.5"
       transform="matrix(1.3333333,0,0,-1.3333333,0,398.37167)"
       clip-path="url(#clipPath166)" />
    <path
       id="path167"
       d="M 76.45523,76.2625 H 92.81722 V 202.53046 H 76.45523 Z"
       style="fill:#008000;fill-opacity:0.5;fill-rule:nonzero;stroke:#000000;stroke-width:1;stroke-linecap:butt;stroke-linejoin:miter;stroke-miterlimit:10;stroke-dasharray:none;stroke-opacity:0.5"
       transform="matrix(1.3333333,0,0,-1.3333333,0,398.37167)"
       clip-path="url(#clipPath168)" />
    <path
       id="path169"
       d="m 92.81722,76.2625 h 16.36199 v 88.08327 H 92.81722 Z"
       style="fill:#008000;fill-opacity:0.5;fill-rule:nonzero;stroke:#000000;stroke-width:1;stroke-linecap:butt;stroke-linejoin:miter;stroke-miterlimit:10;stroke-dasharray:none;stroke-opacity:0.5"
       transform="matrix(1.3333333,0,0,-1.3333333,0,398.37167)"
       clip-path="url(#clipPath170)" />
    <path
       id="path171"
       d="m 109.17921,76.2625 h 16.36199 v 43.05662 h -16.36199 z"
       style="fill:#008000;fill-opacity:0.5;fill-rule:nonzero;stroke:#000000;stroke-width:1;stroke-linecap:butt;stroke-linejoin:miter;stroke-miterlimit:10;stroke-dasharray:none;stroke-opacity:0.5"
       transform="matrix(1.3333333,0,0,-1.3333333,0,398.37167)"
       clip-path="url(#clipPath172)" />
    <path
       id="path173"
       d="m 125.5412,76.2625 h 16.36199 v 27.13779 H 125.5412 Z"
       style="fill:#008000;fill-opacity:0.5;fill-rule:nonzero;stroke:#000000;stroke-width:1;stroke-linecap:butt;stroke-linejoin:miter;stroke-miterlimit:10;stroke-dasharray:none;stroke-opacity:0.5"
       transform="matrix(1.3333333,0,0,-1.3333333,0,398.37167)"
       clip-path="url(#clipPath174)" />
    <path
       id="path175"
       d="m 141.90319,76.2625 h 16.36199 v 14.677645 h -16.36199 z"
       style="fill:#008000;fill-opacity:0.5;fill-rule:nonzero;stroke:#000000;stroke-width:1;stroke-linecap:butt;stroke-linejoin:miter;stroke-miterlimit:10;stroke-dasharray:none;stroke-opacity:0.5"
       transform="matrix(1.3333333,0,0,-1.3333333,0,398.37167)"
       clip-path="url(#clipPath176)" />
    <path
       id="path177"
       d="m 158.26518,76.2625 h 16.36199 v 6.434036 h -16.36199 z"
       style="fill:#008000;fill-opacity:0.5;fill-rule:nonzero;stroke:#000000;stroke-width:1;stroke-linecap:butt;stroke-linejoin:miter;stroke-miterlimit:10;stroke-dasharray:none;stroke-opacity:0.5"
       transform="matrix(1.3333333,0,0,-1.3333333,0,398.37167)"
       clip-path="url(#clipPath178)" />
    <path
       id="path179"
       d="m 174.62717,76.2625 h 16.36199 v 4.319001 h -16.36199 z"
       style="fill:#008000;fill-opacity:0.5;fill-rule:nonzero;stroke:#000000;stroke-width:1;stroke-linecap:butt;stroke-linejoin:miter;stroke-miterlimit:10;stroke-dasharray:none;stroke-opacity:0.5"
       transform="matrix(1.3333333,0,0,-1.3333333,0,398.37167)"
       clip-path="url(#clipPath180)" />
    <path
       id="path181"
       d="m 190.98916,76.2625 h 16.36199 v 3.184152 h -16.36199 z"
       style="fill:#008000;fill-opacity:0.5;fill-rule:nonzero;stroke:#000000;stroke-width:1;stroke-linecap:butt;stroke-linejoin:miter;stroke-miterlimit:10;stroke-dasharray:none;stroke-opacity:0.5"
       transform="matrix(1.3333333,0,0,-1.3333333,0,398.37167)"
       clip-path="url(#clipPath182)" />
    <path
       id="path183"
       d="m 207.35115,76.2625 h 16.36199 v 1.697441 h -16.36199 z"
       style="fill:#008000;fill-opacity:0.5;fill-rule:nonzero;stroke:#000000;stroke-width:1;stroke-linecap:butt;stroke-linejoin:miter;stroke-miterlimit:10;stroke-dasharray:none;stroke-opacity:0.5"
       transform="matrix(1.3333333,0,0,-1.3333333,0,398.37167)"
       clip-path="url(#clipPath184)" />
    <path
       id="path185"
       d="m 223.71314,76.2625 h 16.36199 v 1.196715 h -16.36199 z"
       style="fill:#008000;fill-opacity:0.5;fill-rule:nonzero;stroke:#000000;stroke-width:1;stroke-linecap:butt;stroke-linejoin:miter;stroke-miterlimit:10;stroke-dasharray:none;stroke-opacity:0.5"
       transform="matrix(1.3333333,0,0,-1.3333333,0,398.37167)"
       clip-path="url(#clipPath186)" />
    <path
       id="path187"
       d="m 240.07513,76.2625 h 16.36199 v 0.272596 h -16.36199 z"
       style="fill:#008000;fill-opacity:0.5;fill-rule:nonzero;stroke:#000000;stroke-width:1;stroke-linecap:butt;stroke-linejoin:miter;stroke-miterlimit:10;stroke-dasharray:none;stroke-opacity:0.5"
       transform="matrix(1.3333333,0,0,-1.3333333,0,398.37167)"
       clip-path="url(#clipPath188)" />
    <path
       id="path189"
       d="m 256.43712,76.2625 h 16.36199 v 0.127598 h -16.36199 z"
       style="fill:#008000;fill-opacity:0.5;fill-rule:nonzero;stroke:#000000;stroke-width:1;stroke-linecap:butt;stroke-linejoin:miter;stroke-miterlimit:10;stroke-dasharray:none;stroke-opacity:0.5"
       transform="matrix(1.3333333,0,0,-1.3333333,0,398.37167)"
       clip-path="url(#clipPath190)" />
    <path
       id="path191"
       d="m 272.79911,76.2625 h 16.36199 v 0.0928 h -16.36199 z"
       style="fill:#008000;fill-opacity:0.5;fill-rule:nonzero;stroke:#000000;stroke-width:1;stroke-linecap:butt;stroke-linejoin:miter;stroke-miterlimit:10;stroke-dasharray:none;stroke-opacity:0.5"
       transform="matrix(1.3333333,0,0,-1.3333333,0,398.37167)"
       clip-path="url(#clipPath192)" />
    <path
       id="path193"
       d="m 289.1611,76.2625 h 16.36199 v 0.08313 H 289.1611 Z"
       style="fill:#008000;fill-opacity:0.5;fill-rule:nonzero;stroke:#000000;stroke-width:1;stroke-linecap:butt;stroke-linejoin:miter;stroke-miterlimit:10;stroke-dasharray:none;stroke-opacity:0.5"
       transform="matrix(1.3333333,0,0,-1.3333333,0,398.37167)"
       clip-path="url(#clipPath194)" />
    <path
       id="path195"
       d="m 305.52309,76.2625 h 16.36199 v 0.04447 h -16.36199 z"
       style="fill:#008000;fill-opacity:0.5;fill-rule:nonzero;stroke:#000000;stroke-width:1;stroke-linecap:butt;stroke-linejoin:miter;stroke-miterlimit:10;stroke-dasharray:none;stroke-opacity:0.5"
       transform="matrix(1.3333333,0,0,-1.3333333,0,398.37167)"
       clip-path="url(#clipPath196)" />
    <path
       id="path197"
       d="m 321.88508,76.2625 h 16.36199 v 0.01547 h -16.36199 z"
       style="fill:#008000;fill-opacity:0.5;fill-rule:nonzero;stroke:#000000;stroke-width:1;stroke-linecap:butt;stroke-linejoin:miter;stroke-miterlimit:10;stroke-dasharray:none;stroke-opacity:0.5"
       transform="matrix(1.3333333,0,0,-1.3333333,0,398.37167)"
       clip-path="url(#clipPath198)" />
    <path
       id="path199"
       d="m 338.24707,76.2625 h 16.36199 v 0 z"
       style="fill:#008000;fill-opacity:0.5;fill-rule:nonzero;stroke:#000000;stroke-width:1;stroke-linecap:butt;stroke-linejoin:miter;stroke-miterlimit:10;stroke-dasharray:none;stroke-opacity:0.5"
       transform="matrix(1.3333333,0,0,-1.3333333,0,398.37167)"
       clip-path="url(#clipPath200)" />
    <path
       id="path201"
       d="m 354.60906,76.2625 h 16.36199 v 0 z"
       style="fill:#008000;fill-opacity:0.5;fill-rule:nonzero;stroke:#000000;stroke-width:1;stroke-linecap:butt;stroke-linejoin:miter;stroke-miterlimit:10;stroke-dasharray:none;stroke-opacity:0.5"
       transform="matrix(1.3333333,0,0,-1.3333333,0,398.37167)"
       clip-path="url(#clipPath202)" />
    <path
       id="path203"
       d="m 370.97105,76.2625 h 16.36199 v 0 z"
       style="fill:#008000;fill-opacity:0.5;fill-rule:nonzero;stroke:#000000;stroke-width:1;stroke-linecap:butt;stroke-linejoin:miter;stroke-miterlimit:10;stroke-dasharray:none;stroke-opacity:0.5"
       transform="matrix(1.3333333,0,0,-1.3333333,0,398.37167)"
       clip-path="url(#clipPath204)" />
    <path
       id="path205"
       d="m 387.33304,76.2625 h 16.36199 v 0 z"
       style="fill:#008000;fill-opacity:0.5;fill-rule:nonzero;stroke:#000000;stroke-width:1;stroke-linecap:butt;stroke-linejoin:miter;stroke-miterlimit:10;stroke-dasharray:none;stroke-opacity:0.5"
       transform="matrix(1.3333333,0,0,-1.3333333,0,398.37167)"
       clip-path="url(#clipPath206)" />
    <path
       id="path243"
       d="m 43.73125,76.2625 v -3.5"
       style="fill:#000000;fill-opacity:1;fill-rule:nonzero;stroke:#000000;stroke-width:0.8;stroke-linecap:butt;stroke-linejoin:round;stroke-miterlimit:10;stroke-dasharray:none;stroke-opacity:1"
       transform="matrix(1.3333333,0,0,-1.3333333,0,398.37167)" />
    <text
       id="text243"
       xml:space="preserve"
       transform="matrix(1.3333333,0,0,1.3333333,45.579167,336.4175)"><tspan
         style="font-variant:normal;font-weight:normal;font-size:30px;font-family:'DejaVu Sans';writing-mode:lr-tb;fill:#000000;fill-opacity:1;fill-rule:nonzero;stroke:none"
         x="0"
         y="0"
         id="tspan243">0</tspan></text>
    <path
       id="path244"
       d="m 171.68125,76.2625 v -3.5"
       style="fill:#000000;fill-opacity:1;fill-rule:nonzero;stroke:#000000;stroke-width:0.8;stroke-linecap:butt;stroke-linejoin:round;stroke-miterlimit:10;stroke-dasharray:none;stroke-opacity:1"
       transform="matrix(1.3333333,0,0,-1.3333333,0,398.37167)" />
    <text
       id="text244"
       xml:space="preserve"
       transform="matrix(1.3333333,0,0,1.3333333,190.72083,336.4175)"><tspan
         style="font-variant:normal;font-weight:normal;font-size:30px;font-family:'DejaVu Sans';writing-mode:lr-tb;fill:#000000;fill-opacity:1;fill-rule:nonzero;stroke:none"
         x="0 19.08 38.16"
         y="0"
         sodipodi:role="line"
         id="tspan244">250</tspan></text>
    <path
       id="path245"
       d="m 299.63125,76.2625 v -3.5"
       style="fill:#000000;fill-opacity:1;fill-rule:nonzero;stroke:#000000;stroke-width:0.8;stroke-linecap:butt;stroke-linejoin:round;stroke-miterlimit:10;stroke-dasharray:none;stroke-opacity:1"
       transform="matrix(1.3333333,0,0,-1.3333333,0,398.37167)" />
    <text
       id="text245"
       xml:space="preserve"
       transform="matrix(1.3333333,0,0,1.3333333,361.32083,336.4175)"><tspan
         style="font-variant:normal;font-weight:normal;font-size:30px;font-family:'DejaVu Sans';writing-mode:lr-tb;fill:#000000;fill-opacity:1;fill-rule:nonzero;stroke:none"
         x="0 19.08 38.16"
         y="0"
         sodipodi:role="line"
         id="tspan245">500</tspan></text>
    <text
       id="text246"
       xml:space="preserve"
       transform="matrix(1.3333333,0,0,1.3333333,70.97125,380.45917)"><tspan
         style="font-variant:normal;font-weight:normal;font-size:30px;font-family:'DejaVu Sans';writing-mode:lr-tb;fill:#000000;fill-opacity:1;fill-rule:nonzero;stroke:none"
         x="0 19.08 42.18 51.720001 72.300003 92.879997 110.31812 128.07812 137.61812 160.17813 178.62813 186.96812 206.01813 225.03813 236.79813 246.33812 258.03812 275.47186 283.81189 300.64999 319.10001 327.44"
         y="0"
         sodipodi:role="line"
         id="tspan246">2D BBox Height [Pixel]</tspan></text>
    <text
       id="text247"
       xml:space="preserve"
       transform="matrix(0,-1.3333333,1.3333333,0,39.995833,304.68333)"><tspan
         style="font-variant:normal;font-weight:normal;font-size:30px;font-family:'DejaVu Sans';writing-mode:lr-tb;fill:#000000;fill-opacity:1;fill-rule:nonzero;stroke:none"
         x="0 23.610001 42.66 51 69.449997 85.949997 97.709999 107.25 130.35001 148.8 167.82001 183.45 191.78999 203.55"
         y="0"
         sodipodi:role="line"
         id="tspan247">Object Density</tspan></text>
    <path
       id="path249"
       d="m 43.73125,76.2625 h 358.26"
       style="fill:none;stroke:#000000;stroke-width:0.8;stroke-linecap:square;stroke-linejoin:miter;stroke-miterlimit:10;stroke-dasharray:none;stroke-opacity:1"
       transform="matrix(1.3333333,0,0,-1.3333333,0,398.37167)" />
    <path
       id="path251"
       d="m 167.46,129.48875 h 213.53125 c 4,0 6,2 6,6 V 264.5825 c 0,4 -2,6 -6,6 H 167.46 c -4,0 -6,-2 -6,-6 V 135.48875 c 0,-4 2,-6 6,-6 z"
       style="fill:#ffffff;fill-opacity:0.8;fill-rule:nonzero;stroke:#cccccc;stroke-width:1;stroke-linecap:butt;stroke-linejoin:miter;stroke-miterlimit:10;stroke-dasharray:none;stroke-opacity:0.8"
       transform="matrix(1.3333333,0,0,-1.3333333,0,398.37167)" />
    <path
       id="path252"
       d="m 173.46,235.78562 h 60 v 21 h -60 z"
       style="fill:#ff0000;fill-opacity:0.5;fill-rule:nonzero;stroke:#000000;stroke-width:1;stroke-linecap:butt;stroke-linejoin:miter;stroke-miterlimit:10;stroke-dasharray:none;stroke-opacity:0.5"
       transform="matrix(1.3333333,0,0,-1.3333333,0,398.37167)" />
    <text
       id="text252"
       xml:space="preserve"
       transform="matrix(1.3333333,0,0,1.3333333,343.28,83.990833)"><tspan
         style="font-variant:normal;font-weight:normal;font-size:30px;font-family:'DejaVu Sans';writing-mode:lr-tb;fill:#000000;fill-opacity:1;fill-rule:nonzero;stroke:none"
         x="0 27.76375 46.153751 63.91375 93.133751"
         y="0"
         sodipodi:role="line"
         id="tspan252">Waymo</tspan></text>
    <path
       id="path253"
       d="m 173.46,191.75437 h 60 v 21 h -60 z"
       style="fill:#0000ff;fill-opacity:0.5;fill-rule:nonzero;stroke:#000000;stroke-width:1;stroke-linecap:butt;stroke-linejoin:miter;stroke-miterlimit:10;stroke-dasharray:none;stroke-opacity:0.5"
       transform="matrix(1.3333333,0,0,-1.3333333,0,398.37167)" />
    <text
       id="text253"
       xml:space="preserve"
       transform="matrix(1.3333333,0,0,1.3333333,343.28,142.69917)"><tspan
         style="font-variant:normal;font-weight:normal;font-size:30px;font-family:'DejaVu Sans';writing-mode:lr-tb;fill:#000000;fill-opacity:1;fill-rule:nonzero;stroke:none"
         x="0 19.50625 37.866249 56.916248 75.366249 94.446251"
         y="0"
         sodipodi:role="line"
         id="tspan253">Rope3D</tspan></text>
    <path
       id="path254"
       d="m 173.46,147.72312 h 60 v 21 h -60 z"
       style="fill:#008000;fill-opacity:0.5;fill-rule:nonzero;stroke:#000000;stroke-width:1;stroke-linecap:butt;stroke-linejoin:miter;stroke-miterlimit:10;stroke-dasharray:none;stroke-opacity:0.5"
       transform="matrix(1.3333333,0,0,-1.3333333,0,398.37167)" />
    <text
       id="text254"
       xml:space="preserve"
       transform="matrix(1.3333333,0,0,1.3333333,343.28,201.4075)"><tspan
         style="font-variant:normal;font-weight:normal;font-size:30px;font-family:'DejaVu Sans';writing-mode:lr-tb;fill:#000000;fill-opacity:1;fill-rule:nonzero;stroke:none"
         x="0 20.940001 44.040001 55.713749 74.073753 93.09375"
         y="0"
         sodipodi:role="line"
         id="tspan254">CDrone</tspan></text>
  </g>
</svg>
