<?xml version="1.0" encoding="utf-8" standalone="no"?>
<!DOCTYPE svg PUBLIC "-//W3C//DTD SVG 1.1//EN"
  "http://www.w3.org/Graphics/SVG/1.1/DTD/svg11.dtd">
<svg xmlns:xlink="http://www.w3.org/1999/xlink" width="435.156654pt" height="311.190625pt" viewBox="0 0 435.156654 311.190625" xmlns="http://www.w3.org/2000/svg" version="1.1">
 <metadata>
  <rdf:RDF xmlns:dc="http://purl.org/dc/elements/1.1/" xmlns:cc="http://creativecommons.org/ns#" xmlns:rdf="http://www.w3.org/1999/02/22-rdf-syntax-ns#">
   <cc:Work>
    <dc:type rdf:resource="http://purl.org/dc/dcmitype/StillImage"/>
    <dc:date>2024-08-16T18:49:23.533547</dc:date>
    <dc:format>image/svg+xml</dc:format>
    <dc:creator>
     <cc:Agent>
      <dc:title>Matplotlib v3.7.3, https://matplotlib.org/</dc:title>
     </cc:Agent>
    </dc:creator>
   </cc:Work>
  </rdf:RDF>
 </metadata>
 <defs>
  <style type="text/css">*{stroke-linejoin: round; stroke-linecap: butt}</style>
 </defs>
 <g id="figure_1">
  <g id="patch_1">
   <path d="M 0 311.190625 
L 435.156654 311.190625 
L 435.156654 0 
L 0 0 
z
" style="fill: #ffffff"/>
  </g>
  <g id="axes_1">
   <g id="patch_2">
    <path d="M 35.395313 244.6 
L 427.956654 244.6 
L 427.956654 7.2 
L 35.395313 7.2 
z
" style="fill: #ffffff"/>
   </g>
   <g id="patch_3">
    <path d="M 35.395313 244.6 
L 48.496621 244.6 
L 48.496621 227.412727 
L 35.395313 227.412727 
z
" clip-path="url(#p1ecd7a2a79)" style="fill: #ff0000; opacity: 0.5; stroke: #000000; stroke-linejoin: miter"/>
   </g>
   <g id="patch_4">
    <path d="M 48.496621 244.6 
L 61.597929 244.6 
L 61.597929 175.088215 
L 48.496621 175.088215 
z
" clip-path="url(#p1ecd7a2a79)" style="fill: #ff0000; opacity: 0.5; stroke: #000000; stroke-linejoin: miter"/>
   </g>
   <g id="patch_5">
    <path d="M 61.597929 244.6 
L 74.699237 244.6 
L 74.699237 144.533411 
L 61.597929 144.533411 
z
" clip-path="url(#p1ecd7a2a79)" style="fill: #ff0000; opacity: 0.5; stroke: #000000; stroke-linejoin: miter"/>
   </g>
   <g id="patch_6">
    <path d="M 74.699237 244.6 
L 87.800545 244.6 
L 87.800545 153.947806 
L 74.699237 153.947806 
z
" clip-path="url(#p1ecd7a2a79)" style="fill: #ff0000; opacity: 0.5; stroke: #000000; stroke-linejoin: miter"/>
   </g>
   <g id="patch_7">
    <path d="M 87.800545 244.6 
L 100.901853 244.6 
L 100.901853 160.893649 
L 87.800545 160.893649 
z
" clip-path="url(#p1ecd7a2a79)" style="fill: #ff0000; opacity: 0.5; stroke: #000000; stroke-linejoin: miter"/>
   </g>
   <g id="patch_8">
    <path d="M 100.901853 244.6 
L 114.003161 244.6 
L 114.003161 173.041812 
L 100.901853 173.041812 
z
" clip-path="url(#p1ecd7a2a79)" style="fill: #ff0000; opacity: 0.5; stroke: #000000; stroke-linejoin: miter"/>
   </g>
   <g id="patch_9">
    <path d="M 114.003161 244.6 
L 127.104469 244.6 
L 127.104469 187.95356 
L 114.003161 187.95356 
z
" clip-path="url(#p1ecd7a2a79)" style="fill: #ff0000; opacity: 0.5; stroke: #000000; stroke-linejoin: miter"/>
   </g>
   <g id="patch_10">
    <path d="M 127.104469 244.6 
L 140.205777 244.6 
L 140.205777 200.406173 
L 127.104469 200.406173 
z
" clip-path="url(#p1ecd7a2a79)" style="fill: #ff0000; opacity: 0.5; stroke: #000000; stroke-linejoin: miter"/>
   </g>
   <g id="patch_11">
    <path d="M 140.205777 244.6 
L 153.307085 244.6 
L 153.307085 206.324106 
L 140.205777 206.324106 
z
" clip-path="url(#p1ecd7a2a79)" style="fill: #ff0000; opacity: 0.5; stroke: #000000; stroke-linejoin: miter"/>
   </g>
   <g id="patch_12">
    <path d="M 153.307085 244.6 
L 166.408393 244.6 
L 166.408393 214.227239 
L 153.307085 214.227239 
z
" clip-path="url(#p1ecd7a2a79)" style="fill: #ff0000; opacity: 0.5; stroke: #000000; stroke-linejoin: miter"/>
   </g>
   <g id="patch_13">
    <path d="M 166.408393 244.6 
L 179.509701 244.6 
L 179.509701 221.563844 
L 166.408393 221.563844 
z
" clip-path="url(#p1ecd7a2a79)" style="fill: #ff0000; opacity: 0.5; stroke: #000000; stroke-linejoin: miter"/>
   </g>
   <g id="patch_14">
    <path d="M 179.509701 244.6 
L 192.611009 244.6 
L 192.611009 226.640618 
L 179.509701 226.640618 
z
" clip-path="url(#p1ecd7a2a79)" style="fill: #ff0000; opacity: 0.5; stroke: #000000; stroke-linejoin: miter"/>
   </g>
   <g id="patch_15">
    <path d="M 192.611009 244.6 
L 205.712317 244.6 
L 205.712317 230.002117 
L 192.611009 230.002117 
z
" clip-path="url(#p1ecd7a2a79)" style="fill: #ff0000; opacity: 0.5; stroke: #000000; stroke-linejoin: miter"/>
   </g>
   <g id="patch_16">
    <path d="M 205.712317 244.6 
L 218.813625 244.6 
L 218.813625 231.414512 
L 205.712317 231.414512 
z
" clip-path="url(#p1ecd7a2a79)" style="fill: #ff0000; opacity: 0.5; stroke: #000000; stroke-linejoin: miter"/>
   </g>
   <g id="patch_17">
    <path d="M 218.813625 244.6 
L 231.914934 244.6 
L 231.914934 233.013656 
L 218.813625 233.013656 
z
" clip-path="url(#p1ecd7a2a79)" style="fill: #ff0000; opacity: 0.5; stroke: #000000; stroke-linejoin: miter"/>
   </g>
   <g id="patch_18">
    <path d="M 231.914934 244.6 
L 245.016242 244.6 
L 245.016242 235.351954 
L 231.914934 235.351954 
z
" clip-path="url(#p1ecd7a2a79)" style="fill: #ff0000; opacity: 0.5; stroke: #000000; stroke-linejoin: miter"/>
   </g>
   <g id="patch_19">
    <path d="M 245.016242 244.6 
L 258.11755 244.6 
L 258.11755 237.2273 
L 245.016242 237.2273 
z
" clip-path="url(#p1ecd7a2a79)" style="fill: #ff0000; opacity: 0.5; stroke: #000000; stroke-linejoin: miter"/>
   </g>
   <g id="patch_20">
    <path d="M 258.11755 244.6 
L 271.218858 244.6 
L 271.218858 239.316075 
L 258.11755 239.316075 
z
" clip-path="url(#p1ecd7a2a79)" style="fill: #ff0000; opacity: 0.5; stroke: #000000; stroke-linejoin: miter"/>
   </g>
   <g id="patch_21">
    <path d="M 271.218858 244.6 
L 284.320166 244.6 
L 284.320166 241.447221 
L 271.218858 241.447221 
z
" clip-path="url(#p1ecd7a2a79)" style="fill: #ff0000; opacity: 0.5; stroke: #000000; stroke-linejoin: miter"/>
   </g>
   <g id="patch_22">
    <path d="M 284.320166 244.6 
L 297.421474 244.6 
L 297.421474 242.534765 
L 284.320166 242.534765 
z
" clip-path="url(#p1ecd7a2a79)" style="fill: #ff0000; opacity: 0.5; stroke: #000000; stroke-linejoin: miter"/>
   </g>
   <g id="patch_23">
    <path d="M 297.421474 244.6 
L 310.522782 244.6 
L 310.522782 242.508087 
L 297.421474 242.508087 
z
" clip-path="url(#p1ecd7a2a79)" style="fill: #ff0000; opacity: 0.5; stroke: #000000; stroke-linejoin: miter"/>
   </g>
   <g id="patch_24">
    <path d="M 310.522782 244.6 
L 323.62409 244.6 
L 323.62409 243.15465 
L 310.522782 243.15465 
z
" clip-path="url(#p1ecd7a2a79)" style="fill: #ff0000; opacity: 0.5; stroke: #000000; stroke-linejoin: miter"/>
   </g>
   <g id="patch_25">
    <path d="M 323.62409 244.6 
L 336.725398 244.6 
L 336.725398 243.167204 
L 323.62409 243.167204 
z
" clip-path="url(#p1ecd7a2a79)" style="fill: #ff0000; opacity: 0.5; stroke: #000000; stroke-linejoin: miter"/>
   </g>
   <g id="patch_26">
    <path d="M 336.725398 244.6 
L 349.826706 244.6 
L 349.826706 243.405742 
L 336.725398 243.405742 
z
" clip-path="url(#p1ecd7a2a79)" style="fill: #ff0000; opacity: 0.5; stroke: #000000; stroke-linejoin: miter"/>
   </g>
   <g id="patch_27">
    <path d="M 349.826706 244.6 
L 362.928014 244.6 
L 362.928014 243.477931 
L 349.826706 243.477931 
z
" clip-path="url(#p1ecd7a2a79)" style="fill: #ff0000; opacity: 0.5; stroke: #000000; stroke-linejoin: miter"/>
   </g>
   <g id="patch_28">
    <path d="M 362.928014 244.6 
L 376.029322 244.6 
L 376.029322 244.261025 
L 362.928014 244.261025 
z
" clip-path="url(#p1ecd7a2a79)" style="fill: #ff0000; opacity: 0.5; stroke: #000000; stroke-linejoin: miter"/>
   </g>
   <g id="patch_29">
    <path d="M 376.029322 244.6 
L 389.13063 244.6 
L 389.13063 244.01621 
L 376.029322 244.01621 
z
" clip-path="url(#p1ecd7a2a79)" style="fill: #ff0000; opacity: 0.5; stroke: #000000; stroke-linejoin: miter"/>
   </g>
   <g id="patch_30">
    <path d="M 389.13063 244.6 
L 402.231938 244.6 
L 402.231938 244.053874 
L 389.13063 244.053874 
z
" clip-path="url(#p1ecd7a2a79)" style="fill: #ff0000; opacity: 0.5; stroke: #000000; stroke-linejoin: miter"/>
   </g>
   <g id="patch_31">
    <path d="M 402.231938 244.6 
L 415.333247 244.6 
L 415.333247 244.465038 
L 402.231938 244.465038 
z
" clip-path="url(#p1ecd7a2a79)" style="fill: #ff0000; opacity: 0.5; stroke: #000000; stroke-linejoin: miter"/>
   </g>
   <g id="patch_32">
    <path d="M 415.333247 244.6 
L 428.434555 244.6 
L 428.434555 244.480731 
L 415.333247 244.480731 
z
" clip-path="url(#p1ecd7a2a79)" style="fill: #ff0000; opacity: 0.5; stroke: #000000; stroke-linejoin: miter"/>
   </g>
   <g id="patch_33">
    <path d="M 428.434555 244.6 
L 441.535863 244.6 
L 441.535863 244.450914 
L 428.434555 244.450914 
z
" clip-path="url(#p1ecd7a2a79)" style="fill: #ff0000; opacity: 0.5; stroke: #000000; stroke-linejoin: miter"/>
   </g>
   <g id="patch_34">
    <path d="M 441.535863 244.6 
L 454.637171 244.6 
L 454.637171 244.53095 
L 441.535863 244.53095 
z
" clip-path="url(#p1ecd7a2a79)" style="fill: #ff0000; opacity: 0.5; stroke: #000000; stroke-linejoin: miter"/>
   </g>
   <g id="patch_35">
    <path d="M 454.637171 244.6 
L 467.738479 244.6 
L 467.738479 244.519964 
L 454.637171 244.519964 
z
" clip-path="url(#p1ecd7a2a79)" style="fill: #ff0000; opacity: 0.5; stroke: #000000; stroke-linejoin: miter"/>
   </g>
   <g id="patch_36">
    <path d="M 467.738479 244.6 
L 480.839787 244.6 
L 480.839787 244.559197 
L 467.738479 244.559197 
z
" clip-path="url(#p1ecd7a2a79)" style="fill: #ff0000; opacity: 0.5; stroke: #000000; stroke-linejoin: miter"/>
   </g>
   <g id="patch_37">
    <path d="M 480.839787 244.6 
L 493.941095 244.6 
L 493.941095 244.562336 
L 480.839787 244.562336 
z
" clip-path="url(#p1ecd7a2a79)" style="fill: #ff0000; opacity: 0.5; stroke: #000000; stroke-linejoin: miter"/>
   </g>
   <g id="patch_38">
    <path d="M 493.941095 244.6 
L 507.042403 244.6 
L 507.042403 244.574891 
L 493.941095 244.574891 
z
" clip-path="url(#p1ecd7a2a79)" style="fill: #ff0000; opacity: 0.5; stroke: #000000; stroke-linejoin: miter"/>
   </g>
   <g id="patch_39">
    <path d="M 507.042403 244.6 
L 520.143711 244.6 
L 520.143711 244.567044 
L 507.042403 244.567044 
z
" clip-path="url(#p1ecd7a2a79)" style="fill: #ff0000; opacity: 0.5; stroke: #000000; stroke-linejoin: miter"/>
   </g>
   <g id="patch_40">
    <path d="M 520.143711 244.6 
L 533.245019 244.6 
L 533.245019 244.584307 
L 520.143711 244.584307 
z
" clip-path="url(#p1ecd7a2a79)" style="fill: #ff0000; opacity: 0.5; stroke: #000000; stroke-linejoin: miter"/>
   </g>
   <g id="patch_41">
    <path d="M 533.245019 244.6 
L 546.346327 244.6 
L 546.346327 244.590584 
L 533.245019 244.590584 
z
" clip-path="url(#p1ecd7a2a79)" style="fill: #ff0000; opacity: 0.5; stroke: #000000; stroke-linejoin: miter"/>
   </g>
   <g id="patch_42">
    <path d="M 546.346327 244.6 
L 559.447635 244.6 
L 559.447635 244.596861 
L 546.346327 244.596861 
z
" clip-path="url(#p1ecd7a2a79)" style="fill: #ff0000; opacity: 0.5; stroke: #000000; stroke-linejoin: miter"/>
   </g>
   <g id="patch_43">
    <path d="M 559.447635 244.6 
L 572.548943 244.6 
L 572.548943 244.593723 
L 559.447635 244.593723 
z
" clip-path="url(#p1ecd7a2a79)" style="fill: #ff0000; opacity: 0.5; stroke: #000000; stroke-linejoin: miter"/>
   </g>
   <g id="patch_44">
    <path d="M 572.548943 244.6 
L 585.650251 244.6 
L 585.650251 244.593723 
L 572.548943 244.593723 
z
" clip-path="url(#p1ecd7a2a79)" style="fill: #ff0000; opacity: 0.5; stroke: #000000; stroke-linejoin: miter"/>
   </g>
   <g id="patch_45">
    <path d="M 585.650251 244.6 
L 598.75156 244.6 
L 598.75156 244.598431 
L 585.650251 244.598431 
z
" clip-path="url(#p1ecd7a2a79)" style="fill: #ff0000; opacity: 0.5; stroke: #000000; stroke-linejoin: miter"/>
   </g>
   <g id="patch_46">
    <path d="M 598.75156 244.6 
L 611.852868 244.6 
L 611.852868 244.6 
L 598.75156 244.6 
z
" clip-path="url(#p1ecd7a2a79)" style="fill: #ff0000; opacity: 0.5; stroke: #000000; stroke-linejoin: miter"/>
   </g>
   <g id="patch_47">
    <path d="M 611.852868 244.6 
L 624.954176 244.6 
L 624.954176 244.598431 
L 611.852868 244.598431 
z
" clip-path="url(#p1ecd7a2a79)" style="fill: #ff0000; opacity: 0.5; stroke: #000000; stroke-linejoin: miter"/>
   </g>
   <g id="patch_48">
    <path d="M 624.954176 244.6 
L 638.055484 244.6 
L 638.055484 244.596861 
L 624.954176 244.596861 
z
" clip-path="url(#p1ecd7a2a79)" style="fill: #ff0000; opacity: 0.5; stroke: #000000; stroke-linejoin: miter"/>
   </g>
   <g id="patch_49">
    <path d="M 638.055484 244.6 
L 651.156792 244.6 
L 651.156792 244.595292 
L 638.055484 244.595292 
z
" clip-path="url(#p1ecd7a2a79)" style="fill: #ff0000; opacity: 0.5; stroke: #000000; stroke-linejoin: miter"/>
   </g>
   <g id="patch_50">
    <path d="M 651.156792 244.6 
L 664.2581 244.6 
L 664.2581 244.590584 
L 651.156792 244.590584 
z
" clip-path="url(#p1ecd7a2a79)" style="fill: #ff0000; opacity: 0.5; stroke: #000000; stroke-linejoin: miter"/>
   </g>
   <g id="patch_51">
    <path d="M 664.2581 244.6 
L 677.359408 244.6 
L 677.359408 244.595292 
L 664.2581 244.595292 
z
" clip-path="url(#p1ecd7a2a79)" style="fill: #ff0000; opacity: 0.5; stroke: #000000; stroke-linejoin: miter"/>
   </g>
   <g id="patch_52">
    <path d="M 677.359408 244.6 
L 690.460716 244.6 
L 690.460716 244.587445 
L 677.359408 244.587445 
z
" clip-path="url(#p1ecd7a2a79)" style="fill: #ff0000; opacity: 0.5; stroke: #000000; stroke-linejoin: miter"/>
   </g>
   <g id="patch_53">
    <path d="M 35.395313 244.6 
L 48.496621 244.6 
L 48.496621 59.114766 
L 35.395313 59.114766 
z
" clip-path="url(#p1ecd7a2a79)" style="fill: #0000ff; opacity: 0.5; stroke: #000000; stroke-linejoin: miter"/>
   </g>
   <g id="patch_54">
    <path d="M 48.496621 244.6 
L 61.597929 244.6 
L 61.597929 18.504762 
L 48.496621 18.504762 
z
" clip-path="url(#p1ecd7a2a79)" style="fill: #0000ff; opacity: 0.5; stroke: #000000; stroke-linejoin: miter"/>
   </g>
   <g id="patch_55">
    <path d="M 61.597929 244.6 
L 74.699237 244.6 
L 74.699237 120.395158 
L 61.597929 120.395158 
z
" clip-path="url(#p1ecd7a2a79)" style="fill: #0000ff; opacity: 0.5; stroke: #000000; stroke-linejoin: miter"/>
   </g>
   <g id="patch_56">
    <path d="M 74.699237 244.6 
L 87.800545 244.6 
L 87.800545 200.522205 
L 74.699237 200.522205 
z
" clip-path="url(#p1ecd7a2a79)" style="fill: #0000ff; opacity: 0.5; stroke: #000000; stroke-linejoin: miter"/>
   </g>
   <g id="patch_57">
    <path d="M 87.800545 244.6 
L 100.901853 244.6 
L 100.901853 212.201763 
L 87.800545 212.201763 
z
" clip-path="url(#p1ecd7a2a79)" style="fill: #0000ff; opacity: 0.5; stroke: #000000; stroke-linejoin: miter"/>
   </g>
   <g id="patch_58">
    <path d="M 100.901853 244.6 
L 114.003161 244.6 
L 114.003161 215.043888 
L 100.901853 215.043888 
z
" clip-path="url(#p1ecd7a2a79)" style="fill: #0000ff; opacity: 0.5; stroke: #000000; stroke-linejoin: miter"/>
   </g>
   <g id="patch_59">
    <path d="M 114.003161 244.6 
L 127.104469 244.6 
L 127.104469 215.996944 
L 114.003161 215.996944 
z
" clip-path="url(#p1ecd7a2a79)" style="fill: #0000ff; opacity: 0.5; stroke: #000000; stroke-linejoin: miter"/>
   </g>
   <g id="patch_60">
    <path d="M 127.104469 244.6 
L 140.205777 244.6 
L 140.205777 225.494841 
L 127.104469 225.494841 
z
" clip-path="url(#p1ecd7a2a79)" style="fill: #0000ff; opacity: 0.5; stroke: #000000; stroke-linejoin: miter"/>
   </g>
   <g id="patch_61">
    <path d="M 140.205777 244.6 
L 153.307085 244.6 
L 153.307085 232.524164 
L 140.205777 232.524164 
z
" clip-path="url(#p1ecd7a2a79)" style="fill: #0000ff; opacity: 0.5; stroke: #000000; stroke-linejoin: miter"/>
   </g>
   <g id="patch_62">
    <path d="M 153.307085 244.6 
L 166.408393 244.6 
L 166.408393 238.047915 
L 153.307085 238.047915 
z
" clip-path="url(#p1ecd7a2a79)" style="fill: #0000ff; opacity: 0.5; stroke: #000000; stroke-linejoin: miter"/>
   </g>
   <g id="patch_63">
    <path d="M 166.408393 244.6 
L 179.509701 244.6 
L 179.509701 240.942593 
L 166.408393 240.942593 
z
" clip-path="url(#p1ecd7a2a79)" style="fill: #0000ff; opacity: 0.5; stroke: #000000; stroke-linejoin: miter"/>
   </g>
   <g id="patch_64">
    <path d="M 179.509701 244.6 
L 192.611009 244.6 
L 192.611009 242.291927 
L 179.509701 242.291927 
z
" clip-path="url(#p1ecd7a2a79)" style="fill: #0000ff; opacity: 0.5; stroke: #000000; stroke-linejoin: miter"/>
   </g>
   <g id="patch_65">
    <path d="M 192.611009 244.6 
L 205.712317 244.6 
L 205.712317 243.130645 
L 192.611009 243.130645 
z
" clip-path="url(#p1ecd7a2a79)" style="fill: #0000ff; opacity: 0.5; stroke: #000000; stroke-linejoin: miter"/>
   </g>
   <g id="patch_66">
    <path d="M 205.712317 244.6 
L 218.813625 244.6 
L 218.813625 243.787558 
L 205.712317 243.787558 
z
" clip-path="url(#p1ecd7a2a79)" style="fill: #0000ff; opacity: 0.5; stroke: #000000; stroke-linejoin: miter"/>
   </g>
   <g id="patch_67">
    <path d="M 218.813625 244.6 
L 231.914934 244.6 
L 231.914934 243.918231 
L 218.813625 243.918231 
z
" clip-path="url(#p1ecd7a2a79)" style="fill: #0000ff; opacity: 0.5; stroke: #000000; stroke-linejoin: miter"/>
   </g>
   <g id="patch_68">
    <path d="M 231.914934 244.6 
L 245.016242 244.6 
L 245.016242 244.222186 
L 231.914934 244.222186 
z
" clip-path="url(#p1ecd7a2a79)" style="fill: #0000ff; opacity: 0.5; stroke: #000000; stroke-linejoin: miter"/>
   </g>
   <g id="patch_69">
    <path d="M 245.016242 244.6 
L 258.11755 244.6 
L 258.11755 244.243492 
L 245.016242 244.243492 
z
" clip-path="url(#p1ecd7a2a79)" style="fill: #0000ff; opacity: 0.5; stroke: #000000; stroke-linejoin: miter"/>
   </g>
   <g id="patch_70">
    <path d="M 258.11755 244.6 
L 271.218858 244.6 
L 271.218858 244.200171 
L 258.11755 244.200171 
z
" clip-path="url(#p1ecd7a2a79)" style="fill: #0000ff; opacity: 0.5; stroke: #000000; stroke-linejoin: miter"/>
   </g>
   <g id="patch_71">
    <path d="M 271.218858 244.6 
L 284.320166 244.6 
L 284.320166 244.384817 
L 271.218858 244.384817 
z
" clip-path="url(#p1ecd7a2a79)" style="fill: #0000ff; opacity: 0.5; stroke: #000000; stroke-linejoin: miter"/>
   </g>
   <g id="patch_72">
    <path d="M 284.320166 244.6 
L 297.421474 244.6 
L 297.421474 244.410383 
L 284.320166 244.410383 
z
" clip-path="url(#p1ecd7a2a79)" style="fill: #0000ff; opacity: 0.5; stroke: #000000; stroke-linejoin: miter"/>
   </g>
   <g id="patch_73">
    <path d="M 297.421474 244.6 
L 310.522782 244.6 
L 310.522782 244.501996 
L 297.421474 244.501996 
z
" clip-path="url(#p1ecd7a2a79)" style="fill: #0000ff; opacity: 0.5; stroke: #000000; stroke-linejoin: miter"/>
   </g>
   <g id="patch_74">
    <path d="M 310.522782 244.6 
L 323.62409 244.6 
L 323.62409 244.52117 
L 310.522782 244.52117 
z
" clip-path="url(#p1ecd7a2a79)" style="fill: #0000ff; opacity: 0.5; stroke: #000000; stroke-linejoin: miter"/>
   </g>
   <g id="patch_75">
    <path d="M 323.62409 244.6 
L 336.725398 244.6 
L 336.725398 244.51833 
L 323.62409 244.51833 
z
" clip-path="url(#p1ecd7a2a79)" style="fill: #0000ff; opacity: 0.5; stroke: #000000; stroke-linejoin: miter"/>
   </g>
   <g id="patch_76">
    <path d="M 336.725398 244.6 
L 349.826706 244.6 
L 349.826706 244.521881 
L 336.725398 244.521881 
z
" clip-path="url(#p1ecd7a2a79)" style="fill: #0000ff; opacity: 0.5; stroke: #000000; stroke-linejoin: miter"/>
   </g>
   <g id="patch_77">
    <path d="M 349.826706 244.6 
L 362.928014 244.6 
L 362.928014 244.483531 
L 349.826706 244.483531 
z
" clip-path="url(#p1ecd7a2a79)" style="fill: #0000ff; opacity: 0.5; stroke: #000000; stroke-linejoin: miter"/>
   </g>
   <g id="patch_78">
    <path d="M 362.928014 244.6 
L 376.029322 244.6 
L 376.029322 244.573723 
L 362.928014 244.573723 
z
" clip-path="url(#p1ecd7a2a79)" style="fill: #0000ff; opacity: 0.5; stroke: #000000; stroke-linejoin: miter"/>
   </g>
   <g id="patch_79">
    <path d="M 376.029322 244.6 
L 389.13063 244.6 
L 389.13063 244.583666 
L 376.029322 244.583666 
z
" clip-path="url(#p1ecd7a2a79)" style="fill: #0000ff; opacity: 0.5; stroke: #000000; stroke-linejoin: miter"/>
   </g>
   <g id="patch_80">
    <path d="M 389.13063 244.6 
L 402.231938 244.6 
L 402.231938 244.590768 
L 389.13063 244.590768 
z
" clip-path="url(#p1ecd7a2a79)" style="fill: #0000ff; opacity: 0.5; stroke: #000000; stroke-linejoin: miter"/>
   </g>
   <g id="patch_81">
    <path d="M 402.231938 244.6 
L 415.333247 244.6 
L 415.333247 244.587927 
L 402.231938 244.587927 
z
" clip-path="url(#p1ecd7a2a79)" style="fill: #0000ff; opacity: 0.5; stroke: #000000; stroke-linejoin: miter"/>
   </g>
   <g id="patch_82">
    <path d="M 415.333247 244.6 
L 428.434555 244.6 
L 428.434555 244.590768 
L 415.333247 244.590768 
z
" clip-path="url(#p1ecd7a2a79)" style="fill: #0000ff; opacity: 0.5; stroke: #000000; stroke-linejoin: miter"/>
   </g>
   <g id="patch_83">
    <path d="M 428.434555 244.6 
L 441.535863 244.6 
L 441.535863 244.591478 
L 428.434555 244.591478 
z
" clip-path="url(#p1ecd7a2a79)" style="fill: #0000ff; opacity: 0.5; stroke: #000000; stroke-linejoin: miter"/>
   </g>
   <g id="patch_84">
    <path d="M 441.535863 244.6 
L 454.637171 244.6 
L 454.637171 244.597869 
L 441.535863 244.597869 
z
" clip-path="url(#p1ecd7a2a79)" style="fill: #0000ff; opacity: 0.5; stroke: #000000; stroke-linejoin: miter"/>
   </g>
   <g id="patch_85">
    <path d="M 454.637171 244.6 
L 467.738479 244.6 
L 467.738479 244.595029 
L 454.637171 244.595029 
z
" clip-path="url(#p1ecd7a2a79)" style="fill: #0000ff; opacity: 0.5; stroke: #000000; stroke-linejoin: miter"/>
   </g>
   <g id="patch_86">
    <path d="M 467.738479 244.6 
L 480.839787 244.6 
L 480.839787 244.592898 
L 467.738479 244.592898 
z
" clip-path="url(#p1ecd7a2a79)" style="fill: #0000ff; opacity: 0.5; stroke: #000000; stroke-linejoin: miter"/>
   </g>
   <g id="patch_87">
    <path d="M 480.839787 244.6 
L 493.941095 244.6 
L 493.941095 244.597159 
L 480.839787 244.597159 
z
" clip-path="url(#p1ecd7a2a79)" style="fill: #0000ff; opacity: 0.5; stroke: #000000; stroke-linejoin: miter"/>
   </g>
   <g id="patch_88">
    <path d="M 493.941095 244.6 
L 507.042403 244.6 
L 507.042403 244.6 
L 493.941095 244.6 
z
" clip-path="url(#p1ecd7a2a79)" style="fill: #0000ff; opacity: 0.5; stroke: #000000; stroke-linejoin: miter"/>
   </g>
   <g id="patch_89">
    <path d="M 507.042403 244.6 
L 520.143711 244.6 
L 520.143711 244.59858 
L 507.042403 244.59858 
z
" clip-path="url(#p1ecd7a2a79)" style="fill: #0000ff; opacity: 0.5; stroke: #000000; stroke-linejoin: miter"/>
   </g>
   <g id="patch_90">
    <path d="M 520.143711 244.6 
L 533.245019 244.6 
L 533.245019 244.59929 
L 520.143711 244.59929 
z
" clip-path="url(#p1ecd7a2a79)" style="fill: #0000ff; opacity: 0.5; stroke: #000000; stroke-linejoin: miter"/>
   </g>
   <g id="patch_91">
    <path d="M 533.245019 244.6 
L 546.346327 244.6 
L 546.346327 244.6 
L 533.245019 244.6 
z
" clip-path="url(#p1ecd7a2a79)" style="fill: #0000ff; opacity: 0.5; stroke: #000000; stroke-linejoin: miter"/>
   </g>
   <g id="patch_92">
    <path d="M 546.346327 244.6 
L 559.447635 244.6 
L 559.447635 244.59929 
L 546.346327 244.59929 
z
" clip-path="url(#p1ecd7a2a79)" style="fill: #0000ff; opacity: 0.5; stroke: #000000; stroke-linejoin: miter"/>
   </g>
   <g id="patch_93">
    <path d="M 559.447635 244.6 
L 572.548943 244.6 
L 572.548943 244.59929 
L 559.447635 244.59929 
z
" clip-path="url(#p1ecd7a2a79)" style="fill: #0000ff; opacity: 0.5; stroke: #000000; stroke-linejoin: miter"/>
   </g>
   <g id="patch_94">
    <path d="M 572.548943 244.6 
L 585.650251 244.6 
L 585.650251 244.597159 
L 572.548943 244.597159 
z
" clip-path="url(#p1ecd7a2a79)" style="fill: #0000ff; opacity: 0.5; stroke: #000000; stroke-linejoin: miter"/>
   </g>
   <g id="patch_95">
    <path d="M 585.650251 244.6 
L 598.75156 244.6 
L 598.75156 244.59929 
L 585.650251 244.59929 
z
" clip-path="url(#p1ecd7a2a79)" style="fill: #0000ff; opacity: 0.5; stroke: #000000; stroke-linejoin: miter"/>
   </g>
   <g id="patch_96">
    <path d="M 598.75156 244.6 
L 611.852868 244.6 
L 611.852868 244.6 
L 598.75156 244.6 
z
" clip-path="url(#p1ecd7a2a79)" style="fill: #0000ff; opacity: 0.5; stroke: #000000; stroke-linejoin: miter"/>
   </g>
   <g id="patch_97">
    <path d="M 611.852868 244.6 
L 624.954176 244.6 
L 624.954176 244.6 
L 611.852868 244.6 
z
" clip-path="url(#p1ecd7a2a79)" style="fill: #0000ff; opacity: 0.5; stroke: #000000; stroke-linejoin: miter"/>
   </g>
   <g id="patch_98">
    <path d="M 624.954176 244.6 
L 638.055484 244.6 
L 638.055484 244.6 
L 624.954176 244.6 
z
" clip-path="url(#p1ecd7a2a79)" style="fill: #0000ff; opacity: 0.5; stroke: #000000; stroke-linejoin: miter"/>
   </g>
   <g id="patch_99">
    <path d="M 638.055484 244.6 
L 651.156792 244.6 
L 651.156792 244.6 
L 638.055484 244.6 
z
" clip-path="url(#p1ecd7a2a79)" style="fill: #0000ff; opacity: 0.5; stroke: #000000; stroke-linejoin: miter"/>
   </g>
   <g id="patch_100">
    <path d="M 651.156792 244.6 
L 664.2581 244.6 
L 664.2581 244.6 
L 651.156792 244.6 
z
" clip-path="url(#p1ecd7a2a79)" style="fill: #0000ff; opacity: 0.5; stroke: #000000; stroke-linejoin: miter"/>
   </g>
   <g id="patch_101">
    <path d="M 664.2581 244.6 
L 677.359408 244.6 
L 677.359408 244.6 
L 664.2581 244.6 
z
" clip-path="url(#p1ecd7a2a79)" style="fill: #0000ff; opacity: 0.5; stroke: #000000; stroke-linejoin: miter"/>
   </g>
   <g id="patch_102">
    <path d="M 677.359408 244.6 
L 690.460716 244.6 
L 690.460716 244.59858 
L 677.359408 244.59858 
z
" clip-path="url(#p1ecd7a2a79)" style="fill: #0000ff; opacity: 0.5; stroke: #000000; stroke-linejoin: miter"/>
   </g>
   <g id="patch_103">
    <path d="M 35.395313 244.6 
L 48.496621 244.6 
L 48.496621 159.824146 
L 35.395313 159.824146 
z
" clip-path="url(#p1ecd7a2a79)" style="fill: #008000; opacity: 0.5; stroke: #000000; stroke-linejoin: miter"/>
   </g>
   <g id="patch_104">
    <path d="M 48.496621 244.6 
L 61.597929 244.6 
L 61.597929 88.360746 
L 48.496621 88.360746 
z
" clip-path="url(#p1ecd7a2a79)" style="fill: #008000; opacity: 0.5; stroke: #000000; stroke-linejoin: miter"/>
   </g>
   <g id="patch_105">
    <path d="M 61.597929 244.6 
L 74.699237 244.6 
L 74.699237 50.37836 
L 61.597929 50.37836 
z
" clip-path="url(#p1ecd7a2a79)" style="fill: #008000; opacity: 0.5; stroke: #000000; stroke-linejoin: miter"/>
   </g>
   <g id="patch_106">
    <path d="M 74.699237 244.6 
L 87.800545 244.6 
L 87.800545 126.715509 
L 74.699237 126.715509 
z
" clip-path="url(#p1ecd7a2a79)" style="fill: #008000; opacity: 0.5; stroke: #000000; stroke-linejoin: miter"/>
   </g>
   <g id="patch_107">
    <path d="M 87.800545 244.6 
L 100.901853 244.6 
L 100.901853 160.804372 
L 87.800545 160.804372 
z
" clip-path="url(#p1ecd7a2a79)" style="fill: #008000; opacity: 0.5; stroke: #000000; stroke-linejoin: miter"/>
   </g>
   <g id="patch_108">
    <path d="M 100.901853 244.6 
L 114.003161 244.6 
L 114.003161 207.020109 
L 100.901853 207.020109 
z
" clip-path="url(#p1ecd7a2a79)" style="fill: #008000; opacity: 0.5; stroke: #000000; stroke-linejoin: miter"/>
   </g>
   <g id="patch_109">
    <path d="M 114.003161 244.6 
L 127.104469 244.6 
L 127.104469 223.297883 
L 114.003161 223.297883 
z
" clip-path="url(#p1ecd7a2a79)" style="fill: #008000; opacity: 0.5; stroke: #000000; stroke-linejoin: miter"/>
   </g>
   <g id="patch_110">
    <path d="M 127.104469 244.6 
L 140.205777 244.6 
L 140.205777 233.401329 
L 127.104469 233.401329 
z
" clip-path="url(#p1ecd7a2a79)" style="fill: #008000; opacity: 0.5; stroke: #000000; stroke-linejoin: miter"/>
   </g>
   <g id="patch_111">
    <path d="M 140.205777 244.6 
L 153.307085 244.6 
L 153.307085 239.852202 
L 140.205777 239.852202 
z
" clip-path="url(#p1ecd7a2a79)" style="fill: #008000; opacity: 0.5; stroke: #000000; stroke-linejoin: miter"/>
   </g>
   <g id="patch_112">
    <path d="M 153.307085 244.6 
L 166.408393 244.6 
L 166.408393 241.840034 
L 153.307085 241.840034 
z
" clip-path="url(#p1ecd7a2a79)" style="fill: #008000; opacity: 0.5; stroke: #000000; stroke-linejoin: miter"/>
   </g>
   <g id="patch_113">
    <path d="M 166.408393 244.6 
L 179.509701 244.6 
L 179.509701 241.714083 
L 166.408393 241.714083 
z
" clip-path="url(#p1ecd7a2a79)" style="fill: #008000; opacity: 0.5; stroke: #000000; stroke-linejoin: miter"/>
   </g>
   <g id="patch_114">
    <path d="M 179.509701 244.6 
L 192.611009 244.6 
L 192.611009 243.674535 
L 179.509701 243.674535 
z
" clip-path="url(#p1ecd7a2a79)" style="fill: #008000; opacity: 0.5; stroke: #000000; stroke-linejoin: miter"/>
   </g>
   <g id="patch_115">
    <path d="M 192.611009 244.6 
L 205.712317 244.6 
L 205.712317 244.413812 
L 192.611009 244.413812 
z
" clip-path="url(#p1ecd7a2a79)" style="fill: #008000; opacity: 0.5; stroke: #000000; stroke-linejoin: miter"/>
   </g>
   <g id="patch_116">
    <path d="M 205.712317 244.6 
L 218.813625 244.6 
L 218.813625 244.090721 
L 205.712317 244.090721 
z
" clip-path="url(#p1ecd7a2a79)" style="fill: #008000; opacity: 0.5; stroke: #000000; stroke-linejoin: miter"/>
   </g>
   <g id="patch_117">
    <path d="M 218.813625 244.6 
L 231.914934 244.6 
L 231.914934 244.509644 
L 218.813625 244.509644 
z
" clip-path="url(#p1ecd7a2a79)" style="fill: #008000; opacity: 0.5; stroke: #000000; stroke-linejoin: miter"/>
   </g>
   <g id="patch_118">
    <path d="M 231.914934 244.6 
L 245.016242 244.6 
L 245.016242 244.558929 
L 231.914934 244.558929 
z
" clip-path="url(#p1ecd7a2a79)" style="fill: #008000; opacity: 0.5; stroke: #000000; stroke-linejoin: miter"/>
   </g>
   <g id="patch_119">
    <path d="M 245.016242 244.6 
L 258.11755 244.6 
L 258.11755 244.578096 
L 245.016242 244.578096 
z
" clip-path="url(#p1ecd7a2a79)" style="fill: #008000; opacity: 0.5; stroke: #000000; stroke-linejoin: miter"/>
   </g>
   <g id="patch_120">
    <path d="M 258.11755 244.6 
L 271.218858 244.6 
L 271.218858 244.589048 
L 258.11755 244.589048 
z
" clip-path="url(#p1ecd7a2a79)" style="fill: #008000; opacity: 0.5; stroke: #000000; stroke-linejoin: miter"/>
   </g>
   <g id="patch_121">
    <path d="M 271.218858 244.6 
L 284.320166 244.6 
L 284.320166 244.594524 
L 271.218858 244.594524 
z
" clip-path="url(#p1ecd7a2a79)" style="fill: #008000; opacity: 0.5; stroke: #000000; stroke-linejoin: miter"/>
   </g>
   <g id="patch_122">
    <path d="M 284.320166 244.6 
L 297.421474 244.6 
L 297.421474 244.6 
L 284.320166 244.6 
z
" clip-path="url(#p1ecd7a2a79)" style="fill: #008000; opacity: 0.5; stroke: #000000; stroke-linejoin: miter"/>
   </g>
   <g id="patch_123">
    <path d="M 297.421474 244.6 
L 310.522782 244.6 
L 310.522782 244.6 
L 297.421474 244.6 
z
" clip-path="url(#p1ecd7a2a79)" style="fill: #008000; opacity: 0.5; stroke: #000000; stroke-linejoin: miter"/>
   </g>
   <g id="patch_124">
    <path d="M 310.522782 244.6 
L 323.62409 244.6 
L 323.62409 244.6 
L 310.522782 244.6 
z
" clip-path="url(#p1ecd7a2a79)" style="fill: #008000; opacity: 0.5; stroke: #000000; stroke-linejoin: miter"/>
   </g>
   <g id="patch_125">
    <path d="M 323.62409 244.6 
L 336.725398 244.6 
L 336.725398 244.6 
L 323.62409 244.6 
z
" clip-path="url(#p1ecd7a2a79)" style="fill: #008000; opacity: 0.5; stroke: #000000; stroke-linejoin: miter"/>
   </g>
   <g id="patch_126">
    <path d="M 336.725398 244.6 
L 349.826706 244.6 
L 349.826706 244.6 
L 336.725398 244.6 
z
" clip-path="url(#p1ecd7a2a79)" style="fill: #008000; opacity: 0.5; stroke: #000000; stroke-linejoin: miter"/>
   </g>
   <g id="patch_127">
    <path d="M 349.826706 244.6 
L 362.928014 244.6 
L 362.928014 244.6 
L 349.826706 244.6 
z
" clip-path="url(#p1ecd7a2a79)" style="fill: #008000; opacity: 0.5; stroke: #000000; stroke-linejoin: miter"/>
   </g>
   <g id="patch_128">
    <path d="M 362.928014 244.6 
L 376.029322 244.6 
L 376.029322 244.6 
L 362.928014 244.6 
z
" clip-path="url(#p1ecd7a2a79)" style="fill: #008000; opacity: 0.5; stroke: #000000; stroke-linejoin: miter"/>
   </g>
   <g id="patch_129">
    <path d="M 376.029322 244.6 
L 389.13063 244.6 
L 389.13063 244.6 
L 376.029322 244.6 
z
" clip-path="url(#p1ecd7a2a79)" style="fill: #008000; opacity: 0.5; stroke: #000000; stroke-linejoin: miter"/>
   </g>
   <g id="patch_130">
    <path d="M 389.13063 244.6 
L 402.231938 244.6 
L 402.231938 244.6 
L 389.13063 244.6 
z
" clip-path="url(#p1ecd7a2a79)" style="fill: #008000; opacity: 0.5; stroke: #000000; stroke-linejoin: miter"/>
   </g>
   <g id="patch_131">
    <path d="M 402.231938 244.6 
L 415.333247 244.6 
L 415.333247 244.6 
L 402.231938 244.6 
z
" clip-path="url(#p1ecd7a2a79)" style="fill: #008000; opacity: 0.5; stroke: #000000; stroke-linejoin: miter"/>
   </g>
   <g id="patch_132">
    <path d="M 415.333247 244.6 
L 428.434555 244.6 
L 428.434555 244.6 
L 415.333247 244.6 
z
" clip-path="url(#p1ecd7a2a79)" style="fill: #008000; opacity: 0.5; stroke: #000000; stroke-linejoin: miter"/>
   </g>
   <g id="patch_133">
    <path d="M 428.434555 244.6 
L 441.535863 244.6 
L 441.535863 244.6 
L 428.434555 244.6 
z
" clip-path="url(#p1ecd7a2a79)" style="fill: #008000; opacity: 0.5; stroke: #000000; stroke-linejoin: miter"/>
   </g>
   <g id="patch_134">
    <path d="M 441.535863 244.6 
L 454.637171 244.6 
L 454.637171 244.6 
L 441.535863 244.6 
z
" clip-path="url(#p1ecd7a2a79)" style="fill: #008000; opacity: 0.5; stroke: #000000; stroke-linejoin: miter"/>
   </g>
   <g id="patch_135">
    <path d="M 454.637171 244.6 
L 467.738479 244.6 
L 467.738479 244.6 
L 454.637171 244.6 
z
" clip-path="url(#p1ecd7a2a79)" style="fill: #008000; opacity: 0.5; stroke: #000000; stroke-linejoin: miter"/>
   </g>
   <g id="patch_136">
    <path d="M 467.738479 244.6 
L 480.839787 244.6 
L 480.839787 244.6 
L 467.738479 244.6 
z
" clip-path="url(#p1ecd7a2a79)" style="fill: #008000; opacity: 0.5; stroke: #000000; stroke-linejoin: miter"/>
   </g>
   <g id="patch_137">
    <path d="M 480.839787 244.6 
L 493.941095 244.6 
L 493.941095 244.6 
L 480.839787 244.6 
z
" clip-path="url(#p1ecd7a2a79)" style="fill: #008000; opacity: 0.5; stroke: #000000; stroke-linejoin: miter"/>
   </g>
   <g id="patch_138">
    <path d="M 493.941095 244.6 
L 507.042403 244.6 
L 507.042403 244.6 
L 493.941095 244.6 
z
" clip-path="url(#p1ecd7a2a79)" style="fill: #008000; opacity: 0.5; stroke: #000000; stroke-linejoin: miter"/>
   </g>
   <g id="patch_139">
    <path d="M 507.042403 244.6 
L 520.143711 244.6 
L 520.143711 244.6 
L 507.042403 244.6 
z
" clip-path="url(#p1ecd7a2a79)" style="fill: #008000; opacity: 0.5; stroke: #000000; stroke-linejoin: miter"/>
   </g>
   <g id="patch_140">
    <path d="M 520.143711 244.6 
L 533.245019 244.6 
L 533.245019 244.6 
L 520.143711 244.6 
z
" clip-path="url(#p1ecd7a2a79)" style="fill: #008000; opacity: 0.5; stroke: #000000; stroke-linejoin: miter"/>
   </g>
   <g id="patch_141">
    <path d="M 533.245019 244.6 
L 546.346327 244.6 
L 546.346327 244.6 
L 533.245019 244.6 
z
" clip-path="url(#p1ecd7a2a79)" style="fill: #008000; opacity: 0.5; stroke: #000000; stroke-linejoin: miter"/>
   </g>
   <g id="patch_142">
    <path d="M 546.346327 244.6 
L 559.447635 244.6 
L 559.447635 244.6 
L 546.346327 244.6 
z
" clip-path="url(#p1ecd7a2a79)" style="fill: #008000; opacity: 0.5; stroke: #000000; stroke-linejoin: miter"/>
   </g>
   <g id="patch_143">
    <path d="M 559.447635 244.6 
L 572.548943 244.6 
L 572.548943 244.6 
L 559.447635 244.6 
z
" clip-path="url(#p1ecd7a2a79)" style="fill: #008000; opacity: 0.5; stroke: #000000; stroke-linejoin: miter"/>
   </g>
   <g id="patch_144">
    <path d="M 572.548943 244.6 
L 585.650251 244.6 
L 585.650251 244.6 
L 572.548943 244.6 
z
" clip-path="url(#p1ecd7a2a79)" style="fill: #008000; opacity: 0.5; stroke: #000000; stroke-linejoin: miter"/>
   </g>
   <g id="patch_145">
    <path d="M 585.650251 244.6 
L 598.75156 244.6 
L 598.75156 244.6 
L 585.650251 244.6 
z
" clip-path="url(#p1ecd7a2a79)" style="fill: #008000; opacity: 0.5; stroke: #000000; stroke-linejoin: miter"/>
   </g>
   <g id="patch_146">
    <path d="M 598.75156 244.6 
L 611.852868 244.6 
L 611.852868 244.6 
L 598.75156 244.6 
z
" clip-path="url(#p1ecd7a2a79)" style="fill: #008000; opacity: 0.5; stroke: #000000; stroke-linejoin: miter"/>
   </g>
   <g id="patch_147">
    <path d="M 611.852868 244.6 
L 624.954176 244.6 
L 624.954176 244.6 
L 611.852868 244.6 
z
" clip-path="url(#p1ecd7a2a79)" style="fill: #008000; opacity: 0.5; stroke: #000000; stroke-linejoin: miter"/>
   </g>
   <g id="patch_148">
    <path d="M 624.954176 244.6 
L 638.055484 244.6 
L 638.055484 244.6 
L 624.954176 244.6 
z
" clip-path="url(#p1ecd7a2a79)" style="fill: #008000; opacity: 0.5; stroke: #000000; stroke-linejoin: miter"/>
   </g>
   <g id="patch_149">
    <path d="M 638.055484 244.6 
L 651.156792 244.6 
L 651.156792 244.6 
L 638.055484 244.6 
z
" clip-path="url(#p1ecd7a2a79)" style="fill: #008000; opacity: 0.5; stroke: #000000; stroke-linejoin: miter"/>
   </g>
   <g id="patch_150">
    <path d="M 651.156792 244.6 
L 664.2581 244.6 
L 664.2581 244.6 
L 651.156792 244.6 
z
" clip-path="url(#p1ecd7a2a79)" style="fill: #008000; opacity: 0.5; stroke: #000000; stroke-linejoin: miter"/>
   </g>
   <g id="patch_151">
    <path d="M 664.2581 244.6 
L 677.359408 244.6 
L 677.359408 244.6 
L 664.2581 244.6 
z
" clip-path="url(#p1ecd7a2a79)" style="fill: #008000; opacity: 0.5; stroke: #000000; stroke-linejoin: miter"/>
   </g>
   <g id="patch_152">
    <path d="M 677.359408 244.6 
L 690.460716 244.6 
L 690.460716 244.6 
L 677.359408 244.6 
z
" clip-path="url(#p1ecd7a2a79)" style="fill: #008000; opacity: 0.5; stroke: #000000; stroke-linejoin: miter"/>
   </g>
   <g id="matplotlib.axis_1">
    <g id="xtick_1">
     <g id="line2d_1">
      <defs>
       <path id="m174b61ed10" d="M 0 0 
L 0 3.5 
" style="stroke: #000000; stroke-width: 0.8"/>
      </defs>
      <g>
       <use xlink:href="#m174b61ed10" x="35.395313" y="244.6" style="stroke: #000000; stroke-width: 0.8"/>
      </g>
     </g>
     <g id="text_1">
      <!-- 0 -->
      <g transform="translate(27.442188 270.596094) scale(0.25 -0.25)">
       <defs>
        <path id="DejaVuSans-30" d="M 2034 4250 
Q 1547 4250 1301 3770 
Q 1056 3291 1056 2328 
Q 1056 1369 1301 889 
Q 1547 409 2034 409 
Q 2525 409 2770 889 
Q 3016 1369 3016 2328 
Q 3016 3291 2770 3770 
Q 2525 4250 2034 4250 
z
M 2034 4750 
Q 2819 4750 3233 4129 
Q 3647 3509 3647 2328 
Q 3647 1150 3233 529 
Q 2819 -91 2034 -91 
Q 1250 -91 836 529 
Q 422 1150 422 2328 
Q 422 3509 836 4129 
Q 1250 4750 2034 4750 
z
" transform="scale(0.015625)"/>
       </defs>
       <use xlink:href="#DejaVuSans-30"/>
      </g>
     </g>
    </g>
    <g id="xtick_2">
     <g id="line2d_2">
      <g>
       <use xlink:href="#m174b61ed10" x="120.734735" y="244.6" style="stroke: #000000; stroke-width: 0.8"/>
      </g>
     </g>
     <g id="text_2">
      <!-- 250 -->
      <g transform="translate(96.87536 270.596094) scale(0.25 -0.25)">
       <defs>
        <path id="DejaVuSans-32" d="M 1228 531 
L 3431 531 
L 3431 0 
L 469 0 
L 469 531 
Q 828 903 1448 1529 
Q 2069 2156 2228 2338 
Q 2531 2678 2651 2914 
Q 2772 3150 2772 3378 
Q 2772 3750 2511 3984 
Q 2250 4219 1831 4219 
Q 1534 4219 1204 4116 
Q 875 4013 500 3803 
L 500 4441 
Q 881 4594 1212 4672 
Q 1544 4750 1819 4750 
Q 2544 4750 2975 4387 
Q 3406 4025 3406 3419 
Q 3406 3131 3298 2873 
Q 3191 2616 2906 2266 
Q 2828 2175 2409 1742 
Q 1991 1309 1228 531 
z
" transform="scale(0.015625)"/>
        <path id="DejaVuSans-35" d="M 691 4666 
L 3169 4666 
L 3169 4134 
L 1269 4134 
L 1269 2991 
Q 1406 3038 1543 3061 
Q 1681 3084 1819 3084 
Q 2600 3084 3056 2656 
Q 3513 2228 3513 1497 
Q 3513 744 3044 326 
Q 2575 -91 1722 -91 
Q 1428 -91 1123 -41 
Q 819 9 494 109 
L 494 744 
Q 775 591 1075 516 
Q 1375 441 1709 441 
Q 2250 441 2565 725 
Q 2881 1009 2881 1497 
Q 2881 1984 2565 2268 
Q 2250 2553 1709 2553 
Q 1456 2553 1204 2497 
Q 953 2441 691 2322 
L 691 4666 
z
" transform="scale(0.015625)"/>
       </defs>
       <use xlink:href="#DejaVuSans-32"/>
       <use xlink:href="#DejaVuSans-35" x="63.623047"/>
       <use xlink:href="#DejaVuSans-30" x="127.246094"/>
      </g>
     </g>
    </g>
    <g id="xtick_3">
     <g id="line2d_3">
      <g>
       <use xlink:href="#m174b61ed10" x="206.074157" y="244.6" style="stroke: #000000; stroke-width: 0.8"/>
      </g>
     </g>
     <g id="text_3">
      <!-- 500 -->
      <g transform="translate(182.214782 270.596094) scale(0.25 -0.25)">
       <use xlink:href="#DejaVuSans-35"/>
       <use xlink:href="#DejaVuSans-30" x="63.623047"/>
       <use xlink:href="#DejaVuSans-30" x="127.246094"/>
      </g>
     </g>
    </g>
    <g id="xtick_4">
     <g id="line2d_4">
      <g>
       <use xlink:href="#m174b61ed10" x="291.413579" y="244.6" style="stroke: #000000; stroke-width: 0.8"/>
      </g>
     </g>
     <g id="text_4">
      <!-- 750 -->
      <g transform="translate(267.554204 270.596094) scale(0.25 -0.25)">
       <defs>
        <path id="DejaVuSans-37" d="M 525 4666 
L 3525 4666 
L 3525 4397 
L 1831 0 
L 1172 0 
L 2766 4134 
L 525 4134 
L 525 4666 
z
" transform="scale(0.015625)"/>
       </defs>
       <use xlink:href="#DejaVuSans-37"/>
       <use xlink:href="#DejaVuSans-35" x="63.623047"/>
       <use xlink:href="#DejaVuSans-30" x="127.246094"/>
      </g>
     </g>
    </g>
    <g id="xtick_5">
     <g id="line2d_5">
      <g>
       <use xlink:href="#m174b61ed10" x="376.753001" y="244.6" style="stroke: #000000; stroke-width: 0.8"/>
      </g>
     </g>
     <g id="text_5">
      <!-- 1000 -->
      <g transform="translate(344.940501 270.596094) scale(0.25 -0.25)">
       <defs>
        <path id="DejaVuSans-31" d="M 794 531 
L 1825 531 
L 1825 4091 
L 703 3866 
L 703 4441 
L 1819 4666 
L 2450 4666 
L 2450 531 
L 3481 531 
L 3481 0 
L 794 0 
L 794 531 
z
" transform="scale(0.015625)"/>
       </defs>
       <use xlink:href="#DejaVuSans-31"/>
       <use xlink:href="#DejaVuSans-30" x="63.623047"/>
       <use xlink:href="#DejaVuSans-30" x="127.246094"/>
       <use xlink:href="#DejaVuSans-30" x="190.869141"/>
      </g>
     </g>
    </g>
    <g id="text_6">
     <!-- 2D BBox Width [Px] -->
     <g transform="translate(109.373249 298.791406) scale(0.25 -0.25)">
      <defs>
       <path id="DejaVuSans-44" d="M 1259 4147 
L 1259 519 
L 2022 519 
Q 2988 519 3436 956 
Q 3884 1394 3884 2338 
Q 3884 3275 3436 3711 
Q 2988 4147 2022 4147 
L 1259 4147 
z
M 628 4666 
L 1925 4666 
Q 3281 4666 3915 4102 
Q 4550 3538 4550 2338 
Q 4550 1131 3912 565 
Q 3275 0 1925 0 
L 628 0 
L 628 4666 
z
" transform="scale(0.015625)"/>
       <path id="DejaVuSans-20" transform="scale(0.015625)"/>
       <path id="DejaVuSans-42" d="M 1259 2228 
L 1259 519 
L 2272 519 
Q 2781 519 3026 730 
Q 3272 941 3272 1375 
Q 3272 1813 3026 2020 
Q 2781 2228 2272 2228 
L 1259 2228 
z
M 1259 4147 
L 1259 2741 
L 2194 2741 
Q 2656 2741 2882 2914 
Q 3109 3088 3109 3444 
Q 3109 3797 2882 3972 
Q 2656 4147 2194 4147 
L 1259 4147 
z
M 628 4666 
L 2241 4666 
Q 2963 4666 3353 4366 
Q 3744 4066 3744 3513 
Q 3744 3084 3544 2831 
Q 3344 2578 2956 2516 
Q 3422 2416 3680 2098 
Q 3938 1781 3938 1306 
Q 3938 681 3513 340 
Q 3088 0 2303 0 
L 628 0 
L 628 4666 
z
" transform="scale(0.015625)"/>
       <path id="DejaVuSans-6f" d="M 1959 3097 
Q 1497 3097 1228 2736 
Q 959 2375 959 1747 
Q 959 1119 1226 758 
Q 1494 397 1959 397 
Q 2419 397 2687 759 
Q 2956 1122 2956 1747 
Q 2956 2369 2687 2733 
Q 2419 3097 1959 3097 
z
M 1959 3584 
Q 2709 3584 3137 3096 
Q 3566 2609 3566 1747 
Q 3566 888 3137 398 
Q 2709 -91 1959 -91 
Q 1206 -91 779 398 
Q 353 888 353 1747 
Q 353 2609 779 3096 
Q 1206 3584 1959 3584 
z
" transform="scale(0.015625)"/>
       <path id="DejaVuSans-78" d="M 3513 3500 
L 2247 1797 
L 3578 0 
L 2900 0 
L 1881 1375 
L 863 0 
L 184 0 
L 1544 1831 
L 300 3500 
L 978 3500 
L 1906 2253 
L 2834 3500 
L 3513 3500 
z
" transform="scale(0.015625)"/>
       <path id="DejaVuSans-57" d="M 213 4666 
L 850 4666 
L 1831 722 
L 2809 4666 
L 3519 4666 
L 4500 722 
L 5478 4666 
L 6119 4666 
L 4947 0 
L 4153 0 
L 3169 4050 
L 2175 0 
L 1381 0 
L 213 4666 
z
" transform="scale(0.015625)"/>
       <path id="DejaVuSans-69" d="M 603 3500 
L 1178 3500 
L 1178 0 
L 603 0 
L 603 3500 
z
M 603 4863 
L 1178 4863 
L 1178 4134 
L 603 4134 
L 603 4863 
z
" transform="scale(0.015625)"/>
       <path id="DejaVuSans-64" d="M 2906 2969 
L 2906 4863 
L 3481 4863 
L 3481 0 
L 2906 0 
L 2906 525 
Q 2725 213 2448 61 
Q 2172 -91 1784 -91 
Q 1150 -91 751 415 
Q 353 922 353 1747 
Q 353 2572 751 3078 
Q 1150 3584 1784 3584 
Q 2172 3584 2448 3432 
Q 2725 3281 2906 2969 
z
M 947 1747 
Q 947 1113 1208 752 
Q 1469 391 1925 391 
Q 2381 391 2643 752 
Q 2906 1113 2906 1747 
Q 2906 2381 2643 2742 
Q 2381 3103 1925 3103 
Q 1469 3103 1208 2742 
Q 947 2381 947 1747 
z
" transform="scale(0.015625)"/>
       <path id="DejaVuSans-74" d="M 1172 4494 
L 1172 3500 
L 2356 3500 
L 2356 3053 
L 1172 3053 
L 1172 1153 
Q 1172 725 1289 603 
Q 1406 481 1766 481 
L 2356 481 
L 2356 0 
L 1766 0 
Q 1100 0 847 248 
Q 594 497 594 1153 
L 594 3053 
L 172 3053 
L 172 3500 
L 594 3500 
L 594 4494 
L 1172 4494 
z
" transform="scale(0.015625)"/>
       <path id="DejaVuSans-68" d="M 3513 2113 
L 3513 0 
L 2938 0 
L 2938 2094 
Q 2938 2591 2744 2837 
Q 2550 3084 2163 3084 
Q 1697 3084 1428 2787 
Q 1159 2491 1159 1978 
L 1159 0 
L 581 0 
L 581 4863 
L 1159 4863 
L 1159 2956 
Q 1366 3272 1645 3428 
Q 1925 3584 2291 3584 
Q 2894 3584 3203 3211 
Q 3513 2838 3513 2113 
z
" transform="scale(0.015625)"/>
       <path id="DejaVuSans-5b" d="M 550 4863 
L 1875 4863 
L 1875 4416 
L 1125 4416 
L 1125 -397 
L 1875 -397 
L 1875 -844 
L 550 -844 
L 550 4863 
z
" transform="scale(0.015625)"/>
       <path id="DejaVuSans-50" d="M 1259 4147 
L 1259 2394 
L 2053 2394 
Q 2494 2394 2734 2622 
Q 2975 2850 2975 3272 
Q 2975 3691 2734 3919 
Q 2494 4147 2053 4147 
L 1259 4147 
z
M 628 4666 
L 2053 4666 
Q 2838 4666 3239 4311 
Q 3641 3956 3641 3272 
Q 3641 2581 3239 2228 
Q 2838 1875 2053 1875 
L 1259 1875 
L 1259 0 
L 628 0 
L 628 4666 
z
" transform="scale(0.015625)"/>
       <path id="DejaVuSans-5d" d="M 1947 4863 
L 1947 -844 
L 622 -844 
L 622 -397 
L 1369 -397 
L 1369 4416 
L 622 4416 
L 622 4863 
L 1947 4863 
z
" transform="scale(0.015625)"/>
      </defs>
      <use xlink:href="#DejaVuSans-32"/>
      <use xlink:href="#DejaVuSans-44" x="63.623047"/>
      <use xlink:href="#DejaVuSans-20" x="140.625"/>
      <use xlink:href="#DejaVuSans-42" x="172.412109"/>
      <use xlink:href="#DejaVuSans-42" x="241.015625"/>
      <use xlink:href="#DejaVuSans-6f" x="309.619141"/>
      <use xlink:href="#DejaVuSans-78" x="367.675781"/>
      <use xlink:href="#DejaVuSans-20" x="426.855469"/>
      <use xlink:href="#DejaVuSans-57" x="458.642578"/>
      <use xlink:href="#DejaVuSans-69" x="555.269531"/>
      <use xlink:href="#DejaVuSans-64" x="583.052734"/>
      <use xlink:href="#DejaVuSans-74" x="646.529297"/>
      <use xlink:href="#DejaVuSans-68" x="685.738281"/>
      <use xlink:href="#DejaVuSans-20" x="749.117188"/>
      <use xlink:href="#DejaVuSans-5b" x="780.904297"/>
      <use xlink:href="#DejaVuSans-50" x="819.917969"/>
      <use xlink:href="#DejaVuSans-78" x="880.220703"/>
      <use xlink:href="#DejaVuSans-5d" x="939.400391"/>
     </g>
    </g>
   </g>
   <g id="matplotlib.axis_2">
    <g id="text_7">
     <!-- Object Density -->
     <g transform="translate(26.196094 218.107031) rotate(-90) scale(0.25 -0.25)">
      <defs>
       <path id="DejaVuSans-4f" d="M 2522 4238 
Q 1834 4238 1429 3725 
Q 1025 3213 1025 2328 
Q 1025 1447 1429 934 
Q 1834 422 2522 422 
Q 3209 422 3611 934 
Q 4013 1447 4013 2328 
Q 4013 3213 3611 3725 
Q 3209 4238 2522 4238 
z
M 2522 4750 
Q 3503 4750 4090 4092 
Q 4678 3434 4678 2328 
Q 4678 1225 4090 567 
Q 3503 -91 2522 -91 
Q 1538 -91 948 565 
Q 359 1222 359 2328 
Q 359 3434 948 4092 
Q 1538 4750 2522 4750 
z
" transform="scale(0.015625)"/>
       <path id="DejaVuSans-62" d="M 3116 1747 
Q 3116 2381 2855 2742 
Q 2594 3103 2138 3103 
Q 1681 3103 1420 2742 
Q 1159 2381 1159 1747 
Q 1159 1113 1420 752 
Q 1681 391 2138 391 
Q 2594 391 2855 752 
Q 3116 1113 3116 1747 
z
M 1159 2969 
Q 1341 3281 1617 3432 
Q 1894 3584 2278 3584 
Q 2916 3584 3314 3078 
Q 3713 2572 3713 1747 
Q 3713 922 3314 415 
Q 2916 -91 2278 -91 
Q 1894 -91 1617 61 
Q 1341 213 1159 525 
L 1159 0 
L 581 0 
L 581 4863 
L 1159 4863 
L 1159 2969 
z
" transform="scale(0.015625)"/>
       <path id="DejaVuSans-6a" d="M 603 3500 
L 1178 3500 
L 1178 -63 
Q 1178 -731 923 -1031 
Q 669 -1331 103 -1331 
L -116 -1331 
L -116 -844 
L 38 -844 
Q 366 -844 484 -692 
Q 603 -541 603 -63 
L 603 3500 
z
M 603 4863 
L 1178 4863 
L 1178 4134 
L 603 4134 
L 603 4863 
z
" transform="scale(0.015625)"/>
       <path id="DejaVuSans-65" d="M 3597 1894 
L 3597 1613 
L 953 1613 
Q 991 1019 1311 708 
Q 1631 397 2203 397 
Q 2534 397 2845 478 
Q 3156 559 3463 722 
L 3463 178 
Q 3153 47 2828 -22 
Q 2503 -91 2169 -91 
Q 1331 -91 842 396 
Q 353 884 353 1716 
Q 353 2575 817 3079 
Q 1281 3584 2069 3584 
Q 2775 3584 3186 3129 
Q 3597 2675 3597 1894 
z
M 3022 2063 
Q 3016 2534 2758 2815 
Q 2500 3097 2075 3097 
Q 1594 3097 1305 2825 
Q 1016 2553 972 2059 
L 3022 2063 
z
" transform="scale(0.015625)"/>
       <path id="DejaVuSans-63" d="M 3122 3366 
L 3122 2828 
Q 2878 2963 2633 3030 
Q 2388 3097 2138 3097 
Q 1578 3097 1268 2742 
Q 959 2388 959 1747 
Q 959 1106 1268 751 
Q 1578 397 2138 397 
Q 2388 397 2633 464 
Q 2878 531 3122 666 
L 3122 134 
Q 2881 22 2623 -34 
Q 2366 -91 2075 -91 
Q 1284 -91 818 406 
Q 353 903 353 1747 
Q 353 2603 823 3093 
Q 1294 3584 2113 3584 
Q 2378 3584 2631 3529 
Q 2884 3475 3122 3366 
z
" transform="scale(0.015625)"/>
       <path id="DejaVuSans-6e" d="M 3513 2113 
L 3513 0 
L 2938 0 
L 2938 2094 
Q 2938 2591 2744 2837 
Q 2550 3084 2163 3084 
Q 1697 3084 1428 2787 
Q 1159 2491 1159 1978 
L 1159 0 
L 581 0 
L 581 3500 
L 1159 3500 
L 1159 2956 
Q 1366 3272 1645 3428 
Q 1925 3584 2291 3584 
Q 2894 3584 3203 3211 
Q 3513 2838 3513 2113 
z
" transform="scale(0.015625)"/>
       <path id="DejaVuSans-73" d="M 2834 3397 
L 2834 2853 
Q 2591 2978 2328 3040 
Q 2066 3103 1784 3103 
Q 1356 3103 1142 2972 
Q 928 2841 928 2578 
Q 928 2378 1081 2264 
Q 1234 2150 1697 2047 
L 1894 2003 
Q 2506 1872 2764 1633 
Q 3022 1394 3022 966 
Q 3022 478 2636 193 
Q 2250 -91 1575 -91 
Q 1294 -91 989 -36 
Q 684 19 347 128 
L 347 722 
Q 666 556 975 473 
Q 1284 391 1588 391 
Q 1994 391 2212 530 
Q 2431 669 2431 922 
Q 2431 1156 2273 1281 
Q 2116 1406 1581 1522 
L 1381 1569 
Q 847 1681 609 1914 
Q 372 2147 372 2553 
Q 372 3047 722 3315 
Q 1072 3584 1716 3584 
Q 2034 3584 2315 3537 
Q 2597 3491 2834 3397 
z
" transform="scale(0.015625)"/>
       <path id="DejaVuSans-79" d="M 2059 -325 
Q 1816 -950 1584 -1140 
Q 1353 -1331 966 -1331 
L 506 -1331 
L 506 -850 
L 844 -850 
Q 1081 -850 1212 -737 
Q 1344 -625 1503 -206 
L 1606 56 
L 191 3500 
L 800 3500 
L 1894 763 
L 2988 3500 
L 3597 3500 
L 2059 -325 
z
" transform="scale(0.015625)"/>
      </defs>
      <use xlink:href="#DejaVuSans-4f"/>
      <use xlink:href="#DejaVuSans-62" x="78.710938"/>
      <use xlink:href="#DejaVuSans-6a" x="142.1875"/>
      <use xlink:href="#DejaVuSans-65" x="169.970703"/>
      <use xlink:href="#DejaVuSans-63" x="231.494141"/>
      <use xlink:href="#DejaVuSans-74" x="286.474609"/>
      <use xlink:href="#DejaVuSans-20" x="325.683594"/>
      <use xlink:href="#DejaVuSans-44" x="357.470703"/>
      <use xlink:href="#DejaVuSans-65" x="434.472656"/>
      <use xlink:href="#DejaVuSans-6e" x="495.996094"/>
      <use xlink:href="#DejaVuSans-73" x="559.375"/>
      <use xlink:href="#DejaVuSans-69" x="611.474609"/>
      <use xlink:href="#DejaVuSans-74" x="639.257812"/>
      <use xlink:href="#DejaVuSans-79" x="678.466797"/>
     </g>
    </g>
   </g>
   <g id="patch_153">
    <path d="M 35.395313 244.6 
L 35.395313 7.2 
" style="fill: none; stroke: #000000; stroke-width: 0.8; stroke-linejoin: miter; stroke-linecap: square"/>
   </g>
   <g id="patch_154">
    <path d="M 427.956654 244.6 
L 427.956654 7.2 
" style="fill: none; stroke: #000000; stroke-width: 0.8; stroke-linejoin: miter; stroke-linecap: square"/>
   </g>
   <g id="patch_155">
    <path d="M 35.395313 244.6 
L 427.956654 244.6 
" style="fill: none; stroke: #000000; stroke-width: 0.8; stroke-linejoin: miter; stroke-linecap: square"/>
   </g>
   <g id="patch_156">
    <path d="M 35.395313 7.2 
L 427.956654 7.2 
" style="fill: none; stroke: #000000; stroke-width: 0.8; stroke-linejoin: miter; stroke-linecap: square"/>
   </g>
  </g>
 </g>
 <defs>
  <clipPath id="p1ecd7a2a79">
   <rect x="35.395313" y="7.2" width="392.561341" height="237.4"/>
  </clipPath>
 </defs>
</svg>
