<?xml version="1.0" encoding="utf-8" standalone="no"?>
<!DOCTYPE svg PUBLIC "-//W3C//DTD SVG 1.1//EN"
  "http://www.w3.org/Graphics/SVG/1.1/DTD/svg11.dtd">
<svg xmlns:xlink="http://www.w3.org/1999/xlink" width="464.169687pt" height="321.990625pt" viewBox="0 0 464.169687 321.990625" xmlns="http://www.w3.org/2000/svg" version="1.1">
 <metadata>
  <rdf:RDF xmlns:dc="http://purl.org/dc/elements/1.1/" xmlns:cc="http://creativecommons.org/ns#" xmlns:rdf="http://www.w3.org/1999/02/22-rdf-syntax-ns#">
   <cc:Work>
    <dc:type rdf:resource="http://purl.org/dc/dcmitype/StillImage"/>
    <dc:date>2024-08-16T18:49:10.047609</dc:date>
    <dc:format>image/svg+xml</dc:format>
    <dc:creator>
     <cc:Agent>
      <dc:title>Matplotlib v3.7.3, https://matplotlib.org/</dc:title>
     </cc:Agent>
    </dc:creator>
   </cc:Work>
  </rdf:RDF>
 </metadata>
 <defs>
  <style type="text/css">*{stroke-linejoin: round; stroke-linecap: butt}</style>
 </defs>
 <g id="figure_1">
  <g id="patch_1">
   <path d="M 0 321.990625 
L 464.169687 321.990625 
L 464.169687 0 
L 0 0 
z
" style="fill: #ffffff"/>
  </g>
  <g id="axes_1">
   <g id="patch_2">
    <path d="M 35.395313 255.4 
L 433.110313 255.4 
L 433.110313 7.2 
L 35.395313 7.2 
z
" style="fill: #ffffff"/>
   </g>
   <g id="patch_3">
    <path d="M 30.125589 255.4 
L 43.52356 255.4 
L 43.52356 248.244248 
L 30.125589 248.244248 
z
" clip-path="url(#pdc562b89ab)" style="fill: #ff0000; opacity: 0.5; stroke: #000000; stroke-linejoin: miter"/>
   </g>
   <g id="patch_4">
    <path d="M 43.52356 255.4 
L 56.921531 255.4 
L 56.921531 160.525857 
L 43.52356 160.525857 
z
" clip-path="url(#pdc562b89ab)" style="fill: #ff0000; opacity: 0.5; stroke: #000000; stroke-linejoin: miter"/>
   </g>
   <g id="patch_5">
    <path d="M 56.921531 255.4 
L 70.319502 255.4 
L 70.319502 103.415788 
L 56.921531 103.415788 
z
" clip-path="url(#pdc562b89ab)" style="fill: #ff0000; opacity: 0.5; stroke: #000000; stroke-linejoin: miter"/>
   </g>
   <g id="patch_6">
    <path d="M 70.319502 255.4 
L 83.717472 255.4 
L 83.717472 69.600757 
L 70.319502 69.600757 
z
" clip-path="url(#pdc562b89ab)" style="fill: #ff0000; opacity: 0.5; stroke: #000000; stroke-linejoin: miter"/>
   </g>
   <g id="patch_7">
    <path d="M 83.717472 255.4 
L 97.115443 255.4 
L 97.115443 63.769984 
L 83.717472 63.769984 
z
" clip-path="url(#pdc562b89ab)" style="fill: #ff0000; opacity: 0.5; stroke: #000000; stroke-linejoin: miter"/>
   </g>
   <g id="patch_8">
    <path d="M 97.115443 255.4 
L 110.513414 255.4 
L 110.513414 101.134837 
L 97.115443 101.134837 
z
" clip-path="url(#pdc562b89ab)" style="fill: #ff0000; opacity: 0.5; stroke: #000000; stroke-linejoin: miter"/>
   </g>
   <g id="patch_9">
    <path d="M 110.513414 255.4 
L 123.911385 255.4 
L 123.911385 160.3338 
L 110.513414 160.3338 
z
" clip-path="url(#pdc562b89ab)" style="fill: #ff0000; opacity: 0.5; stroke: #000000; stroke-linejoin: miter"/>
   </g>
   <g id="patch_10">
    <path d="M 123.911385 255.4 
L 137.309356 255.4 
L 137.309356 202.575614 
L 123.911385 202.575614 
z
" clip-path="url(#pdc562b89ab)" style="fill: #ff0000; opacity: 0.5; stroke: #000000; stroke-linejoin: miter"/>
   </g>
   <g id="patch_11">
    <path d="M 137.309356 255.4 
L 150.707327 255.4 
L 150.707327 226.539616 
L 137.309356 226.539616 
z
" clip-path="url(#pdc562b89ab)" style="fill: #ff0000; opacity: 0.5; stroke: #000000; stroke-linejoin: miter"/>
   </g>
   <g id="patch_12">
    <path d="M 150.707327 255.4 
L 164.105298 255.4 
L 164.105298 240.590009 
L 150.707327 240.590009 
z
" clip-path="url(#pdc562b89ab)" style="fill: #ff0000; opacity: 0.5; stroke: #000000; stroke-linejoin: miter"/>
   </g>
   <g id="patch_13">
    <path d="M 164.105298 255.4 
L 177.503269 255.4 
L 177.503269 246.930058 
L 164.105298 246.930058 
z
" clip-path="url(#pdc562b89ab)" style="fill: #ff0000; opacity: 0.5; stroke: #000000; stroke-linejoin: miter"/>
   </g>
   <g id="patch_14">
    <path d="M 177.503269 255.4 
L 190.90124 255.4 
L 190.90124 252.3724 
L 177.503269 252.3724 
z
" clip-path="url(#pdc562b89ab)" style="fill: #ff0000; opacity: 0.5; stroke: #000000; stroke-linejoin: miter"/>
   </g>
   <g id="patch_15">
    <path d="M 190.90124 255.4 
L 204.299211 255.4 
L 204.299211 255.235996 
L 190.90124 255.235996 
z
" clip-path="url(#pdc562b89ab)" style="fill: #ff0000; opacity: 0.5; stroke: #000000; stroke-linejoin: miter"/>
   </g>
   <g id="patch_16">
    <path d="M 204.299211 255.4 
L 217.697182 255.4 
L 217.697182 255.4 
L 204.299211 255.4 
z
" clip-path="url(#pdc562b89ab)" style="fill: #ff0000; opacity: 0.5; stroke: #000000; stroke-linejoin: miter"/>
   </g>
   <g id="patch_17">
    <path d="M 217.697182 255.4 
L 231.095153 255.4 
L 231.095153 255.4 
L 217.697182 255.4 
z
" clip-path="url(#pdc562b89ab)" style="fill: #ff0000; opacity: 0.5; stroke: #000000; stroke-linejoin: miter"/>
   </g>
   <g id="patch_18">
    <path d="M 231.095153 255.4 
L 244.493124 255.4 
L 244.493124 255.4 
L 231.095153 255.4 
z
" clip-path="url(#pdc562b89ab)" style="fill: #ff0000; opacity: 0.5; stroke: #000000; stroke-linejoin: miter"/>
   </g>
   <g id="patch_19">
    <path d="M 244.493124 255.4 
L 257.891095 255.4 
L 257.891095 255.4 
L 244.493124 255.4 
z
" clip-path="url(#pdc562b89ab)" style="fill: #ff0000; opacity: 0.5; stroke: #000000; stroke-linejoin: miter"/>
   </g>
   <g id="patch_20">
    <path d="M 257.891095 255.4 
L 271.289065 255.4 
L 271.289065 255.4 
L 257.891095 255.4 
z
" clip-path="url(#pdc562b89ab)" style="fill: #ff0000; opacity: 0.5; stroke: #000000; stroke-linejoin: miter"/>
   </g>
   <g id="patch_21">
    <path d="M 271.289065 255.4 
L 284.687036 255.4 
L 284.687036 255.4 
L 271.289065 255.4 
z
" clip-path="url(#pdc562b89ab)" style="fill: #ff0000; opacity: 0.5; stroke: #000000; stroke-linejoin: miter"/>
   </g>
   <g id="patch_22">
    <path d="M 284.687036 255.4 
L 298.085007 255.4 
L 298.085007 255.4 
L 284.687036 255.4 
z
" clip-path="url(#pdc562b89ab)" style="fill: #ff0000; opacity: 0.5; stroke: #000000; stroke-linejoin: miter"/>
   </g>
   <g id="patch_23">
    <path d="M 298.085007 255.4 
L 311.482978 255.4 
L 311.482978 255.4 
L 298.085007 255.4 
z
" clip-path="url(#pdc562b89ab)" style="fill: #ff0000; opacity: 0.5; stroke: #000000; stroke-linejoin: miter"/>
   </g>
   <g id="patch_24">
    <path d="M 311.482978 255.4 
L 324.880949 255.4 
L 324.880949 255.4 
L 311.482978 255.4 
z
" clip-path="url(#pdc562b89ab)" style="fill: #ff0000; opacity: 0.5; stroke: #000000; stroke-linejoin: miter"/>
   </g>
   <g id="patch_25">
    <path d="M 324.880949 255.4 
L 338.27892 255.4 
L 338.27892 255.4 
L 324.880949 255.4 
z
" clip-path="url(#pdc562b89ab)" style="fill: #ff0000; opacity: 0.5; stroke: #000000; stroke-linejoin: miter"/>
   </g>
   <g id="patch_26">
    <path d="M 338.27892 255.4 
L 351.676891 255.4 
L 351.676891 255.4 
L 338.27892 255.4 
z
" clip-path="url(#pdc562b89ab)" style="fill: #ff0000; opacity: 0.5; stroke: #000000; stroke-linejoin: miter"/>
   </g>
   <g id="patch_27">
    <path d="M 351.676891 255.4 
L 365.074862 255.4 
L 365.074862 255.4 
L 351.676891 255.4 
z
" clip-path="url(#pdc562b89ab)" style="fill: #ff0000; opacity: 0.5; stroke: #000000; stroke-linejoin: miter"/>
   </g>
   <g id="patch_28">
    <path d="M 365.074862 255.4 
L 378.472833 255.4 
L 378.472833 255.4 
L 365.074862 255.4 
z
" clip-path="url(#pdc562b89ab)" style="fill: #ff0000; opacity: 0.5; stroke: #000000; stroke-linejoin: miter"/>
   </g>
   <g id="patch_29">
    <path d="M 378.472833 255.4 
L 391.870804 255.4 
L 391.870804 255.4 
L 378.472833 255.4 
z
" clip-path="url(#pdc562b89ab)" style="fill: #ff0000; opacity: 0.5; stroke: #000000; stroke-linejoin: miter"/>
   </g>
   <g id="patch_30">
    <path d="M 391.870804 255.4 
L 405.268775 255.4 
L 405.268775 255.4 
L 391.870804 255.4 
z
" clip-path="url(#pdc562b89ab)" style="fill: #ff0000; opacity: 0.5; stroke: #000000; stroke-linejoin: miter"/>
   </g>
   <g id="patch_31">
    <path d="M 405.268775 255.4 
L 418.666746 255.4 
L 418.666746 255.4 
L 405.268775 255.4 
z
" clip-path="url(#pdc562b89ab)" style="fill: #ff0000; opacity: 0.5; stroke: #000000; stroke-linejoin: miter"/>
   </g>
   <g id="patch_32">
    <path d="M 418.666746 255.4 
L 432.064717 255.4 
L 432.064717 255.4 
L 418.666746 255.4 
z
" clip-path="url(#pdc562b89ab)" style="fill: #ff0000; opacity: 0.5; stroke: #000000; stroke-linejoin: miter"/>
   </g>
   <g id="patch_33">
    <path d="M 30.125589 255.4 
L 43.52356 255.4 
L 43.52356 255.4 
L 30.125589 255.4 
z
" clip-path="url(#pdc562b89ab)" style="fill: #0000ff; opacity: 0.5; stroke: #000000; stroke-linejoin: miter"/>
   </g>
   <g id="patch_34">
    <path d="M 43.52356 255.4 
L 56.921531 255.4 
L 56.921531 255.025982 
L 43.52356 255.025982 
z
" clip-path="url(#pdc562b89ab)" style="fill: #0000ff; opacity: 0.5; stroke: #000000; stroke-linejoin: miter"/>
   </g>
   <g id="patch_35">
    <path d="M 56.921531 255.4 
L 70.319502 255.4 
L 70.319502 236.34463 
L 56.921531 236.34463 
z
" clip-path="url(#pdc562b89ab)" style="fill: #0000ff; opacity: 0.5; stroke: #000000; stroke-linejoin: miter"/>
   </g>
   <g id="patch_36">
    <path d="M 70.319502 255.4 
L 83.717472 255.4 
L 83.717472 189.470353 
L 70.319502 189.470353 
z
" clip-path="url(#pdc562b89ab)" style="fill: #0000ff; opacity: 0.5; stroke: #000000; stroke-linejoin: miter"/>
   </g>
   <g id="patch_37">
    <path d="M 83.717472 255.4 
L 97.115443 255.4 
L 97.115443 216.397672 
L 83.717472 216.397672 
z
" clip-path="url(#pdc562b89ab)" style="fill: #0000ff; opacity: 0.5; stroke: #000000; stroke-linejoin: miter"/>
   </g>
   <g id="patch_38">
    <path d="M 97.115443 255.4 
L 110.513414 255.4 
L 110.513414 211.584269 
L 97.115443 211.584269 
z
" clip-path="url(#pdc562b89ab)" style="fill: #0000ff; opacity: 0.5; stroke: #000000; stroke-linejoin: miter"/>
   </g>
   <g id="patch_39">
    <path d="M 110.513414 255.4 
L 123.911385 255.4 
L 123.911385 217.187699 
L 110.513414 217.187699 
z
" clip-path="url(#pdc562b89ab)" style="fill: #0000ff; opacity: 0.5; stroke: #000000; stroke-linejoin: miter"/>
   </g>
   <g id="patch_40">
    <path d="M 123.911385 255.4 
L 137.309356 255.4 
L 137.309356 206.582393 
L 123.911385 206.582393 
z
" clip-path="url(#pdc562b89ab)" style="fill: #0000ff; opacity: 0.5; stroke: #000000; stroke-linejoin: miter"/>
   </g>
   <g id="patch_41">
    <path d="M 137.309356 255.4 
L 150.707327 255.4 
L 150.707327 172.666901 
L 137.309356 172.666901 
z
" clip-path="url(#pdc562b89ab)" style="fill: #0000ff; opacity: 0.5; stroke: #000000; stroke-linejoin: miter"/>
   </g>
   <g id="patch_42">
    <path d="M 150.707327 255.4 
L 164.105298 255.4 
L 164.105298 156.587071 
L 150.707327 156.587071 
z
" clip-path="url(#pdc562b89ab)" style="fill: #0000ff; opacity: 0.5; stroke: #000000; stroke-linejoin: miter"/>
   </g>
   <g id="patch_43">
    <path d="M 164.105298 255.4 
L 177.503269 255.4 
L 177.503269 165.306663 
L 164.105298 165.306663 
z
" clip-path="url(#pdc562b89ab)" style="fill: #0000ff; opacity: 0.5; stroke: #000000; stroke-linejoin: miter"/>
   </g>
   <g id="patch_44">
    <path d="M 177.503269 255.4 
L 190.90124 255.4 
L 190.90124 174.786009 
L 177.503269 174.786009 
z
" clip-path="url(#pdc562b89ab)" style="fill: #0000ff; opacity: 0.5; stroke: #000000; stroke-linejoin: miter"/>
   </g>
   <g id="patch_45">
    <path d="M 190.90124 255.4 
L 204.299211 255.4 
L 204.299211 187.243825 
L 190.90124 187.243825 
z
" clip-path="url(#pdc562b89ab)" style="fill: #0000ff; opacity: 0.5; stroke: #000000; stroke-linejoin: miter"/>
   </g>
   <g id="patch_46">
    <path d="M 204.299211 255.4 
L 217.697182 255.4 
L 217.697182 189.012352 
L 204.299211 189.012352 
z
" clip-path="url(#pdc562b89ab)" style="fill: #0000ff; opacity: 0.5; stroke: #000000; stroke-linejoin: miter"/>
   </g>
   <g id="patch_47">
    <path d="M 217.697182 255.4 
L 231.095153 255.4 
L 231.095153 200.757288 
L 217.697182 200.757288 
z
" clip-path="url(#pdc562b89ab)" style="fill: #0000ff; opacity: 0.5; stroke: #000000; stroke-linejoin: miter"/>
   </g>
   <g id="patch_48">
    <path d="M 231.095153 255.4 
L 244.493124 255.4 
L 244.493124 212.361601 
L 231.095153 212.361601 
z
" clip-path="url(#pdc562b89ab)" style="fill: #0000ff; opacity: 0.5; stroke: #000000; stroke-linejoin: miter"/>
   </g>
   <g id="patch_49">
    <path d="M 244.493124 255.4 
L 257.891095 255.4 
L 257.891095 225.186599 
L 244.493124 225.186599 
z
" clip-path="url(#pdc562b89ab)" style="fill: #0000ff; opacity: 0.5; stroke: #000000; stroke-linejoin: miter"/>
   </g>
   <g id="patch_50">
    <path d="M 257.891095 255.4 
L 271.289065 255.4 
L 271.289065 232.407191 
L 257.891095 232.407191 
z
" clip-path="url(#pdc562b89ab)" style="fill: #0000ff; opacity: 0.5; stroke: #000000; stroke-linejoin: miter"/>
   </g>
   <g id="patch_51">
    <path d="M 271.289065 255.4 
L 284.687036 255.4 
L 284.687036 237.780155 
L 271.289065 237.780155 
z
" clip-path="url(#pdc562b89ab)" style="fill: #0000ff; opacity: 0.5; stroke: #000000; stroke-linejoin: miter"/>
   </g>
   <g id="patch_52">
    <path d="M 284.687036 255.4 
L 298.085007 255.4 
L 298.085007 237.15907 
L 284.687036 237.15907 
z
" clip-path="url(#pdc562b89ab)" style="fill: #0000ff; opacity: 0.5; stroke: #000000; stroke-linejoin: miter"/>
   </g>
   <g id="patch_53">
    <path d="M 298.085007 255.4 
L 311.482978 255.4 
L 311.482978 246.772203 
L 298.085007 246.772203 
z
" clip-path="url(#pdc562b89ab)" style="fill: #0000ff; opacity: 0.5; stroke: #000000; stroke-linejoin: miter"/>
   </g>
   <g id="patch_54">
    <path d="M 311.482978 255.4 
L 324.880949 255.4 
L 324.880949 249.016309 
L 311.482978 249.016309 
z
" clip-path="url(#pdc562b89ab)" style="fill: #0000ff; opacity: 0.5; stroke: #000000; stroke-linejoin: miter"/>
   </g>
   <g id="patch_55">
    <path d="M 324.880949 255.4 
L 338.27892 255.4 
L 338.27892 250.386405 
L 324.880949 250.386405 
z
" clip-path="url(#pdc562b89ab)" style="fill: #0000ff; opacity: 0.5; stroke: #000000; stroke-linejoin: miter"/>
   </g>
   <g id="patch_56">
    <path d="M 338.27892 255.4 
L 351.676891 255.4 
L 351.676891 250.581715 
L 338.27892 250.581715 
z
" clip-path="url(#pdc562b89ab)" style="fill: #0000ff; opacity: 0.5; stroke: #000000; stroke-linejoin: miter"/>
   </g>
   <g id="patch_57">
    <path d="M 351.676891 255.4 
L 365.074862 255.4 
L 365.074862 249.490911 
L 351.676891 249.490911 
z
" clip-path="url(#pdc562b89ab)" style="fill: #0000ff; opacity: 0.5; stroke: #000000; stroke-linejoin: miter"/>
   </g>
   <g id="patch_58">
    <path d="M 365.074862 255.4 
L 378.472833 255.4 
L 378.472833 248.761431 
L 365.074862 248.761431 
z
" clip-path="url(#pdc562b89ab)" style="fill: #0000ff; opacity: 0.5; stroke: #000000; stroke-linejoin: miter"/>
   </g>
   <g id="patch_59">
    <path d="M 378.472833 255.4 
L 391.870804 255.4 
L 391.870804 248.43917 
L 378.472833 248.43917 
z
" clip-path="url(#pdc562b89ab)" style="fill: #0000ff; opacity: 0.5; stroke: #000000; stroke-linejoin: miter"/>
   </g>
   <g id="patch_60">
    <path d="M 391.870804 255.4 
L 405.268775 255.4 
L 405.268775 248.373741 
L 391.870804 248.373741 
z
" clip-path="url(#pdc562b89ab)" style="fill: #0000ff; opacity: 0.5; stroke: #000000; stroke-linejoin: miter"/>
   </g>
   <g id="patch_61">
    <path d="M 405.268775 255.4 
L 418.666746 255.4 
L 418.666746 249.583683 
L 405.268775 249.583683 
z
" clip-path="url(#pdc562b89ab)" style="fill: #0000ff; opacity: 0.5; stroke: #000000; stroke-linejoin: miter"/>
   </g>
   <g id="patch_62">
    <path d="M 418.666746 255.4 
L 432.064717 255.4 
L 432.064717 252.415671 
L 418.666746 252.415671 
z
" clip-path="url(#pdc562b89ab)" style="fill: #0000ff; opacity: 0.5; stroke: #000000; stroke-linejoin: miter"/>
   </g>
   <g id="patch_63">
    <path d="M 30.125589 255.4 
L 43.52356 255.4 
L 43.52356 255.4 
L 30.125589 255.4 
z
" clip-path="url(#pdc562b89ab)" style="fill: #008000; opacity: 0.5; stroke: #000000; stroke-linejoin: miter"/>
   </g>
   <g id="patch_64">
    <path d="M 43.52356 255.4 
L 56.921531 255.4 
L 56.921531 255.38494 
L 43.52356 255.38494 
z
" clip-path="url(#pdc562b89ab)" style="fill: #008000; opacity: 0.5; stroke: #000000; stroke-linejoin: miter"/>
   </g>
   <g id="patch_65">
    <path d="M 56.921531 255.4 
L 70.319502 255.4 
L 70.319502 242.922634 
L 56.921531 242.922634 
z
" clip-path="url(#pdc562b89ab)" style="fill: #008000; opacity: 0.5; stroke: #000000; stroke-linejoin: miter"/>
   </g>
   <g id="patch_66">
    <path d="M 70.319502 255.4 
L 83.717472 255.4 
L 83.717472 206.036467 
L 70.319502 206.036467 
z
" clip-path="url(#pdc562b89ab)" style="fill: #008000; opacity: 0.5; stroke: #000000; stroke-linejoin: miter"/>
   </g>
   <g id="patch_67">
    <path d="M 83.717472 255.4 
L 97.115443 255.4 
L 97.115443 111.891465 
L 83.717472 111.891465 
z
" clip-path="url(#pdc562b89ab)" style="fill: #008000; opacity: 0.5; stroke: #000000; stroke-linejoin: miter"/>
   </g>
   <g id="patch_68">
    <path d="M 97.115443 255.4 
L 110.513414 255.4 
L 110.513414 19.019048 
L 97.115443 19.019048 
z
" clip-path="url(#pdc562b89ab)" style="fill: #008000; opacity: 0.5; stroke: #000000; stroke-linejoin: miter"/>
   </g>
   <g id="patch_69">
    <path d="M 110.513414 255.4 
L 123.911385 255.4 
L 123.911385 83.111444 
L 110.513414 83.111444 
z
" clip-path="url(#pdc562b89ab)" style="fill: #008000; opacity: 0.5; stroke: #000000; stroke-linejoin: miter"/>
   </g>
   <g id="patch_70">
    <path d="M 123.911385 255.4 
L 137.309356 255.4 
L 137.309356 108.069942 
L 123.911385 108.069942 
z
" clip-path="url(#pdc562b89ab)" style="fill: #008000; opacity: 0.5; stroke: #000000; stroke-linejoin: miter"/>
   </g>
   <g id="patch_71">
    <path d="M 137.309356 255.4 
L 150.707327 255.4 
L 150.707327 139.990011 
L 137.309356 139.990011 
z
" clip-path="url(#pdc562b89ab)" style="fill: #008000; opacity: 0.5; stroke: #000000; stroke-linejoin: miter"/>
   </g>
   <g id="patch_72">
    <path d="M 150.707327 255.4 
L 164.105298 255.4 
L 164.105298 177.211267 
L 150.707327 177.211267 
z
" clip-path="url(#pdc562b89ab)" style="fill: #008000; opacity: 0.5; stroke: #000000; stroke-linejoin: miter"/>
   </g>
   <g id="patch_73">
    <path d="M 164.105298 255.4 
L 177.503269 255.4 
L 177.503269 221.431745 
L 164.105298 221.431745 
z
" clip-path="url(#pdc562b89ab)" style="fill: #008000; opacity: 0.5; stroke: #000000; stroke-linejoin: miter"/>
   </g>
   <g id="patch_74">
    <path d="M 177.503269 255.4 
L 190.90124 255.4 
L 190.90124 255.4 
L 177.503269 255.4 
z
" clip-path="url(#pdc562b89ab)" style="fill: #008000; opacity: 0.5; stroke: #000000; stroke-linejoin: miter"/>
   </g>
   <g id="patch_75">
    <path d="M 190.90124 255.4 
L 204.299211 255.4 
L 204.299211 255.4 
L 190.90124 255.4 
z
" clip-path="url(#pdc562b89ab)" style="fill: #008000; opacity: 0.5; stroke: #000000; stroke-linejoin: miter"/>
   </g>
   <g id="patch_76">
    <path d="M 204.299211 255.4 
L 217.697182 255.4 
L 217.697182 255.4 
L 204.299211 255.4 
z
" clip-path="url(#pdc562b89ab)" style="fill: #008000; opacity: 0.5; stroke: #000000; stroke-linejoin: miter"/>
   </g>
   <g id="patch_77">
    <path d="M 217.697182 255.4 
L 231.095153 255.4 
L 231.095153 255.4 
L 217.697182 255.4 
z
" clip-path="url(#pdc562b89ab)" style="fill: #008000; opacity: 0.5; stroke: #000000; stroke-linejoin: miter"/>
   </g>
   <g id="patch_78">
    <path d="M 231.095153 255.4 
L 244.493124 255.4 
L 244.493124 255.4 
L 231.095153 255.4 
z
" clip-path="url(#pdc562b89ab)" style="fill: #008000; opacity: 0.5; stroke: #000000; stroke-linejoin: miter"/>
   </g>
   <g id="patch_79">
    <path d="M 244.493124 255.4 
L 257.891095 255.4 
L 257.891095 255.4 
L 244.493124 255.4 
z
" clip-path="url(#pdc562b89ab)" style="fill: #008000; opacity: 0.5; stroke: #000000; stroke-linejoin: miter"/>
   </g>
   <g id="patch_80">
    <path d="M 257.891095 255.4 
L 271.289065 255.4 
L 271.289065 255.4 
L 257.891095 255.4 
z
" clip-path="url(#pdc562b89ab)" style="fill: #008000; opacity: 0.5; stroke: #000000; stroke-linejoin: miter"/>
   </g>
   <g id="patch_81">
    <path d="M 271.289065 255.4 
L 284.687036 255.4 
L 284.687036 255.4 
L 271.289065 255.4 
z
" clip-path="url(#pdc562b89ab)" style="fill: #008000; opacity: 0.5; stroke: #000000; stroke-linejoin: miter"/>
   </g>
   <g id="patch_82">
    <path d="M 284.687036 255.4 
L 298.085007 255.4 
L 298.085007 255.4 
L 284.687036 255.4 
z
" clip-path="url(#pdc562b89ab)" style="fill: #008000; opacity: 0.5; stroke: #000000; stroke-linejoin: miter"/>
   </g>
   <g id="patch_83">
    <path d="M 298.085007 255.4 
L 311.482978 255.4 
L 311.482978 255.4 
L 298.085007 255.4 
z
" clip-path="url(#pdc562b89ab)" style="fill: #008000; opacity: 0.5; stroke: #000000; stroke-linejoin: miter"/>
   </g>
   <g id="patch_84">
    <path d="M 311.482978 255.4 
L 324.880949 255.4 
L 324.880949 255.4 
L 311.482978 255.4 
z
" clip-path="url(#pdc562b89ab)" style="fill: #008000; opacity: 0.5; stroke: #000000; stroke-linejoin: miter"/>
   </g>
   <g id="patch_85">
    <path d="M 324.880949 255.4 
L 338.27892 255.4 
L 338.27892 255.4 
L 324.880949 255.4 
z
" clip-path="url(#pdc562b89ab)" style="fill: #008000; opacity: 0.5; stroke: #000000; stroke-linejoin: miter"/>
   </g>
   <g id="patch_86">
    <path d="M 338.27892 255.4 
L 351.676891 255.4 
L 351.676891 255.4 
L 338.27892 255.4 
z
" clip-path="url(#pdc562b89ab)" style="fill: #008000; opacity: 0.5; stroke: #000000; stroke-linejoin: miter"/>
   </g>
   <g id="patch_87">
    <path d="M 351.676891 255.4 
L 365.074862 255.4 
L 365.074862 255.4 
L 351.676891 255.4 
z
" clip-path="url(#pdc562b89ab)" style="fill: #008000; opacity: 0.5; stroke: #000000; stroke-linejoin: miter"/>
   </g>
   <g id="patch_88">
    <path d="M 365.074862 255.4 
L 378.472833 255.4 
L 378.472833 255.4 
L 365.074862 255.4 
z
" clip-path="url(#pdc562b89ab)" style="fill: #008000; opacity: 0.5; stroke: #000000; stroke-linejoin: miter"/>
   </g>
   <g id="patch_89">
    <path d="M 378.472833 255.4 
L 391.870804 255.4 
L 391.870804 255.4 
L 378.472833 255.4 
z
" clip-path="url(#pdc562b89ab)" style="fill: #008000; opacity: 0.5; stroke: #000000; stroke-linejoin: miter"/>
   </g>
   <g id="patch_90">
    <path d="M 391.870804 255.4 
L 405.268775 255.4 
L 405.268775 255.4 
L 391.870804 255.4 
z
" clip-path="url(#pdc562b89ab)" style="fill: #008000; opacity: 0.5; stroke: #000000; stroke-linejoin: miter"/>
   </g>
   <g id="patch_91">
    <path d="M 405.268775 255.4 
L 418.666746 255.4 
L 418.666746 255.4 
L 405.268775 255.4 
z
" clip-path="url(#pdc562b89ab)" style="fill: #008000; opacity: 0.5; stroke: #000000; stroke-linejoin: miter"/>
   </g>
   <g id="patch_92">
    <path d="M 418.666746 255.4 
L 432.064717 255.4 
L 432.064717 255.4 
L 418.666746 255.4 
z
" clip-path="url(#pdc562b89ab)" style="fill: #008000; opacity: 0.5; stroke: #000000; stroke-linejoin: miter"/>
   </g>
   <g id="matplotlib.axis_1">
    <g id="xtick_1">
     <g id="line2d_1">
      <defs>
       <path id="m5bf44a00f1" d="M 0 0 
L 0 3.5 
" style="stroke: #000000; stroke-width: 0.8"/>
      </defs>
      <g>
       <use xlink:href="#m5bf44a00f1" x="35.395313" y="255.4" style="stroke: #000000; stroke-width: 0.8"/>
      </g>
     </g>
     <g id="text_1">
      <!-- 0 -->
      <g transform="translate(27.442188 281.396094) scale(0.25 -0.25)">
       <defs>
        <path id="DejaVuSans-30" d="M 2034 4250 
Q 1547 4250 1301 3770 
Q 1056 3291 1056 2328 
Q 1056 1369 1301 889 
Q 1547 409 2034 409 
Q 2525 409 2770 889 
Q 3016 1369 3016 2328 
Q 3016 3291 2770 3770 
Q 2525 4250 2034 4250 
z
M 2034 4750 
Q 2819 4750 3233 4129 
Q 3647 3509 3647 2328 
Q 3647 1150 3233 529 
Q 2819 -91 2034 -91 
Q 1250 -91 836 529 
Q 422 1150 422 2328 
Q 422 3509 836 4129 
Q 1250 4750 2034 4750 
z
" transform="scale(0.015625)"/>
       </defs>
       <use xlink:href="#DejaVuSans-30"/>
      </g>
     </g>
    </g>
    <g id="xtick_2">
     <g id="line2d_2">
      <g>
       <use xlink:href="#m5bf44a00f1" x="134.824063" y="255.4" style="stroke: #000000; stroke-width: 0.8"/>
      </g>
     </g>
     <g id="text_2">
      <!-- 50 -->
      <g transform="translate(118.917813 281.396094) scale(0.25 -0.25)">
       <defs>
        <path id="DejaVuSans-35" d="M 691 4666 
L 3169 4666 
L 3169 4134 
L 1269 4134 
L 1269 2991 
Q 1406 3038 1543 3061 
Q 1681 3084 1819 3084 
Q 2600 3084 3056 2656 
Q 3513 2228 3513 1497 
Q 3513 744 3044 326 
Q 2575 -91 1722 -91 
Q 1428 -91 1123 -41 
Q 819 9 494 109 
L 494 744 
Q 775 591 1075 516 
Q 1375 441 1709 441 
Q 2250 441 2565 725 
Q 2881 1009 2881 1497 
Q 2881 1984 2565 2268 
Q 2250 2553 1709 2553 
Q 1456 2553 1204 2497 
Q 953 2441 691 2322 
L 691 4666 
z
" transform="scale(0.015625)"/>
       </defs>
       <use xlink:href="#DejaVuSans-35"/>
       <use xlink:href="#DejaVuSans-30" x="63.623047"/>
      </g>
     </g>
    </g>
    <g id="xtick_3">
     <g id="line2d_3">
      <g>
       <use xlink:href="#m5bf44a00f1" x="234.252813" y="255.4" style="stroke: #000000; stroke-width: 0.8"/>
      </g>
     </g>
     <g id="text_3">
      <!-- 100 -->
      <g transform="translate(210.393438 281.396094) scale(0.25 -0.25)">
       <defs>
        <path id="DejaVuSans-31" d="M 794 531 
L 1825 531 
L 1825 4091 
L 703 3866 
L 703 4441 
L 1819 4666 
L 2450 4666 
L 2450 531 
L 3481 531 
L 3481 0 
L 794 0 
L 794 531 
z
" transform="scale(0.015625)"/>
       </defs>
       <use xlink:href="#DejaVuSans-31"/>
       <use xlink:href="#DejaVuSans-30" x="63.623047"/>
       <use xlink:href="#DejaVuSans-30" x="127.246094"/>
      </g>
     </g>
    </g>
    <g id="xtick_4">
     <g id="line2d_4">
      <g>
       <use xlink:href="#m5bf44a00f1" x="333.681563" y="255.4" style="stroke: #000000; stroke-width: 0.8"/>
      </g>
     </g>
     <g id="text_4">
      <!-- 150 -->
      <g transform="translate(309.822188 281.396094) scale(0.25 -0.25)">
       <use xlink:href="#DejaVuSans-31"/>
       <use xlink:href="#DejaVuSans-35" x="63.623047"/>
       <use xlink:href="#DejaVuSans-30" x="127.246094"/>
      </g>
     </g>
    </g>
    <g id="xtick_5">
     <g id="line2d_5">
      <g>
       <use xlink:href="#m5bf44a00f1" x="433.110313" y="255.4" style="stroke: #000000; stroke-width: 0.8"/>
      </g>
     </g>
     <g id="text_5">
      <!-- 200 -->
      <g transform="translate(409.250938 281.396094) scale(0.25 -0.25)">
       <defs>
        <path id="DejaVuSans-32" d="M 1228 531 
L 3431 531 
L 3431 0 
L 469 0 
L 469 531 
Q 828 903 1448 1529 
Q 2069 2156 2228 2338 
Q 2531 2678 2651 2914 
Q 2772 3150 2772 3378 
Q 2772 3750 2511 3984 
Q 2250 4219 1831 4219 
Q 1534 4219 1204 4116 
Q 875 4013 500 3803 
L 500 4441 
Q 881 4594 1212 4672 
Q 1544 4750 1819 4750 
Q 2544 4750 2975 4387 
Q 3406 4025 3406 3419 
Q 3406 3131 3298 2873 
Q 3191 2616 2906 2266 
Q 2828 2175 2409 1742 
Q 1991 1309 1228 531 
z
" transform="scale(0.015625)"/>
       </defs>
       <use xlink:href="#DejaVuSans-32"/>
       <use xlink:href="#DejaVuSans-30" x="63.623047"/>
       <use xlink:href="#DejaVuSans-30" x="127.246094"/>
      </g>
     </g>
    </g>
    <g id="text_6">
     <!-- Depth [m] -->
     <g transform="translate(170.27625 309.591406) scale(0.25 -0.25)">
      <defs>
       <path id="DejaVuSans-44" d="M 1259 4147 
L 1259 519 
L 2022 519 
Q 2988 519 3436 956 
Q 3884 1394 3884 2338 
Q 3884 3275 3436 3711 
Q 2988 4147 2022 4147 
L 1259 4147 
z
M 628 4666 
L 1925 4666 
Q 3281 4666 3915 4102 
Q 4550 3538 4550 2338 
Q 4550 1131 3912 565 
Q 3275 0 1925 0 
L 628 0 
L 628 4666 
z
" transform="scale(0.015625)"/>
       <path id="DejaVuSans-65" d="M 3597 1894 
L 3597 1613 
L 953 1613 
Q 991 1019 1311 708 
Q 1631 397 2203 397 
Q 2534 397 2845 478 
Q 3156 559 3463 722 
L 3463 178 
Q 3153 47 2828 -22 
Q 2503 -91 2169 -91 
Q 1331 -91 842 396 
Q 353 884 353 1716 
Q 353 2575 817 3079 
Q 1281 3584 2069 3584 
Q 2775 3584 3186 3129 
Q 3597 2675 3597 1894 
z
M 3022 2063 
Q 3016 2534 2758 2815 
Q 2500 3097 2075 3097 
Q 1594 3097 1305 2825 
Q 1016 2553 972 2059 
L 3022 2063 
z
" transform="scale(0.015625)"/>
       <path id="DejaVuSans-70" d="M 1159 525 
L 1159 -1331 
L 581 -1331 
L 581 3500 
L 1159 3500 
L 1159 2969 
Q 1341 3281 1617 3432 
Q 1894 3584 2278 3584 
Q 2916 3584 3314 3078 
Q 3713 2572 3713 1747 
Q 3713 922 3314 415 
Q 2916 -91 2278 -91 
Q 1894 -91 1617 61 
Q 1341 213 1159 525 
z
M 3116 1747 
Q 3116 2381 2855 2742 
Q 2594 3103 2138 3103 
Q 1681 3103 1420 2742 
Q 1159 2381 1159 1747 
Q 1159 1113 1420 752 
Q 1681 391 2138 391 
Q 2594 391 2855 752 
Q 3116 1113 3116 1747 
z
" transform="scale(0.015625)"/>
       <path id="DejaVuSans-74" d="M 1172 4494 
L 1172 3500 
L 2356 3500 
L 2356 3053 
L 1172 3053 
L 1172 1153 
Q 1172 725 1289 603 
Q 1406 481 1766 481 
L 2356 481 
L 2356 0 
L 1766 0 
Q 1100 0 847 248 
Q 594 497 594 1153 
L 594 3053 
L 172 3053 
L 172 3500 
L 594 3500 
L 594 4494 
L 1172 4494 
z
" transform="scale(0.015625)"/>
       <path id="DejaVuSans-68" d="M 3513 2113 
L 3513 0 
L 2938 0 
L 2938 2094 
Q 2938 2591 2744 2837 
Q 2550 3084 2163 3084 
Q 1697 3084 1428 2787 
Q 1159 2491 1159 1978 
L 1159 0 
L 581 0 
L 581 4863 
L 1159 4863 
L 1159 2956 
Q 1366 3272 1645 3428 
Q 1925 3584 2291 3584 
Q 2894 3584 3203 3211 
Q 3513 2838 3513 2113 
z
" transform="scale(0.015625)"/>
       <path id="DejaVuSans-20" transform="scale(0.015625)"/>
       <path id="DejaVuSans-5b" d="M 550 4863 
L 1875 4863 
L 1875 4416 
L 1125 4416 
L 1125 -397 
L 1875 -397 
L 1875 -844 
L 550 -844 
L 550 4863 
z
" transform="scale(0.015625)"/>
       <path id="DejaVuSans-6d" d="M 3328 2828 
Q 3544 3216 3844 3400 
Q 4144 3584 4550 3584 
Q 5097 3584 5394 3201 
Q 5691 2819 5691 2113 
L 5691 0 
L 5113 0 
L 5113 2094 
Q 5113 2597 4934 2840 
Q 4756 3084 4391 3084 
Q 3944 3084 3684 2787 
Q 3425 2491 3425 1978 
L 3425 0 
L 2847 0 
L 2847 2094 
Q 2847 2600 2669 2842 
Q 2491 3084 2119 3084 
Q 1678 3084 1418 2786 
Q 1159 2488 1159 1978 
L 1159 0 
L 581 0 
L 581 3500 
L 1159 3500 
L 1159 2956 
Q 1356 3278 1631 3431 
Q 1906 3584 2284 3584 
Q 2666 3584 2933 3390 
Q 3200 3197 3328 2828 
z
" transform="scale(0.015625)"/>
       <path id="DejaVuSans-5d" d="M 1947 4863 
L 1947 -844 
L 622 -844 
L 622 -397 
L 1369 -397 
L 1369 4416 
L 622 4416 
L 622 4863 
L 1947 4863 
z
" transform="scale(0.015625)"/>
      </defs>
      <use xlink:href="#DejaVuSans-44"/>
      <use xlink:href="#DejaVuSans-65" x="77.001953"/>
      <use xlink:href="#DejaVuSans-70" x="138.525391"/>
      <use xlink:href="#DejaVuSans-74" x="202.001953"/>
      <use xlink:href="#DejaVuSans-68" x="241.210938"/>
      <use xlink:href="#DejaVuSans-20" x="304.589844"/>
      <use xlink:href="#DejaVuSans-5b" x="336.376953"/>
      <use xlink:href="#DejaVuSans-6d" x="375.390625"/>
      <use xlink:href="#DejaVuSans-5d" x="472.802734"/>
     </g>
    </g>
   </g>
   <g id="matplotlib.axis_2">
    <g id="text_7">
     <!-- Object Density -->
     <g transform="translate(26.196094 223.507031) rotate(-90) scale(0.25 -0.25)">
      <defs>
       <path id="DejaVuSans-4f" d="M 2522 4238 
Q 1834 4238 1429 3725 
Q 1025 3213 1025 2328 
Q 1025 1447 1429 934 
Q 1834 422 2522 422 
Q 3209 422 3611 934 
Q 4013 1447 4013 2328 
Q 4013 3213 3611 3725 
Q 3209 4238 2522 4238 
z
M 2522 4750 
Q 3503 4750 4090 4092 
Q 4678 3434 4678 2328 
Q 4678 1225 4090 567 
Q 3503 -91 2522 -91 
Q 1538 -91 948 565 
Q 359 1222 359 2328 
Q 359 3434 948 4092 
Q 1538 4750 2522 4750 
z
" transform="scale(0.015625)"/>
       <path id="DejaVuSans-62" d="M 3116 1747 
Q 3116 2381 2855 2742 
Q 2594 3103 2138 3103 
Q 1681 3103 1420 2742 
Q 1159 2381 1159 1747 
Q 1159 1113 1420 752 
Q 1681 391 2138 391 
Q 2594 391 2855 752 
Q 3116 1113 3116 1747 
z
M 1159 2969 
Q 1341 3281 1617 3432 
Q 1894 3584 2278 3584 
Q 2916 3584 3314 3078 
Q 3713 2572 3713 1747 
Q 3713 922 3314 415 
Q 2916 -91 2278 -91 
Q 1894 -91 1617 61 
Q 1341 213 1159 525 
L 1159 0 
L 581 0 
L 581 4863 
L 1159 4863 
L 1159 2969 
z
" transform="scale(0.015625)"/>
       <path id="DejaVuSans-6a" d="M 603 3500 
L 1178 3500 
L 1178 -63 
Q 1178 -731 923 -1031 
Q 669 -1331 103 -1331 
L -116 -1331 
L -116 -844 
L 38 -844 
Q 366 -844 484 -692 
Q 603 -541 603 -63 
L 603 3500 
z
M 603 4863 
L 1178 4863 
L 1178 4134 
L 603 4134 
L 603 4863 
z
" transform="scale(0.015625)"/>
       <path id="DejaVuSans-63" d="M 3122 3366 
L 3122 2828 
Q 2878 2963 2633 3030 
Q 2388 3097 2138 3097 
Q 1578 3097 1268 2742 
Q 959 2388 959 1747 
Q 959 1106 1268 751 
Q 1578 397 2138 397 
Q 2388 397 2633 464 
Q 2878 531 3122 666 
L 3122 134 
Q 2881 22 2623 -34 
Q 2366 -91 2075 -91 
Q 1284 -91 818 406 
Q 353 903 353 1747 
Q 353 2603 823 3093 
Q 1294 3584 2113 3584 
Q 2378 3584 2631 3529 
Q 2884 3475 3122 3366 
z
" transform="scale(0.015625)"/>
       <path id="DejaVuSans-6e" d="M 3513 2113 
L 3513 0 
L 2938 0 
L 2938 2094 
Q 2938 2591 2744 2837 
Q 2550 3084 2163 3084 
Q 1697 3084 1428 2787 
Q 1159 2491 1159 1978 
L 1159 0 
L 581 0 
L 581 3500 
L 1159 3500 
L 1159 2956 
Q 1366 3272 1645 3428 
Q 1925 3584 2291 3584 
Q 2894 3584 3203 3211 
Q 3513 2838 3513 2113 
z
" transform="scale(0.015625)"/>
       <path id="DejaVuSans-73" d="M 2834 3397 
L 2834 2853 
Q 2591 2978 2328 3040 
Q 2066 3103 1784 3103 
Q 1356 3103 1142 2972 
Q 928 2841 928 2578 
Q 928 2378 1081 2264 
Q 1234 2150 1697 2047 
L 1894 2003 
Q 2506 1872 2764 1633 
Q 3022 1394 3022 966 
Q 3022 478 2636 193 
Q 2250 -91 1575 -91 
Q 1294 -91 989 -36 
Q 684 19 347 128 
L 347 722 
Q 666 556 975 473 
Q 1284 391 1588 391 
Q 1994 391 2212 530 
Q 2431 669 2431 922 
Q 2431 1156 2273 1281 
Q 2116 1406 1581 1522 
L 1381 1569 
Q 847 1681 609 1914 
Q 372 2147 372 2553 
Q 372 3047 722 3315 
Q 1072 3584 1716 3584 
Q 2034 3584 2315 3537 
Q 2597 3491 2834 3397 
z
" transform="scale(0.015625)"/>
       <path id="DejaVuSans-69" d="M 603 3500 
L 1178 3500 
L 1178 0 
L 603 0 
L 603 3500 
z
M 603 4863 
L 1178 4863 
L 1178 4134 
L 603 4134 
L 603 4863 
z
" transform="scale(0.015625)"/>
       <path id="DejaVuSans-79" d="M 2059 -325 
Q 1816 -950 1584 -1140 
Q 1353 -1331 966 -1331 
L 506 -1331 
L 506 -850 
L 844 -850 
Q 1081 -850 1212 -737 
Q 1344 -625 1503 -206 
L 1606 56 
L 191 3500 
L 800 3500 
L 1894 763 
L 2988 3500 
L 3597 3500 
L 2059 -325 
z
" transform="scale(0.015625)"/>
      </defs>
      <use xlink:href="#DejaVuSans-4f"/>
      <use xlink:href="#DejaVuSans-62" x="78.710938"/>
      <use xlink:href="#DejaVuSans-6a" x="142.1875"/>
      <use xlink:href="#DejaVuSans-65" x="169.970703"/>
      <use xlink:href="#DejaVuSans-63" x="231.494141"/>
      <use xlink:href="#DejaVuSans-74" x="286.474609"/>
      <use xlink:href="#DejaVuSans-20" x="325.683594"/>
      <use xlink:href="#DejaVuSans-44" x="357.470703"/>
      <use xlink:href="#DejaVuSans-65" x="434.472656"/>
      <use xlink:href="#DejaVuSans-6e" x="495.996094"/>
      <use xlink:href="#DejaVuSans-73" x="559.375"/>
      <use xlink:href="#DejaVuSans-69" x="611.474609"/>
      <use xlink:href="#DejaVuSans-74" x="639.257812"/>
      <use xlink:href="#DejaVuSans-79" x="678.466797"/>
     </g>
    </g>
   </g>
   <g id="patch_93">
    <path d="M 35.395313 255.4 
L 35.395313 7.2 
" style="fill: none; stroke: #000000; stroke-width: 0.8; stroke-linejoin: miter; stroke-linecap: square"/>
   </g>
   <g id="patch_94">
    <path d="M 433.110313 255.4 
L 433.110313 7.2 
" style="fill: none; stroke: #000000; stroke-width: 0.8; stroke-linejoin: miter; stroke-linecap: square"/>
   </g>
   <g id="patch_95">
    <path d="M 35.395313 255.4 
L 433.110313 255.4 
" style="fill: none; stroke: #000000; stroke-width: 0.8; stroke-linejoin: miter; stroke-linecap: square"/>
   </g>
   <g id="patch_96">
    <path d="M 35.395313 7.2 
L 433.110313 7.2 
" style="fill: none; stroke: #000000; stroke-width: 0.8; stroke-linejoin: miter; stroke-linecap: square"/>
   </g>
  </g>
 </g>
 <defs>
  <clipPath id="pdc562b89ab">
   <rect x="35.395313" y="7.2" width="397.715" height="248.2"/>
  </clipPath>
 </defs>
</svg>
