<?xml version="1.0" encoding="utf-8" standalone="no"?>
<!DOCTYPE svg PUBLIC "-//W3C//DTD SVG 1.1//EN"
  "http://www.w3.org/Graphics/SVG/1.1/DTD/svg11.dtd">
<svg xmlns:xlink="http://www.w3.org/1999/xlink" width="420.915312pt" height="305.430625pt" viewBox="0 0 420.915312 305.430625" xmlns="http://www.w3.org/2000/svg" version="1.1">
 <metadata>
  <rdf:RDF xmlns:dc="http://purl.org/dc/elements/1.1/" xmlns:cc="http://creativecommons.org/ns#" xmlns:rdf="http://www.w3.org/1999/02/22-rdf-syntax-ns#">
   <cc:Work>
    <dc:type rdf:resource="http://purl.org/dc/dcmitype/StillImage"/>
    <dc:date>2024-08-16T18:49:28.115972</dc:date>
    <dc:format>image/svg+xml</dc:format>
    <dc:creator>
     <cc:Agent>
      <dc:title>Matplotlib v3.7.3, https://matplotlib.org/</dc:title>
     </cc:Agent>
    </dc:creator>
   </cc:Work>
  </rdf:RDF>
 </metadata>
 <defs>
  <style type="text/css">*{stroke-linejoin: round; stroke-linecap: butt}</style>
 </defs>
 <g id="figure_1">
  <g id="patch_1">
   <path d="M -0 305.430625 
L 420.915312 305.430625 
L 420.915312 0 
L -0 0 
z
" style="fill: #ffffff"/>
  </g>
  <g id="axes_1">
   <g id="patch_2">
    <path d="M 35.395313 238.84 
L 413.715312 238.84 
L 413.715312 7.2 
L 35.395313 7.2 
z
" style="fill: #ffffff"/>
   </g>
   <g id="patch_3">
    <path d="M 52.591676 238.84 
L 64.055919 238.84 
L 64.055919 18.230476 
L 52.591676 18.230476 
z
" clip-path="url(#pa116abf84f)" style="fill: #ff0000; opacity: 0.5; stroke: #000000; stroke-linejoin: miter"/>
   </g>
   <g id="patch_4">
    <path d="M 64.055919 238.84 
L 75.520161 238.84 
L 75.520161 224.845511 
L 64.055919 224.845511 
z
" clip-path="url(#pa116abf84f)" style="fill: #ff0000; opacity: 0.5; stroke: #000000; stroke-linejoin: miter"/>
   </g>
   <g id="patch_5">
    <path d="M 75.520161 238.84 
L 86.984403 238.84 
L 86.984403 231.121888 
L 75.520161 231.121888 
z
" clip-path="url(#pa116abf84f)" style="fill: #ff0000; opacity: 0.5; stroke: #000000; stroke-linejoin: miter"/>
   </g>
   <g id="patch_6">
    <path d="M 86.984403 238.84 
L 98.448646 238.84 
L 98.448646 229.680154 
L 86.984403 229.680154 
z
" clip-path="url(#pa116abf84f)" style="fill: #ff0000; opacity: 0.5; stroke: #000000; stroke-linejoin: miter"/>
   </g>
   <g id="patch_7">
    <path d="M 98.448646 238.84 
L 109.912888 238.84 
L 109.912888 231.270894 
L 98.448646 231.270894 
z
" clip-path="url(#pa116abf84f)" style="fill: #ff0000; opacity: 0.5; stroke: #000000; stroke-linejoin: miter"/>
   </g>
   <g id="patch_8">
    <path d="M 109.912888 238.84 
L 121.377131 238.84 
L 121.377131 232.239434 
L 109.912888 232.239434 
z
" clip-path="url(#pa116abf84f)" style="fill: #ff0000; opacity: 0.5; stroke: #000000; stroke-linejoin: miter"/>
   </g>
   <g id="patch_9">
    <path d="M 121.377131 238.84 
L 132.841373 238.84 
L 132.841373 225.967084 
L 121.377131 225.967084 
z
" clip-path="url(#pa116abf84f)" style="fill: #ff0000; opacity: 0.5; stroke: #000000; stroke-linejoin: miter"/>
   </g>
   <g id="patch_10">
    <path d="M 132.841373 238.84 
L 144.305616 238.84 
L 144.305616 188.465881 
L 132.841373 188.465881 
z
" clip-path="url(#pa116abf84f)" style="fill: #ff0000; opacity: 0.5; stroke: #000000; stroke-linejoin: miter"/>
   </g>
   <g id="patch_11">
    <path d="M 144.305616 238.84 
L 155.769858 238.84 
L 155.769858 229.086143 
L 144.305616 229.086143 
z
" clip-path="url(#pa116abf84f)" style="fill: #ff0000; opacity: 0.5; stroke: #000000; stroke-linejoin: miter"/>
   </g>
   <g id="patch_12">
    <path d="M 155.769858 238.84 
L 167.2341 238.84 
L 167.2341 234.724211 
L 155.769858 234.724211 
z
" clip-path="url(#pa116abf84f)" style="fill: #ff0000; opacity: 0.5; stroke: #000000; stroke-linejoin: miter"/>
   </g>
   <g id="patch_13">
    <path d="M 167.2341 238.84 
L 178.698343 238.84 
L 178.698343 234.126173 
L 167.2341 234.126173 
z
" clip-path="url(#pa116abf84f)" style="fill: #ff0000; opacity: 0.5; stroke: #000000; stroke-linejoin: miter"/>
   </g>
   <g id="patch_14">
    <path d="M 178.698343 238.84 
L 190.162585 238.84 
L 190.162585 235.213514 
L 178.698343 235.213514 
z
" clip-path="url(#pa116abf84f)" style="fill: #ff0000; opacity: 0.5; stroke: #000000; stroke-linejoin: miter"/>
   </g>
   <g id="patch_15">
    <path d="M 190.162585 238.84 
L 201.626828 238.84 
L 201.626828 234.68998 
L 190.162585 234.68998 
z
" clip-path="url(#pa116abf84f)" style="fill: #ff0000; opacity: 0.5; stroke: #000000; stroke-linejoin: miter"/>
   </g>
   <g id="patch_16">
    <path d="M 201.626828 238.84 
L 213.09107 238.84 
L 213.09107 231.609179 
L 201.626828 231.609179 
z
" clip-path="url(#pa116abf84f)" style="fill: #ff0000; opacity: 0.5; stroke: #000000; stroke-linejoin: miter"/>
   </g>
   <g id="patch_17">
    <path d="M 213.09107 238.84 
L 224.555313 238.84 
L 224.555313 142.759277 
L 213.09107 142.759277 
z
" clip-path="url(#pa116abf84f)" style="fill: #ff0000; opacity: 0.5; stroke: #000000; stroke-linejoin: miter"/>
   </g>
   <g id="patch_18">
    <path d="M 224.555313 238.84 
L 236.019555 238.84 
L 236.019555 146.873052 
L 224.555313 146.873052 
z
" clip-path="url(#pa116abf84f)" style="fill: #ff0000; opacity: 0.5; stroke: #000000; stroke-linejoin: miter"/>
   </g>
   <g id="patch_19">
    <path d="M 236.019555 238.84 
L 247.483797 238.84 
L 247.483797 228.276678 
L 236.019555 228.276678 
z
" clip-path="url(#pa116abf84f)" style="fill: #ff0000; opacity: 0.5; stroke: #000000; stroke-linejoin: miter"/>
   </g>
   <g id="patch_20">
    <path d="M 247.483797 238.84 
L 258.94804 238.84 
L 258.94804 232.777064 
L 247.483797 232.777064 
z
" clip-path="url(#pa116abf84f)" style="fill: #ff0000; opacity: 0.5; stroke: #000000; stroke-linejoin: miter"/>
   </g>
   <g id="patch_21">
    <path d="M 258.94804 238.84 
L 270.412282 238.84 
L 270.412282 233.119375 
L 258.94804 233.119375 
z
" clip-path="url(#pa116abf84f)" style="fill: #ff0000; opacity: 0.5; stroke: #000000; stroke-linejoin: miter"/>
   </g>
   <g id="patch_22">
    <path d="M 270.412282 238.84 
L 281.876525 238.84 
L 281.876525 230.745346 
L 270.412282 230.745346 
z
" clip-path="url(#pa116abf84f)" style="fill: #ff0000; opacity: 0.5; stroke: #000000; stroke-linejoin: miter"/>
   </g>
   <g id="patch_23">
    <path d="M 281.876525 238.84 
L 293.340767 238.84 
L 293.340767 231.558839 
L 281.876525 231.558839 
z
" clip-path="url(#pa116abf84f)" style="fill: #ff0000; opacity: 0.5; stroke: #000000; stroke-linejoin: miter"/>
   </g>
   <g id="patch_24">
    <path d="M 293.340767 238.84 
L 304.805009 238.84 
L 304.805009 221.100224 
L 293.340767 221.100224 
z
" clip-path="url(#pa116abf84f)" style="fill: #ff0000; opacity: 0.5; stroke: #000000; stroke-linejoin: miter"/>
   </g>
   <g id="patch_25">
    <path d="M 304.805009 238.84 
L 316.269252 238.84 
L 316.269252 170.218679 
L 304.805009 170.218679 
z
" clip-path="url(#pa116abf84f)" style="fill: #ff0000; opacity: 0.5; stroke: #000000; stroke-linejoin: miter"/>
   </g>
   <g id="patch_26">
    <path d="M 316.269252 238.84 
L 327.733494 238.84 
L 327.733494 225.67914 
L 316.269252 225.67914 
z
" clip-path="url(#pa116abf84f)" style="fill: #ff0000; opacity: 0.5; stroke: #000000; stroke-linejoin: miter"/>
   </g>
   <g id="patch_27">
    <path d="M 327.733494 238.84 
L 339.197737 238.84 
L 339.197737 233.111321 
L 327.733494 233.111321 
z
" clip-path="url(#pa116abf84f)" style="fill: #ff0000; opacity: 0.5; stroke: #000000; stroke-linejoin: miter"/>
   </g>
   <g id="patch_28">
    <path d="M 339.197737 238.84 
L 350.661979 238.84 
L 350.661979 233.278449 
L 339.197737 233.278449 
z
" clip-path="url(#pa116abf84f)" style="fill: #ff0000; opacity: 0.5; stroke: #000000; stroke-linejoin: miter"/>
   </g>
   <g id="patch_29">
    <path d="M 350.661979 238.84 
L 362.126222 238.84 
L 362.126222 231.480308 
L 350.661979 231.480308 
z
" clip-path="url(#pa116abf84f)" style="fill: #ff0000; opacity: 0.5; stroke: #000000; stroke-linejoin: miter"/>
   </g>
   <g id="patch_30">
    <path d="M 362.126222 238.84 
L 373.590464 238.84 
L 373.590464 230.185567 
L 362.126222 230.185567 
z
" clip-path="url(#pa116abf84f)" style="fill: #ff0000; opacity: 0.5; stroke: #000000; stroke-linejoin: miter"/>
   </g>
   <g id="patch_31">
    <path d="M 373.590464 238.84 
L 385.054706 238.84 
L 385.054706 225.089156 
L 373.590464 225.089156 
z
" clip-path="url(#pa116abf84f)" style="fill: #ff0000; opacity: 0.5; stroke: #000000; stroke-linejoin: miter"/>
   </g>
   <g id="patch_32">
    <path d="M 385.054706 238.84 
L 396.518949 238.84 
L 396.518949 44.898535 
L 385.054706 44.898535 
z
" clip-path="url(#pa116abf84f)" style="fill: #ff0000; opacity: 0.5; stroke: #000000; stroke-linejoin: miter"/>
   </g>
   <g id="patch_33">
    <path d="M 52.591676 238.84 
L 64.055919 238.84 
L 64.055919 157.903329 
L 52.591676 157.903329 
z
" clip-path="url(#pa116abf84f)" style="fill: #0000ff; opacity: 0.5; stroke: #000000; stroke-linejoin: miter"/>
   </g>
   <g id="patch_34">
    <path d="M 64.055919 238.84 
L 75.520161 238.84 
L 75.520161 220.184526 
L 64.055919 220.184526 
z
" clip-path="url(#pa116abf84f)" style="fill: #0000ff; opacity: 0.5; stroke: #000000; stroke-linejoin: miter"/>
   </g>
   <g id="patch_35">
    <path d="M 75.520161 238.84 
L 86.984403 238.84 
L 86.984403 233.519367 
L 75.520161 233.519367 
z
" clip-path="url(#pa116abf84f)" style="fill: #0000ff; opacity: 0.5; stroke: #000000; stroke-linejoin: miter"/>
   </g>
   <g id="patch_36">
    <path d="M 86.984403 238.84 
L 98.448646 238.84 
L 98.448646 234.49711 
L 86.984403 234.49711 
z
" clip-path="url(#pa116abf84f)" style="fill: #0000ff; opacity: 0.5; stroke: #000000; stroke-linejoin: miter"/>
   </g>
   <g id="patch_37">
    <path d="M 98.448646 238.84 
L 109.912888 238.84 
L 109.912888 235.17506 
L 98.448646 235.17506 
z
" clip-path="url(#pa116abf84f)" style="fill: #0000ff; opacity: 0.5; stroke: #000000; stroke-linejoin: miter"/>
   </g>
   <g id="patch_38">
    <path d="M 109.912888 238.84 
L 121.377131 238.84 
L 121.377131 234.075214 
L 109.912888 234.075214 
z
" clip-path="url(#pa116abf84f)" style="fill: #0000ff; opacity: 0.5; stroke: #000000; stroke-linejoin: miter"/>
   </g>
   <g id="patch_39">
    <path d="M 121.377131 238.84 
L 132.841373 238.84 
L 132.841373 221.436547 
L 121.377131 221.436547 
z
" clip-path="url(#pa116abf84f)" style="fill: #0000ff; opacity: 0.5; stroke: #000000; stroke-linejoin: miter"/>
   </g>
   <g id="patch_40">
    <path d="M 132.841373 238.84 
L 144.305616 238.84 
L 144.305616 129.595268 
L 132.841373 129.595268 
z
" clip-path="url(#pa116abf84f)" style="fill: #0000ff; opacity: 0.5; stroke: #000000; stroke-linejoin: miter"/>
   </g>
   <g id="patch_41">
    <path d="M 144.305616 238.84 
L 155.769858 238.84 
L 155.769858 224.95478 
L 144.305616 224.95478 
z
" clip-path="url(#pa116abf84f)" style="fill: #0000ff; opacity: 0.5; stroke: #000000; stroke-linejoin: miter"/>
   </g>
   <g id="patch_42">
    <path d="M 155.769858 238.84 
L 167.2341 238.84 
L 167.2341 228.785563 
L 155.769858 228.785563 
z
" clip-path="url(#pa116abf84f)" style="fill: #0000ff; opacity: 0.5; stroke: #000000; stroke-linejoin: miter"/>
   </g>
   <g id="patch_43">
    <path d="M 167.2341 238.84 
L 178.698343 238.84 
L 178.698343 233.917572 
L 167.2341 233.917572 
z
" clip-path="url(#pa116abf84f)" style="fill: #0000ff; opacity: 0.5; stroke: #000000; stroke-linejoin: miter"/>
   </g>
   <g id="patch_44">
    <path d="M 178.698343 238.84 
L 190.162585 238.84 
L 190.162585 233.080158 
L 178.698343 233.080158 
z
" clip-path="url(#pa116abf84f)" style="fill: #0000ff; opacity: 0.5; stroke: #000000; stroke-linejoin: miter"/>
   </g>
   <g id="patch_45">
    <path d="M 190.162585 238.84 
L 201.626828 238.84 
L 201.626828 233.8711 
L 190.162585 233.8711 
z
" clip-path="url(#pa116abf84f)" style="fill: #0000ff; opacity: 0.5; stroke: #000000; stroke-linejoin: miter"/>
   </g>
   <g id="patch_46">
    <path d="M 201.626828 238.84 
L 213.09107 238.84 
L 213.09107 231.654093 
L 201.626828 231.654093 
z
" clip-path="url(#pa116abf84f)" style="fill: #0000ff; opacity: 0.5; stroke: #000000; stroke-linejoin: miter"/>
   </g>
   <g id="patch_47">
    <path d="M 213.09107 238.84 
L 224.555313 238.84 
L 224.555313 42.833146 
L 213.09107 42.833146 
z
" clip-path="url(#pa116abf84f)" style="fill: #0000ff; opacity: 0.5; stroke: #000000; stroke-linejoin: miter"/>
   </g>
   <g id="patch_48">
    <path d="M 224.555313 238.84 
L 236.019555 238.84 
L 236.019555 146.592315 
L 224.555313 146.592315 
z
" clip-path="url(#pa116abf84f)" style="fill: #0000ff; opacity: 0.5; stroke: #000000; stroke-linejoin: miter"/>
   </g>
   <g id="patch_49">
    <path d="M 236.019555 238.84 
L 247.483797 238.84 
L 247.483797 219.548493 
L 236.019555 219.548493 
z
" clip-path="url(#pa116abf84f)" style="fill: #0000ff; opacity: 0.5; stroke: #000000; stroke-linejoin: miter"/>
   </g>
   <g id="patch_50">
    <path d="M 247.483797 238.84 
L 258.94804 238.84 
L 258.94804 233.84923 
L 247.483797 233.84923 
z
" clip-path="url(#pa116abf84f)" style="fill: #0000ff; opacity: 0.5; stroke: #000000; stroke-linejoin: miter"/>
   </g>
   <g id="patch_51">
    <path d="M 258.94804 238.84 
L 270.412282 238.84 
L 270.412282 234.550872 
L 258.94804 234.550872 
z
" clip-path="url(#pa116abf84f)" style="fill: #0000ff; opacity: 0.5; stroke: #000000; stroke-linejoin: miter"/>
   </g>
   <g id="patch_52">
    <path d="M 270.412282 238.84 
L 281.876525 238.84 
L 281.876525 234.645639 
L 270.412282 234.645639 
z
" clip-path="url(#pa116abf84f)" style="fill: #0000ff; opacity: 0.5; stroke: #000000; stroke-linejoin: miter"/>
   </g>
   <g id="patch_53">
    <path d="M 281.876525 238.84 
L 293.340767 238.84 
L 293.340767 233.964956 
L 281.876525 233.964956 
z
" clip-path="url(#pa116abf84f)" style="fill: #0000ff; opacity: 0.5; stroke: #000000; stroke-linejoin: miter"/>
   </g>
   <g id="patch_54">
    <path d="M 293.340767 238.84 
L 304.805009 238.84 
L 304.805009 228.55229 
L 293.340767 228.55229 
z
" clip-path="url(#pa116abf84f)" style="fill: #0000ff; opacity: 0.5; stroke: #000000; stroke-linejoin: miter"/>
   </g>
   <g id="patch_55">
    <path d="M 304.805009 238.84 
L 316.269252 238.84 
L 316.269252 167.295307 
L 304.805009 167.295307 
z
" clip-path="url(#pa116abf84f)" style="fill: #0000ff; opacity: 0.5; stroke: #000000; stroke-linejoin: miter"/>
   </g>
   <g id="patch_56">
    <path d="M 316.269252 238.84 
L 327.733494 238.84 
L 327.733494 228.886708 
L 316.269252 228.886708 
z
" clip-path="url(#pa116abf84f)" style="fill: #0000ff; opacity: 0.5; stroke: #000000; stroke-linejoin: miter"/>
   </g>
   <g id="patch_57">
    <path d="M 327.733494 238.84 
L 339.197737 238.84 
L 339.197737 225.269152 
L 327.733494 225.269152 
z
" clip-path="url(#pa116abf84f)" style="fill: #0000ff; opacity: 0.5; stroke: #000000; stroke-linejoin: miter"/>
   </g>
   <g id="patch_58">
    <path d="M 339.197737 238.84 
L 350.661979 238.84 
L 350.661979 235.898571 
L 339.197737 235.898571 
z
" clip-path="url(#pa116abf84f)" style="fill: #0000ff; opacity: 0.5; stroke: #000000; stroke-linejoin: miter"/>
   </g>
   <g id="patch_59">
    <path d="M 350.661979 238.84 
L 362.126222 238.84 
L 362.126222 235.257981 
L 350.661979 235.257981 
z
" clip-path="url(#pa116abf84f)" style="fill: #0000ff; opacity: 0.5; stroke: #000000; stroke-linejoin: miter"/>
   </g>
   <g id="patch_60">
    <path d="M 362.126222 238.84 
L 373.590464 238.84 
L 373.590464 233.892058 
L 362.126222 233.892058 
z
" clip-path="url(#pa116abf84f)" style="fill: #0000ff; opacity: 0.5; stroke: #000000; stroke-linejoin: miter"/>
   </g>
   <g id="patch_61">
    <path d="M 373.590464 238.84 
L 385.054706 238.84 
L 385.054706 231.866409 
L 373.590464 231.866409 
z
" clip-path="url(#pa116abf84f)" style="fill: #0000ff; opacity: 0.5; stroke: #000000; stroke-linejoin: miter"/>
   </g>
   <g id="patch_62">
    <path d="M 385.054706 238.84 
L 396.518949 238.84 
L 396.518949 56.868718 
L 385.054706 56.868718 
z
" clip-path="url(#pa116abf84f)" style="fill: #0000ff; opacity: 0.5; stroke: #000000; stroke-linejoin: miter"/>
   </g>
   <g id="patch_63">
    <path d="M 52.591676 238.84 
L 64.055919 238.84 
L 64.055919 218.589963 
L 52.591676 218.589963 
z
" clip-path="url(#pa116abf84f)" style="fill: #008000; opacity: 0.5; stroke: #000000; stroke-linejoin: miter"/>
   </g>
   <g id="patch_64">
    <path d="M 64.055919 238.84 
L 75.520161 238.84 
L 75.520161 206.392161 
L 64.055919 206.392161 
z
" clip-path="url(#pa116abf84f)" style="fill: #008000; opacity: 0.5; stroke: #000000; stroke-linejoin: miter"/>
   </g>
   <g id="patch_65">
    <path d="M 75.520161 238.84 
L 86.984403 238.84 
L 86.984403 214.595463 
L 75.520161 214.595463 
z
" clip-path="url(#pa116abf84f)" style="fill: #008000; opacity: 0.5; stroke: #000000; stroke-linejoin: miter"/>
   </g>
   <g id="patch_66">
    <path d="M 86.984403 238.84 
L 98.448646 238.84 
L 98.448646 217.195225 
L 86.984403 217.195225 
z
" clip-path="url(#pa116abf84f)" style="fill: #008000; opacity: 0.5; stroke: #000000; stroke-linejoin: miter"/>
   </g>
   <g id="patch_67">
    <path d="M 98.448646 238.84 
L 109.912888 238.84 
L 109.912888 200.992385 
L 98.448646 200.992385 
z
" clip-path="url(#pa116abf84f)" style="fill: #008000; opacity: 0.5; stroke: #000000; stroke-linejoin: miter"/>
   </g>
   <g id="patch_68">
    <path d="M 109.912888 238.84 
L 121.377131 238.84 
L 121.377131 227.671563 
L 109.912888 227.671563 
z
" clip-path="url(#pa116abf84f)" style="fill: #008000; opacity: 0.5; stroke: #000000; stroke-linejoin: miter"/>
   </g>
   <g id="patch_69">
    <path d="M 121.377131 238.84 
L 132.841373 238.84 
L 132.841373 210.7169 
L 121.377131 210.7169 
z
" clip-path="url(#pa116abf84f)" style="fill: #008000; opacity: 0.5; stroke: #000000; stroke-linejoin: miter"/>
   </g>
   <g id="patch_70">
    <path d="M 132.841373 238.84 
L 144.305616 238.84 
L 144.305616 215.50538 
L 132.841373 215.50538 
z
" clip-path="url(#pa116abf84f)" style="fill: #008000; opacity: 0.5; stroke: #000000; stroke-linejoin: miter"/>
   </g>
   <g id="patch_71">
    <path d="M 144.305616 238.84 
L 155.769858 238.84 
L 155.769858 215.589697 
L 144.305616 215.589697 
z
" clip-path="url(#pa116abf84f)" style="fill: #008000; opacity: 0.5; stroke: #000000; stroke-linejoin: miter"/>
   </g>
   <g id="patch_72">
    <path d="M 155.769858 238.84 
L 167.2341 238.84 
L 167.2341 200.37055 
L 155.769858 200.37055 
z
" clip-path="url(#pa116abf84f)" style="fill: #008000; opacity: 0.5; stroke: #000000; stroke-linejoin: miter"/>
   </g>
   <g id="patch_73">
    <path d="M 167.2341 238.84 
L 178.698343 238.84 
L 178.698343 216.127215 
L 167.2341 216.127215 
z
" clip-path="url(#pa116abf84f)" style="fill: #008000; opacity: 0.5; stroke: #000000; stroke-linejoin: miter"/>
   </g>
   <g id="patch_74">
    <path d="M 178.698343 238.84 
L 190.162585 238.84 
L 190.162585 212.132716 
L 178.698343 212.132716 
z
" clip-path="url(#pa116abf84f)" style="fill: #008000; opacity: 0.5; stroke: #000000; stroke-linejoin: miter"/>
   </g>
   <g id="patch_75">
    <path d="M 190.162585 238.84 
L 201.626828 238.84 
L 201.626828 215.730224 
L 190.162585 215.730224 
z
" clip-path="url(#pa116abf84f)" style="fill: #008000; opacity: 0.5; stroke: #000000; stroke-linejoin: miter"/>
   </g>
   <g id="patch_76">
    <path d="M 201.626828 238.84 
L 213.09107 238.84 
L 213.09107 206.427293 
L 201.626828 206.427293 
z
" clip-path="url(#pa116abf84f)" style="fill: #008000; opacity: 0.5; stroke: #000000; stroke-linejoin: miter"/>
   </g>
   <g id="patch_77">
    <path d="M 213.09107 238.84 
L 224.555313 238.84 
L 224.555313 209.455664 
L 213.09107 209.455664 
z
" clip-path="url(#pa116abf84f)" style="fill: #008000; opacity: 0.5; stroke: #000000; stroke-linejoin: miter"/>
   </g>
   <g id="patch_78">
    <path d="M 224.555313 238.84 
L 236.019555 238.84 
L 236.019555 195.712058 
L 224.555313 195.712058 
z
" clip-path="url(#pa116abf84f)" style="fill: #008000; opacity: 0.5; stroke: #000000; stroke-linejoin: miter"/>
   </g>
   <g id="patch_79">
    <path d="M 236.019555 238.84 
L 247.483797 238.84 
L 247.483797 165.12621 
L 236.019555 165.12621 
z
" clip-path="url(#pa116abf84f)" style="fill: #008000; opacity: 0.5; stroke: #000000; stroke-linejoin: miter"/>
   </g>
   <g id="patch_80">
    <path d="M 247.483797 238.84 
L 258.94804 238.84 
L 258.94804 196.372538 
L 247.483797 196.372538 
z
" clip-path="url(#pa116abf84f)" style="fill: #008000; opacity: 0.5; stroke: #000000; stroke-linejoin: miter"/>
   </g>
   <g id="patch_81">
    <path d="M 258.94804 238.84 
L 270.412282 238.84 
L 270.412282 216.893091 
L 258.94804 216.893091 
z
" clip-path="url(#pa116abf84f)" style="fill: #008000; opacity: 0.5; stroke: #000000; stroke-linejoin: miter"/>
   </g>
   <g id="patch_82">
    <path d="M 270.412282 238.84 
L 281.876525 238.84 
L 281.876525 190.846287 
L 270.412282 190.846287 
z
" clip-path="url(#pa116abf84f)" style="fill: #008000; opacity: 0.5; stroke: #000000; stroke-linejoin: miter"/>
   </g>
   <g id="patch_83">
    <path d="M 281.876525 238.84 
L 293.340767 238.84 
L 293.340767 214.265223 
L 281.876525 214.265223 
z
" clip-path="url(#pa116abf84f)" style="fill: #008000; opacity: 0.5; stroke: #000000; stroke-linejoin: miter"/>
   </g>
   <g id="patch_84">
    <path d="M 293.340767 238.84 
L 304.805009 238.84 
L 304.805009 222.602028 
L 293.340767 222.602028 
z
" clip-path="url(#pa116abf84f)" style="fill: #008000; opacity: 0.5; stroke: #000000; stroke-linejoin: miter"/>
   </g>
   <g id="patch_85">
    <path d="M 304.805009 238.84 
L 316.269252 238.84 
L 316.269252 208.991923 
L 304.805009 208.991923 
z
" clip-path="url(#pa116abf84f)" style="fill: #008000; opacity: 0.5; stroke: #000000; stroke-linejoin: miter"/>
   </g>
   <g id="patch_86">
    <path d="M 316.269252 238.84 
L 327.733494 238.84 
L 327.733494 213.836614 
L 316.269252 213.836614 
z
" clip-path="url(#pa116abf84f)" style="fill: #008000; opacity: 0.5; stroke: #000000; stroke-linejoin: miter"/>
   </g>
   <g id="patch_87">
    <path d="M 327.733494 238.84 
L 339.197737 238.84 
L 339.197737 182.207348 
L 327.733494 182.207348 
z
" clip-path="url(#pa116abf84f)" style="fill: #008000; opacity: 0.5; stroke: #000000; stroke-linejoin: miter"/>
   </g>
   <g id="patch_88">
    <path d="M 339.197737 238.84 
L 350.661979 238.84 
L 350.661979 207.572593 
L 339.197737 207.572593 
z
" clip-path="url(#pa116abf84f)" style="fill: #008000; opacity: 0.5; stroke: #000000; stroke-linejoin: miter"/>
   </g>
   <g id="patch_89">
    <path d="M 350.661979 238.84 
L 362.126222 238.84 
L 362.126222 215.069744 
L 350.661979 215.069744 
z
" clip-path="url(#pa116abf84f)" style="fill: #008000; opacity: 0.5; stroke: #000000; stroke-linejoin: miter"/>
   </g>
   <g id="patch_90">
    <path d="M 362.126222 238.84 
L 373.590464 238.84 
L 373.590464 206.051381 
L 362.126222 206.051381 
z
" clip-path="url(#pa116abf84f)" style="fill: #008000; opacity: 0.5; stroke: #000000; stroke-linejoin: miter"/>
   </g>
   <g id="patch_91">
    <path d="M 373.590464 238.84 
L 385.054706 238.84 
L 385.054706 220.494112 
L 373.590464 220.494112 
z
" clip-path="url(#pa116abf84f)" style="fill: #008000; opacity: 0.5; stroke: #000000; stroke-linejoin: miter"/>
   </g>
   <g id="patch_92">
    <path d="M 385.054706 238.84 
L 396.518949 238.84 
L 396.518949 198.887983 
L 385.054706 198.887983 
z
" clip-path="url(#pa116abf84f)" style="fill: #008000; opacity: 0.5; stroke: #000000; stroke-linejoin: miter"/>
   </g>
   <g id="matplotlib.axis_1">
    <g id="xtick_1">
     <g id="line2d_1">
      <defs>
       <path id="m2b89d5b6bb" d="M 0 0 
L 0 3.5 
" style="stroke: #000000; stroke-width: 0.8"/>
      </defs>
      <g>
       <use xlink:href="#m2b89d5b6bb" x="138.573513" y="238.84" style="stroke: #000000; stroke-width: 0.8"/>
      </g>
     </g>
     <g id="text_1">
      <!-- -90 -->
      <g transform="translate(118.157497 264.836094) scale(0.25 -0.25)">
       <defs>
        <path id="DejaVuSans-2d" d="M 313 2009 
L 1997 2009 
L 1997 1497 
L 313 1497 
L 313 2009 
z
" transform="scale(0.015625)"/>
        <path id="DejaVuSans-39" d="M 703 97 
L 703 672 
Q 941 559 1184 500 
Q 1428 441 1663 441 
Q 2288 441 2617 861 
Q 2947 1281 2994 2138 
Q 2813 1869 2534 1725 
Q 2256 1581 1919 1581 
Q 1219 1581 811 2004 
Q 403 2428 403 3163 
Q 403 3881 828 4315 
Q 1253 4750 1959 4750 
Q 2769 4750 3195 4129 
Q 3622 3509 3622 2328 
Q 3622 1225 3098 567 
Q 2575 -91 1691 -91 
Q 1453 -91 1209 -44 
Q 966 3 703 97 
z
M 1959 2075 
Q 2384 2075 2632 2365 
Q 2881 2656 2881 3163 
Q 2881 3666 2632 3958 
Q 2384 4250 1959 4250 
Q 1534 4250 1286 3958 
Q 1038 3666 1038 3163 
Q 1038 2656 1286 2365 
Q 1534 2075 1959 2075 
z
" transform="scale(0.015625)"/>
        <path id="DejaVuSans-30" d="M 2034 4250 
Q 1547 4250 1301 3770 
Q 1056 3291 1056 2328 
Q 1056 1369 1301 889 
Q 1547 409 2034 409 
Q 2525 409 2770 889 
Q 3016 1369 3016 2328 
Q 3016 3291 2770 3770 
Q 2525 4250 2034 4250 
z
M 2034 4750 
Q 2819 4750 3233 4129 
Q 3647 3509 3647 2328 
Q 3647 1150 3233 529 
Q 2819 -91 2034 -91 
Q 1250 -91 836 529 
Q 422 1150 422 2328 
Q 422 3509 836 4129 
Q 1250 4750 2034 4750 
z
" transform="scale(0.015625)"/>
       </defs>
       <use xlink:href="#DejaVuSans-2d"/>
       <use xlink:href="#DejaVuSans-39" x="36.083984"/>
       <use xlink:href="#DejaVuSans-30" x="99.707031"/>
      </g>
     </g>
    </g>
    <g id="xtick_2">
     <g id="line2d_2">
      <g>
       <use xlink:href="#m2b89d5b6bb" x="224.555351" y="238.84" style="stroke: #000000; stroke-width: 0.8"/>
      </g>
     </g>
     <g id="text_2">
      <!-- 0 -->
      <g transform="translate(216.602226 264.836094) scale(0.25 -0.25)">
       <use xlink:href="#DejaVuSans-30"/>
      </g>
     </g>
    </g>
    <g id="xtick_3">
     <g id="line2d_3">
      <g>
       <use xlink:href="#m2b89d5b6bb" x="310.537189" y="238.84" style="stroke: #000000; stroke-width: 0.8"/>
      </g>
     </g>
     <g id="text_3">
      <!-- 90 -->
      <g transform="translate(294.630939 264.836094) scale(0.25 -0.25)">
       <use xlink:href="#DejaVuSans-39"/>
       <use xlink:href="#DejaVuSans-30" x="63.623047"/>
      </g>
     </g>
    </g>
    <g id="text_4">
     <!-- Rot. around Ground Normal [°] -->
     <g transform="translate(32.871719 293.031406) scale(0.25 -0.25)">
      <defs>
       <path id="DejaVuSans-52" d="M 2841 2188 
Q 3044 2119 3236 1894 
Q 3428 1669 3622 1275 
L 4263 0 
L 3584 0 
L 2988 1197 
Q 2756 1666 2539 1819 
Q 2322 1972 1947 1972 
L 1259 1972 
L 1259 0 
L 628 0 
L 628 4666 
L 2053 4666 
Q 2853 4666 3247 4331 
Q 3641 3997 3641 3322 
Q 3641 2881 3436 2590 
Q 3231 2300 2841 2188 
z
M 1259 4147 
L 1259 2491 
L 2053 2491 
Q 2509 2491 2742 2702 
Q 2975 2913 2975 3322 
Q 2975 3731 2742 3939 
Q 2509 4147 2053 4147 
L 1259 4147 
z
" transform="scale(0.015625)"/>
       <path id="DejaVuSans-6f" d="M 1959 3097 
Q 1497 3097 1228 2736 
Q 959 2375 959 1747 
Q 959 1119 1226 758 
Q 1494 397 1959 397 
Q 2419 397 2687 759 
Q 2956 1122 2956 1747 
Q 2956 2369 2687 2733 
Q 2419 3097 1959 3097 
z
M 1959 3584 
Q 2709 3584 3137 3096 
Q 3566 2609 3566 1747 
Q 3566 888 3137 398 
Q 2709 -91 1959 -91 
Q 1206 -91 779 398 
Q 353 888 353 1747 
Q 353 2609 779 3096 
Q 1206 3584 1959 3584 
z
" transform="scale(0.015625)"/>
       <path id="DejaVuSans-74" d="M 1172 4494 
L 1172 3500 
L 2356 3500 
L 2356 3053 
L 1172 3053 
L 1172 1153 
Q 1172 725 1289 603 
Q 1406 481 1766 481 
L 2356 481 
L 2356 0 
L 1766 0 
Q 1100 0 847 248 
Q 594 497 594 1153 
L 594 3053 
L 172 3053 
L 172 3500 
L 594 3500 
L 594 4494 
L 1172 4494 
z
" transform="scale(0.015625)"/>
       <path id="DejaVuSans-2e" d="M 684 794 
L 1344 794 
L 1344 0 
L 684 0 
L 684 794 
z
" transform="scale(0.015625)"/>
       <path id="DejaVuSans-20" transform="scale(0.015625)"/>
       <path id="DejaVuSans-61" d="M 2194 1759 
Q 1497 1759 1228 1600 
Q 959 1441 959 1056 
Q 959 750 1161 570 
Q 1363 391 1709 391 
Q 2188 391 2477 730 
Q 2766 1069 2766 1631 
L 2766 1759 
L 2194 1759 
z
M 3341 1997 
L 3341 0 
L 2766 0 
L 2766 531 
Q 2569 213 2275 61 
Q 1981 -91 1556 -91 
Q 1019 -91 701 211 
Q 384 513 384 1019 
Q 384 1609 779 1909 
Q 1175 2209 1959 2209 
L 2766 2209 
L 2766 2266 
Q 2766 2663 2505 2880 
Q 2244 3097 1772 3097 
Q 1472 3097 1187 3025 
Q 903 2953 641 2809 
L 641 3341 
Q 956 3463 1253 3523 
Q 1550 3584 1831 3584 
Q 2591 3584 2966 3190 
Q 3341 2797 3341 1997 
z
" transform="scale(0.015625)"/>
       <path id="DejaVuSans-72" d="M 2631 2963 
Q 2534 3019 2420 3045 
Q 2306 3072 2169 3072 
Q 1681 3072 1420 2755 
Q 1159 2438 1159 1844 
L 1159 0 
L 581 0 
L 581 3500 
L 1159 3500 
L 1159 2956 
Q 1341 3275 1631 3429 
Q 1922 3584 2338 3584 
Q 2397 3584 2469 3576 
Q 2541 3569 2628 3553 
L 2631 2963 
z
" transform="scale(0.015625)"/>
       <path id="DejaVuSans-75" d="M 544 1381 
L 544 3500 
L 1119 3500 
L 1119 1403 
Q 1119 906 1312 657 
Q 1506 409 1894 409 
Q 2359 409 2629 706 
Q 2900 1003 2900 1516 
L 2900 3500 
L 3475 3500 
L 3475 0 
L 2900 0 
L 2900 538 
Q 2691 219 2414 64 
Q 2138 -91 1772 -91 
Q 1169 -91 856 284 
Q 544 659 544 1381 
z
M 1991 3584 
L 1991 3584 
z
" transform="scale(0.015625)"/>
       <path id="DejaVuSans-6e" d="M 3513 2113 
L 3513 0 
L 2938 0 
L 2938 2094 
Q 2938 2591 2744 2837 
Q 2550 3084 2163 3084 
Q 1697 3084 1428 2787 
Q 1159 2491 1159 1978 
L 1159 0 
L 581 0 
L 581 3500 
L 1159 3500 
L 1159 2956 
Q 1366 3272 1645 3428 
Q 1925 3584 2291 3584 
Q 2894 3584 3203 3211 
Q 3513 2838 3513 2113 
z
" transform="scale(0.015625)"/>
       <path id="DejaVuSans-64" d="M 2906 2969 
L 2906 4863 
L 3481 4863 
L 3481 0 
L 2906 0 
L 2906 525 
Q 2725 213 2448 61 
Q 2172 -91 1784 -91 
Q 1150 -91 751 415 
Q 353 922 353 1747 
Q 353 2572 751 3078 
Q 1150 3584 1784 3584 
Q 2172 3584 2448 3432 
Q 2725 3281 2906 2969 
z
M 947 1747 
Q 947 1113 1208 752 
Q 1469 391 1925 391 
Q 2381 391 2643 752 
Q 2906 1113 2906 1747 
Q 2906 2381 2643 2742 
Q 2381 3103 1925 3103 
Q 1469 3103 1208 2742 
Q 947 2381 947 1747 
z
" transform="scale(0.015625)"/>
       <path id="DejaVuSans-47" d="M 3809 666 
L 3809 1919 
L 2778 1919 
L 2778 2438 
L 4434 2438 
L 4434 434 
Q 4069 175 3628 42 
Q 3188 -91 2688 -91 
Q 1594 -91 976 548 
Q 359 1188 359 2328 
Q 359 3472 976 4111 
Q 1594 4750 2688 4750 
Q 3144 4750 3555 4637 
Q 3966 4525 4313 4306 
L 4313 3634 
Q 3963 3931 3569 4081 
Q 3175 4231 2741 4231 
Q 1884 4231 1454 3753 
Q 1025 3275 1025 2328 
Q 1025 1384 1454 906 
Q 1884 428 2741 428 
Q 3075 428 3337 486 
Q 3600 544 3809 666 
z
" transform="scale(0.015625)"/>
       <path id="DejaVuSans-4e" d="M 628 4666 
L 1478 4666 
L 3547 763 
L 3547 4666 
L 4159 4666 
L 4159 0 
L 3309 0 
L 1241 3903 
L 1241 0 
L 628 0 
L 628 4666 
z
" transform="scale(0.015625)"/>
       <path id="DejaVuSans-6d" d="M 3328 2828 
Q 3544 3216 3844 3400 
Q 4144 3584 4550 3584 
Q 5097 3584 5394 3201 
Q 5691 2819 5691 2113 
L 5691 0 
L 5113 0 
L 5113 2094 
Q 5113 2597 4934 2840 
Q 4756 3084 4391 3084 
Q 3944 3084 3684 2787 
Q 3425 2491 3425 1978 
L 3425 0 
L 2847 0 
L 2847 2094 
Q 2847 2600 2669 2842 
Q 2491 3084 2119 3084 
Q 1678 3084 1418 2786 
Q 1159 2488 1159 1978 
L 1159 0 
L 581 0 
L 581 3500 
L 1159 3500 
L 1159 2956 
Q 1356 3278 1631 3431 
Q 1906 3584 2284 3584 
Q 2666 3584 2933 3390 
Q 3200 3197 3328 2828 
z
" transform="scale(0.015625)"/>
       <path id="DejaVuSans-6c" d="M 603 4863 
L 1178 4863 
L 1178 0 
L 603 0 
L 603 4863 
z
" transform="scale(0.015625)"/>
       <path id="DejaVuSans-5b" d="M 550 4863 
L 1875 4863 
L 1875 4416 
L 1125 4416 
L 1125 -397 
L 1875 -397 
L 1875 -844 
L 550 -844 
L 550 4863 
z
" transform="scale(0.015625)"/>
       <path id="DejaVuSans-b0" d="M 1600 4347 
Q 1350 4347 1178 4173 
Q 1006 4000 1006 3750 
Q 1006 3503 1178 3333 
Q 1350 3163 1600 3163 
Q 1850 3163 2022 3333 
Q 2194 3503 2194 3750 
Q 2194 3997 2020 4172 
Q 1847 4347 1600 4347 
z
M 1600 4750 
Q 1800 4750 1984 4673 
Q 2169 4597 2303 4453 
Q 2447 4313 2519 4134 
Q 2591 3956 2591 3750 
Q 2591 3338 2302 3052 
Q 2013 2766 1594 2766 
Q 1172 2766 890 3047 
Q 609 3328 609 3750 
Q 609 4169 896 4459 
Q 1184 4750 1600 4750 
z
" transform="scale(0.015625)"/>
       <path id="DejaVuSans-5d" d="M 1947 4863 
L 1947 -844 
L 622 -844 
L 622 -397 
L 1369 -397 
L 1369 4416 
L 622 4416 
L 622 4863 
L 1947 4863 
z
" transform="scale(0.015625)"/>
      </defs>
      <use xlink:href="#DejaVuSans-52"/>
      <use xlink:href="#DejaVuSans-6f" x="64.982422"/>
      <use xlink:href="#DejaVuSans-74" x="126.164062"/>
      <use xlink:href="#DejaVuSans-2e" x="165.373047"/>
      <use xlink:href="#DejaVuSans-20" x="197.160156"/>
      <use xlink:href="#DejaVuSans-61" x="228.947266"/>
      <use xlink:href="#DejaVuSans-72" x="290.226562"/>
      <use xlink:href="#DejaVuSans-6f" x="329.089844"/>
      <use xlink:href="#DejaVuSans-75" x="390.271484"/>
      <use xlink:href="#DejaVuSans-6e" x="453.650391"/>
      <use xlink:href="#DejaVuSans-64" x="517.029297"/>
      <use xlink:href="#DejaVuSans-20" x="580.505859"/>
      <use xlink:href="#DejaVuSans-47" x="612.292969"/>
      <use xlink:href="#DejaVuSans-72" x="689.783203"/>
      <use xlink:href="#DejaVuSans-6f" x="728.646484"/>
      <use xlink:href="#DejaVuSans-75" x="789.828125"/>
      <use xlink:href="#DejaVuSans-6e" x="853.207031"/>
      <use xlink:href="#DejaVuSans-64" x="916.585938"/>
      <use xlink:href="#DejaVuSans-20" x="980.0625"/>
      <use xlink:href="#DejaVuSans-4e" x="1011.849609"/>
      <use xlink:href="#DejaVuSans-6f" x="1086.654297"/>
      <use xlink:href="#DejaVuSans-72" x="1147.835938"/>
      <use xlink:href="#DejaVuSans-6d" x="1187.199219"/>
      <use xlink:href="#DejaVuSans-61" x="1284.611328"/>
      <use xlink:href="#DejaVuSans-6c" x="1345.890625"/>
      <use xlink:href="#DejaVuSans-20" x="1373.673828"/>
      <use xlink:href="#DejaVuSans-5b" x="1405.460938"/>
      <use xlink:href="#DejaVuSans-b0" x="1444.474609"/>
      <use xlink:href="#DejaVuSans-5d" x="1494.474609"/>
     </g>
    </g>
   </g>
   <g id="matplotlib.axis_2">
    <g id="text_5">
     <!-- Object Density -->
     <g transform="translate(26.196094 215.227031) rotate(-90) scale(0.25 -0.25)">
      <defs>
       <path id="DejaVuSans-4f" d="M 2522 4238 
Q 1834 4238 1429 3725 
Q 1025 3213 1025 2328 
Q 1025 1447 1429 934 
Q 1834 422 2522 422 
Q 3209 422 3611 934 
Q 4013 1447 4013 2328 
Q 4013 3213 3611 3725 
Q 3209 4238 2522 4238 
z
M 2522 4750 
Q 3503 4750 4090 4092 
Q 4678 3434 4678 2328 
Q 4678 1225 4090 567 
Q 3503 -91 2522 -91 
Q 1538 -91 948 565 
Q 359 1222 359 2328 
Q 359 3434 948 4092 
Q 1538 4750 2522 4750 
z
" transform="scale(0.015625)"/>
       <path id="DejaVuSans-62" d="M 3116 1747 
Q 3116 2381 2855 2742 
Q 2594 3103 2138 3103 
Q 1681 3103 1420 2742 
Q 1159 2381 1159 1747 
Q 1159 1113 1420 752 
Q 1681 391 2138 391 
Q 2594 391 2855 752 
Q 3116 1113 3116 1747 
z
M 1159 2969 
Q 1341 3281 1617 3432 
Q 1894 3584 2278 3584 
Q 2916 3584 3314 3078 
Q 3713 2572 3713 1747 
Q 3713 922 3314 415 
Q 2916 -91 2278 -91 
Q 1894 -91 1617 61 
Q 1341 213 1159 525 
L 1159 0 
L 581 0 
L 581 4863 
L 1159 4863 
L 1159 2969 
z
" transform="scale(0.015625)"/>
       <path id="DejaVuSans-6a" d="M 603 3500 
L 1178 3500 
L 1178 -63 
Q 1178 -731 923 -1031 
Q 669 -1331 103 -1331 
L -116 -1331 
L -116 -844 
L 38 -844 
Q 366 -844 484 -692 
Q 603 -541 603 -63 
L 603 3500 
z
M 603 4863 
L 1178 4863 
L 1178 4134 
L 603 4134 
L 603 4863 
z
" transform="scale(0.015625)"/>
       <path id="DejaVuSans-65" d="M 3597 1894 
L 3597 1613 
L 953 1613 
Q 991 1019 1311 708 
Q 1631 397 2203 397 
Q 2534 397 2845 478 
Q 3156 559 3463 722 
L 3463 178 
Q 3153 47 2828 -22 
Q 2503 -91 2169 -91 
Q 1331 -91 842 396 
Q 353 884 353 1716 
Q 353 2575 817 3079 
Q 1281 3584 2069 3584 
Q 2775 3584 3186 3129 
Q 3597 2675 3597 1894 
z
M 3022 2063 
Q 3016 2534 2758 2815 
Q 2500 3097 2075 3097 
Q 1594 3097 1305 2825 
Q 1016 2553 972 2059 
L 3022 2063 
z
" transform="scale(0.015625)"/>
       <path id="DejaVuSans-63" d="M 3122 3366 
L 3122 2828 
Q 2878 2963 2633 3030 
Q 2388 3097 2138 3097 
Q 1578 3097 1268 2742 
Q 959 2388 959 1747 
Q 959 1106 1268 751 
Q 1578 397 2138 397 
Q 2388 397 2633 464 
Q 2878 531 3122 666 
L 3122 134 
Q 2881 22 2623 -34 
Q 2366 -91 2075 -91 
Q 1284 -91 818 406 
Q 353 903 353 1747 
Q 353 2603 823 3093 
Q 1294 3584 2113 3584 
Q 2378 3584 2631 3529 
Q 2884 3475 3122 3366 
z
" transform="scale(0.015625)"/>
       <path id="DejaVuSans-44" d="M 1259 4147 
L 1259 519 
L 2022 519 
Q 2988 519 3436 956 
Q 3884 1394 3884 2338 
Q 3884 3275 3436 3711 
Q 2988 4147 2022 4147 
L 1259 4147 
z
M 628 4666 
L 1925 4666 
Q 3281 4666 3915 4102 
Q 4550 3538 4550 2338 
Q 4550 1131 3912 565 
Q 3275 0 1925 0 
L 628 0 
L 628 4666 
z
" transform="scale(0.015625)"/>
       <path id="DejaVuSans-73" d="M 2834 3397 
L 2834 2853 
Q 2591 2978 2328 3040 
Q 2066 3103 1784 3103 
Q 1356 3103 1142 2972 
Q 928 2841 928 2578 
Q 928 2378 1081 2264 
Q 1234 2150 1697 2047 
L 1894 2003 
Q 2506 1872 2764 1633 
Q 3022 1394 3022 966 
Q 3022 478 2636 193 
Q 2250 -91 1575 -91 
Q 1294 -91 989 -36 
Q 684 19 347 128 
L 347 722 
Q 666 556 975 473 
Q 1284 391 1588 391 
Q 1994 391 2212 530 
Q 2431 669 2431 922 
Q 2431 1156 2273 1281 
Q 2116 1406 1581 1522 
L 1381 1569 
Q 847 1681 609 1914 
Q 372 2147 372 2553 
Q 372 3047 722 3315 
Q 1072 3584 1716 3584 
Q 2034 3584 2315 3537 
Q 2597 3491 2834 3397 
z
" transform="scale(0.015625)"/>
       <path id="DejaVuSans-69" d="M 603 3500 
L 1178 3500 
L 1178 0 
L 603 0 
L 603 3500 
z
M 603 4863 
L 1178 4863 
L 1178 4134 
L 603 4134 
L 603 4863 
z
" transform="scale(0.015625)"/>
       <path id="DejaVuSans-79" d="M 2059 -325 
Q 1816 -950 1584 -1140 
Q 1353 -1331 966 -1331 
L 506 -1331 
L 506 -850 
L 844 -850 
Q 1081 -850 1212 -737 
Q 1344 -625 1503 -206 
L 1606 56 
L 191 3500 
L 800 3500 
L 1894 763 
L 2988 3500 
L 3597 3500 
L 2059 -325 
z
" transform="scale(0.015625)"/>
      </defs>
      <use xlink:href="#DejaVuSans-4f"/>
      <use xlink:href="#DejaVuSans-62" x="78.710938"/>
      <use xlink:href="#DejaVuSans-6a" x="142.1875"/>
      <use xlink:href="#DejaVuSans-65" x="169.970703"/>
      <use xlink:href="#DejaVuSans-63" x="231.494141"/>
      <use xlink:href="#DejaVuSans-74" x="286.474609"/>
      <use xlink:href="#DejaVuSans-20" x="325.683594"/>
      <use xlink:href="#DejaVuSans-44" x="357.470703"/>
      <use xlink:href="#DejaVuSans-65" x="434.472656"/>
      <use xlink:href="#DejaVuSans-6e" x="495.996094"/>
      <use xlink:href="#DejaVuSans-73" x="559.375"/>
      <use xlink:href="#DejaVuSans-69" x="611.474609"/>
      <use xlink:href="#DejaVuSans-74" x="639.257812"/>
      <use xlink:href="#DejaVuSans-79" x="678.466797"/>
     </g>
    </g>
   </g>
   <g id="patch_93">
    <path d="M 35.395313 238.84 
L 35.395313 7.2 
" style="fill: none; stroke: #000000; stroke-width: 0.8; stroke-linejoin: miter; stroke-linecap: square"/>
   </g>
   <g id="patch_94">
    <path d="M 413.715312 238.84 
L 413.715312 7.2 
" style="fill: none; stroke: #000000; stroke-width: 0.8; stroke-linejoin: miter; stroke-linecap: square"/>
   </g>
   <g id="patch_95">
    <path d="M 35.395312 238.84 
L 413.715312 238.84 
" style="fill: none; stroke: #000000; stroke-width: 0.8; stroke-linejoin: miter; stroke-linecap: square"/>
   </g>
   <g id="patch_96">
    <path d="M 35.395312 7.2 
L 413.715312 7.2 
" style="fill: none; stroke: #000000; stroke-width: 0.8; stroke-linejoin: miter; stroke-linecap: square"/>
   </g>
  </g>
 </g>
 <defs>
  <clipPath id="pa116abf84f">
   <rect x="35.395313" y="7.2" width="378.32" height="231.64"/>
  </clipPath>
 </defs>
</svg>
